<svg width="112" height="86" xmlns="http://www.w3.org/2000/svg" xmlns:xlink="http://www.w3.org/1999/xlink" xml:space="preserve" overflow="hidden"><defs><clipPath id="clip0"><rect x="733" y="381" width="112" height="86"/></clipPath></defs><g clip-path="url(#clip0)" transform="translate(-733 -381)"><path d="M111.827 36.8979 103.407 36.8979 103.407 28.4785 98.1643 28.4785 98.1643 36.8979 89.7449 36.8979 89.7449 42.1425 98.1643 42.1425 98.1643 50.5601 103.407 50.5601 103.407 42.1425 111.827 42.1425 111.827 36.8979Z" stroke="#003939" stroke-width="0.175112" stroke-miterlimit="10" fill="#013939" transform="matrix(1 0 0 1.00752 733.043 381)"/><path d="M-201.111-73.3782C-201.111-69.4748-204.276-66.3104-208.179-66.3104-212.083-66.3104-215.247-69.4748-215.247-73.3782-215.247-77.2816-212.083-80.446-208.179-80.446-204.276-80.446-201.111-77.2816-201.111-73.3782Z" stroke="#003939" stroke-width="0.175119" stroke-miterlimit="10" fill="#6FBDBD" transform="matrix(0.0709725 -1.00494 0.997441 0.071506 921.777 251.23)"/><path d="M-212.154-70.3425C-212.325-70.4425-212.409-70.6456-212.358-70.8381-212.295-71.0738-212.055-71.2142-211.819-71.1521-211.819-71.1519-211.817-71.1517-211.817-71.1515L-207.835-70.0851C-207.13-69.8956-206.403-70.3141-206.212-71.0202-206.023-71.7266-206.441-72.453-207.147-72.6435L-209.423-73.2529C-210.6-73.5707-211.299-74.7802-210.986-75.9584-210.835-76.5247-210.464-77.0073-209.956-77.298-209.45-77.593-208.846-77.6731-208.28-77.5204L-204.298-76.4539C-204.062-76.3907-203.921-76.1487-203.985-75.9128-204.048-75.6775-204.289-75.5377-204.526-75.601-204.526-75.601-204.526-75.6011-204.526-75.6011L-208.509-76.6676C-209.215-76.8569-209.942-76.4376-210.131-75.7314-210.131-75.7312-210.131-75.7309-210.131-75.7307-210.322-75.0259-209.905-74.2999-209.201-74.109-209.198-74.1085-209.196-74.1079-209.194-74.1074L-206.918-73.498C-205.741-73.1802-205.042-71.9707-205.356-70.7925-205.506-70.2264-205.877-69.7442-206.385-69.4529-206.891-69.1579-207.496-69.0779-208.061-69.2306L-212.043-70.297C-212.082-70.3071-212.118-70.3224-212.152-70.3425Z" stroke="#003939" stroke-width="0.175112" stroke-miterlimit="10" fill="#FFFFFF" transform="matrix(1 0 0 1.00752 1042 529.126)"/><path d="M-209.765-67.8717C-209.938-67.9715-210.022-68.1758-209.97-68.369L-207.228-78.6113C-207.165-78.8467-206.923-78.9864-206.687-78.9232-206.687-78.9232-206.687-78.923-206.687-78.923-206.45-78.8607-206.31-78.6192-206.373-78.3837-206.373-78.3831-206.373-78.3824-206.373-78.3819L-209.117-68.1414C-209.18-67.9057-209.42-67.7652-209.656-67.8274-209.656-67.8276-209.658-67.8277-209.658-67.8279-209.695-67.8386-209.732-67.8531-209.765-67.8717Z" stroke="#003939" stroke-width="0.175112" stroke-miterlimit="10" fill="#FFFFFF" transform="matrix(1 0 0 1.00752 1042 529.126)"/><path d="M-280.85-133.232-277.08-124.963C-276.456-123.594-277.061-121.979-278.428-121.353L-297.078-112.847C-298.447-112.229-300.058-112.832-300.685-114.198L-304.455-122.466C-305.073-123.835-304.471-125.446-303.107-126.074L-284.457-134.575C-283.088-135.195-281.477-134.593-280.85-133.227Z" stroke="#003939" stroke-width="0.175112" stroke-miterlimit="10" fill="#6FBDBD" transform="matrix(1 0 0 1.00752 1042 529.126)"/><path d="M-287.682-123.767C-287.682-121.999-289.115-120.566-290.882-120.566-292.65-120.566-294.083-121.999-294.083-123.767-294.083-125.535-292.65-126.968-290.882-126.968-289.115-126.968-287.682-125.535-287.682-123.767Z" stroke="#003939" stroke-width="0.175181" stroke-miterlimit="10" fill="#013939" transform="matrix(0.22962 -0.98019 0.972877 0.231346 938.446 148)"/><path d="M-280.85-133.232-280.445-132.346C-280.596-132.244-280.755-132.154-280.922-132.078-282.528-131.345-284.424-132.05-285.161-133.654-285.233-133.821-285.293-133.993-285.336-134.169L-284.449-134.574C-283.079-135.193-281.468-134.591-280.841-133.225Z" stroke="#003939" stroke-width="0.175112" stroke-miterlimit="10" fill="#013939" transform="matrix(1 0 0 1.00752 1042 529.126)"/><path d="M-277.483-125.85-277.08-124.963C-276.456-123.594-277.061-121.979-278.428-121.353L-279.316-120.948C-279.419-121.099-279.509-121.258-279.584-121.424-280.319-123.03-279.614-124.927-278.008-125.662-277.84-125.741-277.663-125.804-277.483-125.85Z" stroke="#003939" stroke-width="0.175112" stroke-miterlimit="10" fill="#013939" transform="matrix(1 0 0 1.00752 1042 529.126)"/><path d="M-301.953-126.007C-301.217-124.401-301.923-122.504-303.529-121.768-303.695-121.695-303.867-121.636-304.044-121.593L-304.448-122.479C-305.068-123.847-304.466-125.46-303.1-126.086L-302.224-126.49C-302.119-126.341-302.03-126.182-301.954-126.016Z" stroke="#003939" stroke-width="0.175112" stroke-miterlimit="10" fill="#013939" transform="matrix(1 0 0 1.00752 1042 529.126)"/><path d="M-296.375-113.772C-296.302-113.606-296.242-113.434-296.2-113.257L-297.076-112.853C-298.445-112.233-300.056-112.836-300.683-114.201L-301.088-115.085C-300.937-115.19-300.778-115.281-300.611-115.357-299.006-116.092-297.109-115.386-296.374-113.781Z" stroke="#003939" stroke-width="0.175112" stroke-miterlimit="10" fill="#013939" transform="matrix(1 0 0 1.00752 1042 529.126)"/><path d="M-222.018-139.816-222.018-70.4984C-222.026-67.557-224.408-65.1748-227.35-65.1662L-264.675-65.1662C-267.617-65.1748-269.998-67.557-270.007-70.4984L-270.007-139.816C-269.998-142.758-267.617-145.14-264.675-145.149L-227.35-145.149C-224.408-145.14-222.026-142.758-222.018-139.816Z" stroke="#003939" stroke-width="0.175112" stroke-miterlimit="10" fill="#FFFFFF" transform="matrix(1 0 0 1.00752 1042 529.126)"/><path d="M-222.018-73.1653-222.018-70.4984C-222.026-67.557-224.408-65.1748-227.35-65.1662L-264.675-65.1662C-266.769-65.1713-268.667-66.3985-269.532-68.306-269.846-68.9941-270.009-69.7421-270.007-70.4984L-270.007-73.1653Z" stroke="#003939" stroke-width="0.175112" stroke-miterlimit="10" fill="#303085" transform="matrix(1 0 0 1.00752 1042 529.126)"/><path d="M-222.018-139.816-222.018-137.151-270.007-137.151-270.007-139.816C-269.998-142.758-267.617-145.14-264.675-145.149L-227.35-145.149C-224.408-145.14-222.026-142.758-222.018-139.816Z" stroke="#003939" stroke-width="0.175112" stroke-miterlimit="10" fill="#303085" transform="matrix(1 0 0 1.00752 1042 529.126)"/><path d="M-252.941-140.256-246.558-140.256C-246.218-140.256-245.943-140.531-245.943-140.871-245.94-141.21-246.213-141.488-246.553-141.491-246.554-141.491-246.556-141.491-246.558-141.491L-252.948-141.491C-253.287-141.491-253.562-141.215-253.562-140.876-253.566-140.537-253.293-140.259-252.953-140.256-252.949-140.256-252.944-140.256-252.941-140.256Z" stroke="#003939" stroke-width="0.175112" stroke-miterlimit="10" fill="#FFFFFF" fill-rule="evenodd" transform="matrix(1 0 0 1.00752 1042 529.126)"/><path d="M-242.126-140.256-240.404-140.256C-240.065-140.256-239.79-140.531-239.79-140.871-239.791-141.21-240.065-141.484-240.404-141.485L-242.126-141.485C-242.465-141.484-242.739-141.21-242.74-140.871-242.74-140.531-242.465-140.256-242.126-140.256Z" stroke="#003939" stroke-width="0.175112" stroke-miterlimit="10" fill="#FFFFFF" fill-rule="evenodd" transform="matrix(1 0 0 1.00752 1042 529.126)"/><path d="M-248.677-68.5213-243.346-68.5213C-243.007-68.5213-242.732-68.7964-242.732-69.136-242.732-69.4755-243.007-69.7506-243.346-69.7506L-248.677-69.7506C-249.016-69.7506-249.291-69.4755-249.291-69.136-249.291-68.7964-249.016-68.5213-248.677-68.5213Z" stroke="#003939" stroke-width="0.175112" stroke-miterlimit="10" fill="#FFFFFF" fill-rule="evenodd" transform="matrix(1 0 0 1.00752 1042 529.126)"/><path d="M-221.604-141.254-221.604-67.4286C-221.615-64.2962-224.152-61.7601-227.285-61.7515L-267.035-61.7515C-270.168-61.7601-272.706-64.2962-272.716-67.4286L-272.716-141.254C-272.707-144.387-270.168-146.924-267.035-146.933L-227.285-146.933C-224.152-146.924-221.613-144.387-221.604-141.254Z" stroke="#003939" stroke-width="0.175112" stroke-miterlimit="10" fill="#F3F3F3" transform="matrix(1 0 0 1.00752 1042 529.126)"/><path d="M-221.604-70.269-221.604-67.4286C-221.615-64.2962-224.152-61.7601-227.285-61.7515L-267.035-61.7515C-269.266-61.7568-271.289-63.0631-272.212-65.0944-272.544-65.8272-272.718-66.6235-272.716-67.4286L-272.716-70.269Z" stroke="#003939" stroke-width="0.175112" stroke-miterlimit="10" fill="#6FBDBD" transform="matrix(1 0 0 1.00752 1042 529.126)"/><path d="M-221.604-141.254-221.604-138.416-272.716-138.416-272.716-141.254C-272.707-144.387-270.168-146.924-267.035-146.933L-227.285-146.933C-224.152-146.924-221.613-144.387-221.604-141.254Z" stroke="#003939" stroke-width="0.175112" stroke-miterlimit="10" fill="#6FBDBD" transform="matrix(1 0 0 1.00752 1042 529.126)"/><path d="M-253.884-141.942-247.116-141.942C-246.777-141.943-246.503-142.218-246.502-142.557-246.502-142.897-246.777-143.172-247.116-143.173L-253.884-143.173C-254.224-143.172-254.499-142.897-254.499-142.557-254.497-142.218-254.224-141.943-253.884-141.942Z" stroke="#003939" stroke-width="0.175112" stroke-miterlimit="10" fill="#013939" fill-rule="evenodd" transform="matrix(1 0 0 1.00752 1042 529.126)"/><path d="M-242.401-141.942-241.175-141.942C-240.835-141.942-240.56-142.217-240.558-142.557-240.56-142.897-240.835-143.172-241.175-143.173L-242.401-143.173C-242.74-143.172-243.015-142.897-243.015-142.557-243.015-142.217-242.74-141.942-242.401-141.942Z" stroke="#003939" stroke-width="0.175112" stroke-miterlimit="10" fill="#013939" fill-rule="evenodd" transform="matrix(1 0 0 1.00752 1042 529.126)"/><path d="M-250-65.3623-244.322-65.3623C-243.982-65.3623-243.707-65.6372-243.705-65.977-243.707-66.3167-243.982-66.5916-244.322-66.5916L-250-66.5916C-250.34-66.5916-250.615-66.3165-250.615-65.977-250.615-65.6374-250.34-65.3623-250-65.3623Z" stroke="#003939" stroke-width="0.175112" stroke-miterlimit="10" fill="#FFFFFF" fill-rule="evenodd" transform="matrix(1 0 0 1.00752 1042 529.126)"/><path d="M-263.393-95.0053-256.564-95.0053C-256.361-95.0053-256.196-94.8407-256.196-94.6376-256.194-94.4344-256.359-94.2691-256.562-94.2681-256.562-94.2681-256.564-94.2681-256.564-94.2681L-263.761-94.2681C-263.964-94.267-264.129-94.4309-264.13-94.6341-264.13-94.6353-264.13-94.6363-264.13-94.6376L-264.13-101.836C-264.13-102.04-263.966-102.204-263.763-102.204-263.763-102.204-263.761-102.204-263.761-102.204-263.558-102.204-263.393-102.04-263.393-101.836Z" stroke="#003939" stroke-width="0.175112" stroke-miterlimit="10" fill="#013939" fill-rule="evenodd" transform="matrix(1 0 0 1.00752 1042 529.126)"/><path d="M-228.63-95.0053-228.63-101.835C-228.63-102.038-228.465-102.202-228.262-102.202-228.059-102.202-227.894-102.038-227.893-101.835L-227.893-94.6358C-227.893-94.4318-228.057-94.2663-228.262-94.2663L-235.461-94.2663C-235.664-94.2663-235.829-94.4309-235.829-94.6341-235.829-94.6346-235.829-94.6353-235.829-94.6358-235.829-94.8389-235.664-95.0035-235.461-95.0035Z" stroke="#003939" stroke-width="0.175112" stroke-miterlimit="10" fill="#013939" fill-rule="evenodd" transform="matrix(1 0 0 1.00752 1042 529.126)"/><path d="M-263.393-129.758-263.393-122.929C-263.393-122.725-263.558-122.56-263.761-122.559-263.966-122.559-264.13-122.725-264.13-122.929L-264.13-130.126C-264.13-130.33-263.966-130.495-263.761-130.495L-256.564-130.495C-256.361-130.494-256.196-130.329-256.196-130.126-256.196-129.922-256.361-129.757-256.564-129.756Z" stroke="#003939" stroke-width="0.175112" stroke-miterlimit="10" fill="#013939" fill-rule="evenodd" transform="matrix(1 0 0 1.00752 1042 529.126)"/><path d="M-228.63-129.758-235.459-129.758C-235.662-129.759-235.827-129.924-235.827-130.128-235.827-130.331-235.662-130.496-235.459-130.497L-228.26-130.497C-228.057-130.496-227.893-130.331-227.891-130.128L-227.891-122.93C-227.893-122.727-228.057-122.562-228.26-122.561-228.463-122.562-228.628-122.727-228.628-122.93Z" stroke="#003939" stroke-width="0.175112" stroke-miterlimit="10" fill="#013939" fill-rule="evenodd" transform="matrix(1 0 0 1.00752 1042 529.126)"/><path d="M47.4851 19.1748 78.4047 19.1748 78.4047 50.0943 47.4851 50.0943Z" stroke="#003939" stroke-width="0.175112" stroke-miterlimit="10" fill="#FFFFFF" transform="matrix(1 0 0 1.00752 733.043 381)"/><path d="M-259.801-126.177-259.801-98.5881-232.221-98.5881-232.221-126.168ZM-233.111-99.4864-258.912-99.4864-258.912-125.287-233.111-125.287ZM-250.014-123.508-257.133-123.508-257.133-116.392-250.014-116.392ZM-250.904-117.281-256.243-117.281-256.243-122.619-250.904-122.619ZM-251.795-118.171-255.354-118.171-255.354-121.729-251.795-121.729ZM-234.89-123.508-242.005-123.508-242.005-116.392-234.887-116.392ZM-235.78-117.281-241.119-117.281-241.119-122.619-235.78-122.619ZM-236.671-118.171-240.229-118.171-240.229-121.729-236.671-121.729ZM-250.014-108.384-257.133-108.384-257.133-101.266-250.014-101.266ZM-250.904-102.157-256.243-102.157-256.243-107.494-250.904-107.494ZM-251.795-103.046-255.354-103.046-255.354-106.605-251.795-106.605ZM-248.235-120.84-249.125-120.84-249.125-123.508-248.235-123.508ZM-248.235-107.494-248.235-106.605-246.456-106.605-246.456-105.715-248.235-105.715-248.235-104.824-249.125-104.824-249.125-107.494ZM-256.243-111.053-254.464-111.053-254.464-109.27-251.795-109.27-251.795-111.049-249.127-111.049-249.127-109.27-247.346-109.27-247.346-112.828-246.456-112.828-246.456-107.491-245.567-107.491-245.567-108.38-244.677-108.38-244.677-104.82-246.456-104.82-246.456-103.931-244.677-103.931-244.677-103.041-243.788-103.041-243.788-102.152-245.567-102.152-245.567-101.262-242.898-101.262-242.898-104.82-242.008-104.82-242.008-103.931-241.119-103.931-241.119-104.82-240.229-104.82-240.229-103.041-239.34-103.041-239.34-102.152-241.119-102.152-241.119-101.262-238.45-101.262-238.45-103.041-236.671-103.041-236.671-105.715-239.34-105.715-239.34-106.605-236.671-106.605-236.671-107.494-239.34-107.494-239.34-109.27-242.005-109.27-242.005-110.159-241.115-110.159-241.115-111.939-239.336-111.939-239.336-114.611-241.115-114.611-241.115-112.832-243.784-112.832-243.784-114.611-241.115-114.611-241.115-115.5-244.674-115.5-244.674-111.942-242.005-111.942-242.005-111.053-245.563-111.053-245.563-113.721-247.344-113.721-247.344-116.39-248.234-116.39-248.234-114.611-250.013-114.611-250.013-115.5-252.687-115.5-252.687-114.611-250.908-114.611-250.908-113.721-252.687-113.721-252.687-112.832-250.908-112.832-250.908-111.942-252.687-111.942-252.687-110.163-253.576-110.163-253.576-114.611-256.245-114.611-256.245-115.5-257.135-115.5-257.135-110.163-256.245-110.163-256.245-111.053ZM-242.898-108.384-242.898-107.494-242.008-107.494-242.008-108.384-240.229-108.384-240.229-105.715-241.119-105.715-241.119-106.605-242.005-106.605-242.005-105.715-243.784-105.715-243.784-108.384ZM-250.014-111.942-250.014-113.721-248.235-113.721-248.235-111.942ZM-256.243-113.721-254.464-113.721-254.464-112.832-256.243-112.832ZM-238.45-114.611-234.89-114.611-234.89-111.942-235.78-111.942-235.78-113.721-237.561-113.721-237.561-111.053-235.78-111.053-235.78-109.27-234.89-109.27-234.89-106.601-235.78-106.601-235.78-108.38-237.561-108.38-237.561-110.163-238.45-110.163ZM-246.456-117.281-249.125-117.281-249.125-119.06-247.346-119.06-247.346-123.508-243.788-123.508-243.788-122.619-246.456-122.619ZM-246.456-116.392-246.456-117.281-245.567-117.281-245.567-121.729-244.677-121.729-244.677-120.84-242.898-120.84-242.898-118.171-244.677-118.171-244.677-117.281-243.788-117.281-243.788-116.392ZM-247.346-103.934-246.456-103.934-246.456-102.157-249.125-102.157-249.125-103.046-247.346-103.046ZM-235.788-103.046-234.899-103.046-234.899-101.266-237.569-101.266-237.569-102.157-235.788-102.157-235.788-103.046Z" stroke="#003939" stroke-width="0.175112" stroke-miterlimit="10" fill="#013939" transform="matrix(1 0 0 1.00752 1042 529.126)"/><path d="M-233.205-80.9123C-233.212-79.5615-234.307-78.4684-235.657-78.4607L-256.459-78.4607C-257.809-78.4684-258.903-79.5615-258.91-80.9123L-258.91-83.7141C-258.903-85.0649-257.809-86.1579-256.459-86.1656L-235.657-86.1656C-234.307-86.1579-233.212-85.0649-233.205-83.7141Z" stroke="#003939" stroke-width="0.175112" stroke-miterlimit="10" fill="#FFC749" transform="matrix(1 0 0 1.00752 1042 529.126)"/><path d="M-251.895-80.9455C-251.93-80.9608-251.962-80.9864-251.983-81.0191-252.006-81.0499-252.018-81.0874-252.018-81.1259-252.02-81.1742-252-81.2212-251.967-81.2555-251.935-81.2917-251.888-81.3117-251.839-81.3098-251.809-81.3103-251.781-81.3042-251.755-81.2923-251.482-81.1739-251.188-81.1142-250.89-81.1172-250.377-81.1172-250.12-81.2853-250.121-81.6215-250.12-81.7057-250.156-81.7863-250.221-81.8404-250.291-81.9027-250.375-81.9498-250.465-81.9787-250.561-82.0137-250.697-82.054-250.876-82.0995-251.072-82.1465-251.263-82.2049-251.452-82.2746-251.596-82.3296-251.725-82.417-251.83-82.5303-251.939-82.6567-251.997-82.8205-251.988-82.9874-251.99-83.1486-251.944-83.3071-251.857-83.4426-251.76-83.5852-251.626-83.6974-251.468-83.7666-251.274-83.8519-251.062-83.8932-250.85-83.8874-250.552-83.892-250.254-83.8435-249.974-83.7438-249.899-83.72-249.848-83.6482-249.852-83.5687-249.852-83.522-249.869-83.477-249.901-83.4426-249.93-83.4045-249.978-83.3831-250.027-83.3849-250.051-83.3857-250.076-83.3917-250.097-83.4024-250.323-83.4803-250.559-83.5206-250.797-83.5214-250.993-83.5307-251.189-83.4847-251.361-83.3884-251.498-83.3166-251.582-83.1745-251.58-83.0206-251.582-82.9243-251.545-82.8312-251.477-82.7632-251.401-82.6947-251.314-82.6422-251.217-82.6091-251.079-82.5634-250.937-82.5249-250.794-82.4935-250.603-82.4496-250.417-82.3941-250.233-82.3272-250.093-82.2713-249.967-82.1824-249.869-82.068-249.762-81.9335-249.71-81.7647-249.719-81.5935-249.717-81.435-249.766-81.2802-249.859-81.1522-249.96-81.0166-250.097-80.9114-250.253-80.8475-250.44-80.7708-250.64-80.7331-250.841-80.7372-251.202-80.7337-251.561-80.8053-251.892-80.9473Z" stroke="#003939" stroke-width="0.175112" stroke-miterlimit="10" fill="#FFFFFF" transform="matrix(1 0 0 1.00752 1042 529.126)"/><path d="M-248.549-80.9263C-248.78-81.0532-248.971-81.2432-249.097-81.4744-249.233-81.7316-249.304-82.0199-249.297-82.3114-249.304-82.6025-249.235-82.8902-249.097-83.1467-248.971-83.3787-248.78-83.5694-248.549-83.6966-248.305-83.8256-248.034-83.8913-247.759-83.8874-247.582-83.8895-247.405-83.8659-247.234-83.8174-247.071-83.7682-246.913-83.7006-246.766-83.616-246.701-83.5834-246.663-83.5137-246.67-83.4409-246.67-83.3976-246.687-83.356-246.717-83.3253-246.75-83.2905-246.798-83.2721-246.845-83.2745-246.873-83.2742-246.899-83.2801-246.924-83.292-247.045-83.3561-247.171-83.4078-247.302-83.4461-247.44-83.4833-247.584-83.501-247.728-83.4987-247.952-83.505-248.174-83.4512-248.37-83.3428-248.542-83.243-248.68-83.0952-248.769-82.9173-248.862-82.7263-248.908-82.5165-248.904-82.3044-248.908-82.0924-248.862-81.8826-248.769-81.6915-248.682-81.5133-248.542-81.3653-248.37-81.266-248.174-81.1576-247.952-81.1038-247.728-81.1102-247.584-81.1079-247.44-81.1256-247.302-81.1627-247.171-81.2002-247.045-81.2518-246.924-81.3168-246.899-81.3282-246.873-81.3341-246.845-81.3343-246.798-81.3361-246.752-81.3184-246.717-81.2853-246.686-81.2543-246.668-81.2119-246.67-81.1679-246.663-81.0951-246.701-81.0254-246.766-80.9928-246.913-80.9086-247.071-80.841-247.234-80.7915-247.405-80.7429-247.582-80.7193-247.759-80.7214-248.034-80.7167-248.305-80.7825-248.549-80.9123Z" stroke="#003939" stroke-width="0.175112" stroke-miterlimit="10" fill="#FFFFFF" transform="matrix(1 0 0 1.00752 1042 529.126)"/><path d="M-246.208-80.8142C-246.243-80.8522-246.262-80.9025-246.262-80.9543-246.26-80.9848-246.253-81.0145-246.239-81.0419L-245.12-83.6861C-245.097-83.7363-245.064-83.7808-245.022-83.8156-244.977-83.85-244.92-83.8678-244.864-83.8664L-244.822-83.8664C-244.766-83.8678-244.71-83.85-244.665-83.8156-244.623-83.7808-244.59-83.7363-244.567-83.6861L-243.448-81.0419C-243.434-81.0145-243.427-80.9848-243.425-80.9543-243.425-80.9025-243.444-80.8522-243.479-80.8142-243.516-80.7753-243.569-80.7543-243.623-80.7564-243.663-80.7568-243.702-80.7682-243.735-80.7897-243.768-80.8123-243.794-80.8438-243.812-80.8808L-244.096-81.5654-245.589-81.5654-245.875-80.8808C-245.892-80.8438-245.919-80.8123-245.952-80.7897-245.985-80.7682-246.024-80.7568-246.064-80.7564-246.118-80.7543-246.171-80.7753-246.208-80.8142ZM-245.435-81.9297-244.25-81.9297-244.843-83.3568Z" stroke="#003939" stroke-width="0.175112" stroke-miterlimit="10" fill="#FFFFFF" transform="matrix(1 0 0 1.00752 1042 529.126)"/><path d="M-242.728-80.8142C-242.767-80.851-242.788-80.9016-242.786-80.9543L-242.786-83.581C-242.788-83.6579-242.756-83.7318-242.702-83.7859-242.649-83.841-242.576-83.8722-242.5-83.8717L-242.443-83.8717C-242.345-83.8699-242.255-83.82-242.201-83.7386L-240.511-81.2975-240.511-83.6685C-240.511-83.7223-240.492-83.774-240.453-83.8121-240.417-83.8508-240.366-83.8725-240.313-83.8717-240.261-83.8718-240.208-83.8503-240.171-83.8121-240.133-83.7747-240.11-83.7226-240.112-83.6685L-240.112-81.0419C-240.11-80.9657-240.142-80.8925-240.198-80.8405-240.25-80.7859-240.324-80.7554-240.401-80.7564L-240.455-80.7564C-240.501-80.7571-240.546-80.7685-240.586-80.7897-240.625-80.8111-240.66-80.8403-240.686-80.8755L-242.387-83.3271-242.387-80.9508C-242.387-80.8977-242.408-80.847-242.446-80.8107-242.483-80.7727-242.535-80.7517-242.588-80.7529-242.641-80.7519-242.691-80.7727-242.728-80.8107Z" stroke="#003939" stroke-width="0.175112" stroke-miterlimit="10" fill="#FFFFFF" transform="matrix(1 0 0 1.00752 1042 529.126)"/><path d="M-308.87-81.6127C-308.866-80.6671-308.101-79.9012-307.155-79.8984L-270.585-79.8984C-269.639-79.9012-268.874-80.6671-268.871-81.6127L-268.871-104.927C-268.874-105.873-269.639-106.639-270.585-106.641L-307.147-106.641C-308.092-106.639-308.857-105.873-308.861-104.927L-308.861-81.6127Z" stroke="#003939" stroke-width="0.175112" stroke-miterlimit="10" fill="#E2E8F0" transform="matrix(1 0 0 1.00752 1042 529.126)"/><path d="M0.087556 47.2137 40.0867 47.2137 40.0867 53.2411 0.0875557 53.2411Z" stroke="#003939" stroke-width="0.175112" stroke-miterlimit="10" fill="#6FBDBD" transform="matrix(1 0 0 1.00752 733.043 381)"/><path d="M-299.491-86.6419C-300.056-86.6419-300.596-86.4089-300.983-85.9975-301.371-86.4089-301.911-86.6421-302.476-86.6419-303.613-86.6409-304.536-85.7182-304.534-84.5809-304.534-84.5803-304.534-84.5796-304.534-84.5791-304.532-83.4432-303.613-82.5226-302.476-82.5216-301.911-82.5214-301.371-82.7546-300.983-83.166-300.596-82.7546-300.056-82.5216-299.491-82.5216-298.354-82.5216-297.433-83.4428-297.433-84.5791-297.43-85.7154-298.349-86.639-299.485-86.6419-299.487-86.6419-299.489-86.6419-299.491-86.6419Z" stroke="#003939" stroke-width="0.175112" stroke-miterlimit="10" fill="#FFC749" transform="matrix(1 0 0 1.00752 1042 529.126)"/></g></svg>