<?xml version="1.0" encoding="UTF-8"?>
<svg width="253px" height="53px" viewBox="0 0 253 53" version="1.1" xmlns="http://www.w3.org/2000/svg" xmlns:xlink="http://www.w3.org/1999/xlink">
    <!-- Generator: Sketch 51.3 (57544) - http://www.bohemiancoding.com/sketch -->
    <title>Logo / Express Scripts Logo - white</title>
    <desc>Created with Sketch.</desc>
    <defs></defs>
    <g id="8.2.18---TOU/PP" stroke="none" stroke-width="1" fill="none" fill-rule="evenodd">
        <g id="Gateway-Page---ESI---Accredo-Selected-+-Policies---Large" transform="translate(-166.000000, -14.000000)">
            <g id="Header-/-RWD-/-Accredo-/-RWD-Post-Login---large">
                <g id="upper-nav">
                    <g id="Logo-/-Express-Scripts-Logo---white" transform="translate(166.000000, 14.000000)">
                        <g id="ESI_logo_1c_White_RGB+WEB">
                            <ellipse id="Oval" cx="26.0784615" cy="26.8897059" rx="25.3" ry="25.3308824"></ellipse>
                            <polyline id="Fill-1" fill="#000000" points="62.3181815 32.5918824 62.3181815 18.0574118 70.3737015 18.0574118 70.0599815 20.0332206 64.7306338 20.0332206 64.7306338 24.0027647 69.1997815 24.0027647 69.1997815 25.9972794 64.7726708 25.9972794 64.7726708 30.5334559 70.5831077 30.5334559 70.5831077 32.5918824 62.3181815 32.5918824"></polyline>
                            <polyline id="Fill-2" fill="#000000" points="82.2094308 32.5918824 79.2100185 26.8382647 76.31492 32.5918824 73.3575446 32.5918824 77.8033385 24.8001029 73.9024677 18.0574118 76.8396031 18.0574118 79.1679815 22.5538382 81.4551015 18.0574118 84.3081631 18.0574118 80.6151415 24.6325294 85.1045292 32.5918824 82.2094308 32.5918824"></polyline>
                            <path d="M94.9038031,20.7253382 C94.4647508,20.2639265 93.8357538,20.0121765 92.89148,20.0121765 L91.0037108,20.0121765 L91.0037108,25.1149853 L92.89148,25.1149853 C94.6741569,25.1149853 95.49232,24.2755588 95.49232,22.5538382 C95.49232,21.7549412 95.3031538,21.1454412 94.9038031,20.7253382 L94.9038031,20.7253382 Z M93.4582,27.0479265 L91.0037108,27.0479265 L91.0037108,32.5918824 L88.6122769,32.5918824 L88.6122769,18.0574118 L92.4711108,18.0574118 C94.5900831,18.0574118 95.3669877,18.2678529 96.1641323,18.7518676 C97.4439231,19.5071176 98.1577723,20.8095147 98.1577723,22.40575 C98.1577723,25.2638529 96.0808369,27.0479265 93.4582,27.0479265 L93.4582,27.0479265 Z" id="Fill-3" fill="#000000"></path>
                            <path d="M105.523575,20.0121765 L104.201748,20.0121765 L104.201748,24.6114853 L105.439502,24.6114853 C106.698274,24.6114853 107.368529,24.4439118 107.809138,24.0027647 C108.209268,23.6029265 108.460711,22.9942059 108.460711,22.2373971 C108.460711,20.7674265 107.662788,20.0121765 105.523575,20.0121765 L105.523575,20.0121765 Z M108.88108,32.5918824 L107.620751,30.3448382 C106.614978,28.5607647 105.944723,27.5514265 105.145243,26.7540882 C104.872782,26.4805147 104.663375,26.3332059 104.201748,26.3121618 L104.201748,32.5918824 L101.832111,32.5918824 L101.832111,18.0574118 L106.258443,18.0574118 C109.510077,18.0574118 110.978255,19.9490441 110.978255,22.2163529 C110.978255,24.2973824 109.636188,26.2077206 107.368529,26.2077206 C107.894769,26.4805147 108.86084,27.8873529 109.615169,29.1063529 L111.75516,32.5918824 L108.88108,32.5918824 L108.88108,32.5918824 Z" id="Fill-4" fill="#000000"></path>
                            <polyline id="Fill-5" fill="#000000" points="115.471535 32.5918824 115.471535 18.0574118 123.528612 18.0574118 123.213335 20.0332206 117.885545 20.0332206 117.885545 24.0027647 122.353914 24.0027647 122.353914 25.9972794 117.926803 25.9972794 117.926803 30.5334559 123.73724 30.5334559 123.73724 32.5918824 115.471535 32.5918824"></polyline>
                            <path d="M131.798209,32.8646765 C130.140086,32.8646765 128.460945,32.4243088 127.034803,31.5638382 L127.958058,29.7150735 C129.258089,30.4703235 130.411769,30.9138088 131.881505,30.9138088 C133.664182,30.9138088 134.734566,30.051 134.734566,28.6028529 C134.734566,27.5303824 134.061975,26.8593088 132.574335,26.4384265 L131.020526,25.9972794 C129.69792,25.6200441 128.754425,25.0728971 128.208723,24.2545147 C127.811708,23.6652794 127.601523,22.9731618 127.601523,22.1321765 C127.601523,19.57025 129.614625,17.8267059 132.53152,17.8267059 C134.188086,17.8267059 135.845431,18.3091618 137.123665,19.2132794 L136.033818,20.9139559 C134.693308,20.1173971 133.768495,19.8009559 132.614815,19.8009559 C131.187117,19.8009559 130.2444,20.5788088 130.2444,21.7759853 C130.2444,22.6793235 130.747286,23.1407353 132.174985,23.5608382 L133.894606,24.0658971 C135.991782,24.6746176 137.461517,26.0183235 137.461517,28.2037941 C137.461517,30.6199706 135.509914,32.8646765 131.798209,32.8646765" id="Fill-6" fill="#000000"></path>
                            <path d="M145.729557,32.8646765 C144.072212,32.8646765 142.394628,32.4243088 140.966929,31.5638382 L141.890963,29.7150735 C143.190215,30.4703235 144.344674,30.9138088 145.814409,30.9138088 C147.597865,30.9138088 148.667471,30.051 148.667471,28.6028529 C148.667471,27.5303824 147.996437,26.8593088 146.504905,26.4384265 L144.954988,25.9972794 C143.630825,25.6200441 142.688108,25.0728971 142.143963,24.2545147 C141.744612,23.6652794 141.533649,22.9731618 141.533649,22.1321765 C141.533649,19.57025 143.547529,17.8267059 146.464425,17.8267059 C148.120991,17.8267059 149.779892,18.3091618 151.058905,19.2132794 L149.96828,20.9139559 C148.624655,20.1173971 147.702957,19.8009559 146.546942,19.8009559 C145.123135,19.8009559 144.177305,20.5788088 144.177305,21.7759853 C144.177305,22.6793235 144.681748,23.1407353 146.107889,23.5608382 L147.827511,24.0658971 C149.927022,24.6746176 151.394422,26.0183235 151.394422,28.2037941 C151.394422,30.6199706 149.442818,32.8646765 145.729557,32.8646765" id="Fill-7" fill="#000000"></path>
                            <path d="M166.839098,32.8646765 C165.180197,32.8646765 163.504948,32.4243088 162.076471,31.5638382 L163.002062,29.7150735 C164.301314,30.4703235 165.453437,30.9138088 166.923172,30.9138088 C168.708185,30.9138088 169.776234,30.051 169.776234,28.6028529 C169.776234,27.5303824 169.105978,26.8593088 167.615225,26.4384265 L166.063751,25.9972794 C164.741145,25.6200441 163.798428,25.0728971 163.252726,24.2545147 C162.854932,23.6652794 162.642412,22.9731618 162.642412,22.1321765 C162.642412,19.57025 164.657071,17.8267059 167.573188,17.8267059 C169.232089,17.8267059 170.889434,18.3091618 172.167668,19.2132794 L171.0786,20.9139559 C169.734197,20.1173971 168.812498,19.8009559 167.657262,19.8009559 C166.231898,19.8009559 165.286068,20.5788088 165.286068,21.7759853 C165.286068,22.6793235 165.791289,23.1407353 167.217431,23.5608382 L168.938609,24.0658971 C171.036563,24.6746176 172.503185,26.0183235 172.503185,28.2037941 C172.503185,30.6199706 170.551582,32.8646765 166.839098,32.8646765" id="Fill-8" fill="#000000"></path>
                            <path d="M181.948258,32.8225882 C180.016895,32.8225882 178.48644,32.0883824 177.352222,30.7244118 C176.262375,29.4001912 175.696434,27.6356029 175.696434,25.5358676 C175.696434,23.7915441 176.010932,22.3426176 176.660948,21.1243971 C177.753129,19.0457059 179.744434,17.7853971 182.010535,17.7853971 C183.417215,17.7853971 184.758505,18.2047206 185.617148,18.9194412 L184.50784,20.5156765 C183.732492,19.9490441 182.933012,19.6957353 182.031554,19.6957353 C180.794578,19.6957353 179.766231,20.3270588 179.136455,21.4400588 C178.633569,22.3215735 178.381348,23.5397941 178.381348,25.2638529 C178.381348,27.0479265 178.570514,28.0564853 178.948068,28.8756471 C179.577843,30.2606618 180.774338,30.9348529 182.177905,30.9348529 C183.208588,30.9348529 183.96136,30.6620588 184.778745,30.0089118 L185.912963,31.5427941 C184.778745,32.4032647 183.501289,32.8225882 181.948258,32.8225882" id="Fill-9" fill="#000000"></path>
                            <path d="M193.112954,20.0121765 L191.789569,20.0121765 L191.789569,24.6114853 L193.02888,24.6114853 C194.286095,24.6114853 194.956351,24.4439118 195.39696,24.0027647 C195.798646,23.6029265 196.049311,22.9942059 196.049311,22.2373971 C196.049311,20.7674265 195.249831,20.0121765 193.112954,20.0121765 L193.112954,20.0121765 Z M196.468902,32.5918824 L195.209351,30.3448382 C194.203578,28.5607647 193.531766,27.5514265 192.733065,26.7540882 C192.460603,26.4805147 192.251197,26.3332059 191.789569,26.3121618 L191.789569,32.5918824 L189.418375,32.5918824 L189.418375,18.0574118 L193.846265,18.0574118 C197.09712,18.0574118 198.566855,19.9490441 198.566855,22.2163529 C198.566855,24.2973824 197.223231,26.2077206 194.956351,26.2077206 C195.484148,26.4805147 196.447883,27.8873529 197.201434,29.1063529 L199.342203,32.5918824 L196.468902,32.5918824 L196.468902,32.5918824 Z" id="Fill-10" fill="#000000"></path>
                            <polygon id="Fill-11" fill="#000000" points="203.059357 32.5918824 205.535643 32.5918824 205.535643 18.0574118 203.059357 18.0574118"></polygon>
                            <path d="M216.384283,20.7253382 C215.942117,20.2639265 215.312342,20.0121765 214.368846,20.0121765 L212.47952,20.0121765 L212.47952,25.1149853 L214.368846,25.1149853 C216.15308,25.1149853 216.970465,24.2755588 216.970465,22.5538382 C216.970465,21.7549412 216.782077,21.1454412 216.384283,20.7253382 L216.384283,20.7253382 Z M214.936345,27.0479265 L212.47952,27.0479265 L212.47952,32.5918824 L210.088086,32.5918824 L210.088086,18.0574118 L213.949255,18.0574118 C216.067449,18.0574118 216.845911,18.2678529 217.641498,18.7518676 C218.922846,19.5071176 219.635138,20.8095147 219.635138,22.40575 C219.635138,25.2638529 217.557425,27.0479265 214.936345,27.0479265 L214.936345,27.0479265 Z" id="Fill-12" fill="#000000"></path>
                            <polyline id="Fill-13" fill="#000000" points="231.722311 20.0753088 228.072883 20.0753088 228.072883 32.5918824 225.659652 32.5918824 225.659652 20.0753088 221.986871 20.0753088 221.986871 18.0574118 232.036031 18.0574118 231.722311 20.0753088"></polyline>
                            <path d="M239.152726,32.8646765 C237.493046,32.8646765 235.817018,32.4243088 234.38932,31.5638382 L235.311018,29.7150735 C236.612606,30.4703235 237.766286,30.9138088 239.235243,30.9138088 C241.019477,30.9138088 242.088305,30.051 242.088305,28.6028529 C242.088305,27.5303824 241.418049,26.8593088 239.927295,26.4384265 L238.375822,25.9972794 C237.053215,25.6200441 236.110498,25.0728971 235.565575,24.2545147 C235.164668,23.6652794 234.954483,22.9731618 234.954483,22.1321765 C234.954483,19.57025 236.969142,17.8267059 239.885258,17.8267059 C241.54416,17.8267059 243.199169,18.3091618 244.480517,19.2132794 L243.387557,20.9139559 C242.047046,20.1173971 241.124569,19.8009559 239.970111,19.8009559 C238.543969,19.8009559 237.598138,20.5788088 237.598138,21.7759853 C237.598138,22.6793235 238.101025,23.1407353 239.528723,23.5608382 L241.249902,24.0658971 C243.346298,24.6746176 244.815255,26.0183235 244.815255,28.2037941 C244.815255,30.6199706 242.863652,32.8646765 239.152726,32.8646765" id="Fill-14" fill="#000000"></path>
                            <path d="M250.238797,19.8188824 C250.184305,19.8001765 250.069871,19.7814706 249.949988,19.7814706 L249.764714,19.7814706 L249.764714,20.4735882 L249.939089,20.4735882 C250.160172,20.4735882 250.25748,20.4494265 250.326763,20.3847353 C250.385148,20.3262794 250.421735,20.2366471 250.421735,20.1290882 C250.421735,19.9716471 250.361015,19.8672059 250.238797,19.8188824 L250.238797,19.8188824 Z M250.508145,21.9248529 C250.40928,21.7518235 250.369578,21.6847941 250.266822,21.5008529 C250.021606,21.041 249.939089,20.9131765 249.848788,20.8781029 C249.821542,20.8648529 249.795852,20.8586176 249.764714,20.8586176 L249.764714,21.9248529 L249.26572,21.9248529 L249.26572,19.3722794 L250.214665,19.3722794 C250.668508,19.3722794 250.967437,19.6715735 250.967437,20.1166176 C250.967437,20.5047647 250.710545,20.8165294 250.398382,20.8219853 C250.445868,20.8648529 250.468443,20.8882353 250.505031,20.9334412 C250.648268,21.1173824 251.113788,21.9248529 251.113788,21.9248529 L250.508145,21.9248529 L250.508145,21.9248529 Z M250.060529,18.8391618 C249.09368,18.8391618 248.318332,19.6481912 248.318332,20.6629853 C248.318332,21.6777794 249.09368,22.4992794 250.060529,22.4992794 C251.024265,22.4992794 251.809732,21.6777794 251.809732,20.6629853 C251.809732,19.6481912 251.024265,18.8391618 250.060529,18.8391618 L250.060529,18.8391618 Z M250.060529,22.9412059 C248.821218,22.9412059 247.799098,21.9357647 247.799098,20.6629853 C247.799098,19.3964412 248.821218,18.3863235 250.060529,18.3863235 C251.29984,18.3863235 252.323517,19.3964412 252.323517,20.6629853 C252.323517,21.9357647 251.29984,22.9412059 250.060529,22.9412059 L250.060529,22.9412059 Z" id="Fill-15" fill="#000000"></path>
                            <path d="M26.28164,1.64144118 C12.4888585,1.64144118 1.26811385,12.8735441 1.26811385,26.6847206 C1.26811385,40.4935588 12.4888585,51.7318971 26.28164,51.7318971 C40.0736431,51.7318971 51.2943877,40.4935588 51.2943877,26.6847206 C51.2943877,12.8735441 40.0736431,1.64144118 26.28164,1.64144118 L26.28164,1.64144118 Z M26.28164,53 C11.7890215,53 0,41.1903529 0,26.6847206 C0,12.1759706 11.7890215,0.371 26.28164,0.371 C40.7727015,0.371 52.5625015,12.1759706 52.5625015,26.6847206 C52.5625015,41.1903529 40.7727015,53 26.28164,53 L26.28164,53 Z" id="Fill-16" fill="#000000"></path>
                            <polygon id="Fill-17" fill="#000000" points="0.633667692 25.5343088 52.1008738 25.5343088 52.1008738 24.2911471 0.633667692 24.2911471"></polygon>
                            <polygon id="Fill-18" fill="#000000" points="8.602 8.63276471 44.0266708 8.63276471 44.0266708 7.38960294 8.602 7.38960294"></polygon>
                            <polygon id="Fill-19" fill="#000000" points="6.53129231 43.5028676 45.9619262 43.5028676 45.9619262 42.2597059 6.53129231 42.2597059"></polygon>
                            <path d="M21.2138554,14.6529412 C23.2067169,10.3692941 21.7151846,9.83227941 18.9641015,9.61170588 L19.7347785,7.96792647 L43.3564154,7.96792647 C43.3564154,7.96792647 46.1113908,10.1806765 47.1000369,11.6405147 C46.5636769,13.0676176 46.1931292,14.1899706 45.8163538,15.3965 L43.8702,15.5617353 C44.3061385,13.3365147 44.0188862,11.8712206 43.4474954,11.0060735 C42.7554431,10.0824706 41.1144462,9.59533824 37.0750092,9.59533824 L32.1403415,9.59533824 C31.1407969,9.59533824 30.6822831,9.70211765 29.9746615,11.2219706 L24.2039262,23.5865588 L29.8127415,23.5865588 C35.4215569,23.5865588 36.0707938,23.1508676 38.5354031,19.7916029 L40.3297569,19.7916029 L35.8076738,29.4999559 L34.01332,29.4999559 C34.7333969,25.8655588 34.2382954,25.4844265 28.9260738,25.4844265 L23.2503108,25.4844265 L18.4324123,36.0033676 C17.3480154,38.3377059 16.7377015,39.9666765 17.4429877,40.3415735 C18.4736708,40.8949559 20.3575477,40.9978382 23.5718154,40.9978382 C27.8346708,40.9978382 30.6316831,40.4545882 32.6338862,39.2020735 C34.2351815,38.1755882 36.3121169,36.4406176 38.3734831,34.2699559 L40.0666369,34.4858529 C39.2118862,35.6791324 35.2409538,41.1560588 34.0343385,42.6213529 L6.07355692,42.6213529 C6.07355692,42.6213529 5.47803385,41.8668824 5.11371385,41.3438971 C9.65448,40.9230147 9.49800923,39.8154706 11.2721231,36.0033676 L21.2138554,14.6529412" id="Fill-20" fill="#000000"></path>
                            <path d="M14.5502246,14.6856765 L14.4373477,13.4510882 C15.0710154,13.3926324 15.7109108,13.3521029 16.3679323,13.3637941 C16.7883015,13.3637941 17.2117846,13.3770441 17.6282615,13.4035441 L17.5519723,14.6420294 C17.1510646,14.6170882 16.7680615,14.5976029 16.3367938,14.6069559 C15.7397138,14.6069559 15.1387415,14.6318971 14.5502246,14.6856765 L14.5502246,14.6856765 Z M23.1218646,15.8095882 C22.1838185,15.4635294 21.2138554,15.1907353 20.2322154,14.9927647 L20.4758738,13.7737647 C21.5190123,13.9849853 22.5535877,14.2772647 23.5500185,14.6451471 L23.1218646,15.8095882 L23.1218646,15.8095882 Z M9.01458462,16.0169118 L8.55373538,14.8665 C9.54238154,14.4666618 10.5683938,14.1439853 11.5998554,13.9054853 L11.88088,15.1159118 C10.9085815,15.3403824 9.94484615,15.6412353 9.01458462,16.0169118 L9.01458462,16.0169118 Z M28.1149169,18.5336324 C27.3131015,17.9280294 26.4630215,17.3886765 25.5841385,16.9179118 L26.1679846,15.8228382 C27.1036954,16.3208824 28.0082677,16.8992059 28.8591262,17.5398824 L28.1149169,18.5336324 L28.1149169,18.5336324 Z M4.10015692,18.8898235 L3.32636615,17.9171176 C4.15776308,17.2538382 5.04443077,16.6505735 5.96535077,16.1221324 L6.58344923,17.1969412 C5.71624308,17.6957647 4.88095385,18.2662941 4.10015692,18.8898235 L4.10015692,18.8898235 Z M32.1271077,22.5741029 C31.5323631,21.7713088 30.8706708,21.0043676 30.1614923,20.2997794 L31.0333692,19.4174853 C31.7884769,20.1665 32.4898708,20.9770882 33.1243169,21.8328824 L32.1271077,22.5741029 L32.1271077,22.5741029 Z M34.8205846,27.5942941 C34.4811754,26.6543235 34.06392,25.7330588 33.5851662,24.8523235 L34.6750123,24.2576324 C35.1841262,25.1913676 35.6239569,26.1749853 35.9843846,27.1734118 L34.8205846,27.5942941 L34.8205846,27.5942941 Z" id="Fill-21" fill="#000000"></path>
                            <path d="M35.8582738,34.1140735 C35.8286923,33.1140882 35.7204862,32.1070882 35.5367692,31.1234706 L36.7573969,30.8966618 C36.9535692,31.9551029 37.0687815,33.0112059 37.0991415,34.0751029 L35.8582738,34.1140735 L35.8582738,34.1140735 Z M34.0148769,45.1536618 L32.9561692,44.5044118 C33.4777385,43.6540735 33.7182831,43.2503382 34.1059569,42.3275147 L35.4690431,42.3119265 C35.0572369,43.2924265 34.5668062,44.2518824 34.0148769,45.1536618 L34.0148769,45.1536618 Z M30.1319108,49.7989559 L29.3059631,48.8737941 C30.0509508,48.2073971 30.7531231,47.4763088 31.3867908,46.7085882 L32.3450769,47.4981324 C31.6701508,48.3196324 30.92672,49.0943676 30.1319108,49.7989559 L30.1319108,49.7989559 Z" id="Fill-22" fill="#000000"></path>
                            <polyline id="Fill-23" fill="#000000" points="8.03605846 45.5503824 7.18364308 44.6930294 27.7902985 0.745897059 28.9112831 1.27433824 8.22678154 45.4459412 8.03605846 45.5503824"></polyline>
                            <polyline id="Fill-24" fill="#000000" points="12.5799385 48.7194706 11.4542831 48.1957059 33.1865938 1.48010294 34.3106923 2.00542647 12.5799385 48.7194706"></polyline>
                            <path d="M24.87496,52.6555 L23.9914062,52.0109265 C24.9169969,51.6383676 25.8239046,51.1948824 26.6817692,50.6851471 L27.3154369,51.7552794 C26.4007446,52.2985294 26.0730123,52.4029706 25.0890369,52.7950147 L24.87496,52.6555" id="Fill-25" fill="#000000"></path>
                        </g>
                    </g>
                </g>
            </g>
        </g>
    </g>
</svg>
