<svg width="21" height="22" viewBox="0 0 21 22" fill="none" xmlns="http://www.w3.org/2000/svg">
<path d="M8.60322 6.18367V7.92655H4.30237V17.5124H13.7642V13.1552H15.4846V18.3839C15.4846 18.615 15.3939 18.8366 15.2326 19.0001C15.0713 19.1635 14.8525 19.2553 14.6244 19.2553H3.4422C3.21407 19.2553 2.99528 19.1635 2.83397 19.0001C2.67266 18.8366 2.58203 18.615 2.58203 18.3839V7.05511C2.58203 6.82399 2.67266 6.60233 2.83397 6.43891C2.99528 6.27548 3.21407 6.18367 3.4422 6.18367H8.60322ZM18.0651 3.56934V10.5409H16.3447V6.54357L9.64144 13.3356L8.42516 12.1034L15.1276 5.31222H11.1837V3.56934H18.0651Z" fill="white"/>
</svg>
