<?xml version="1.0" encoding="UTF-8"?><svg id="Layer_2" xmlns="http://www.w3.org/2000/svg" xmlns:xlink="http://www.w3.org/1999/xlink" viewBox="0 0 158.55 105.03"><defs><style>.cls-1,.cls-2{fill:#6ebcbc;}.cls-3{fill:#fff;}.cls-4{fill:#e8e7e7;}.cls-4,.cls-5,.cls-2{fill-rule:evenodd;}.cls-6{fill:#d7d7d7;}.cls-7{fill:#e9f4f6;}.cls-8{fill:#f2f9f8;}.cls-9{fill:#ffc649;}.cls-10{clip-path:url(#clippath);}.cls-11{fill:none;}.cls-12{fill:#215f5f;}.cls-5,.cls-13{fill:#f2f2f2;}.cls-14{fill:#000102;}.cls-15{fill:#c3e4ee;}.cls-16{fill:#86d0ca;}</style><clipPath id="clippath"><rect class="cls-11" x="100.1" y="75.51" width="28.77" height="18.03"/></clipPath></defs><g id="Layer_1-2"><g><g><g><rect class="cls-6" x="88.29" y="22.34" width="40.6" height="7.9"/><polygon class="cls-4" points="47.63 28.16 135.66 28.16 135.66 35.51 134.8 35.51 134.8 45.36 135.66 45.36 135.66 51.64 134.8 51.64 134.8 61.48 135.66 61.48 135.66 67.51 134.8 67.51 134.8 77.36 135.66 77.36 135.66 99.63 72.44 99.63 72.44 85.87 47.63 85.87 47.63 28.16"/><rect class="cls-1" x="71.68" y="67.48" width="26.89" height="9.76"/><rect class="cls-1" x="99.7" y="67.48" width="7.79" height="9.76"/><rect class="cls-1" x="108.61" y="67.48" width="7.79" height="9.76"/><rect class="cls-1" x="117.52" y="67.48" width="7.79" height="9.76"/><rect class="cls-1" x="126.42" y="67.48" width="7.22" height="9.76"/><rect class="cls-1" x="71.68" y="51.74" width="26.89" height="9.76"/><rect class="cls-1" x="99.7" y="51.74" width="7.79" height="9.76"/><rect class="cls-1" x="108.61" y="51.74" width="7.79" height="9.76"/><rect class="cls-1" x="117.52" y="51.74" width="7.79" height="9.76"/><rect class="cls-1" x="126.42" y="51.74" width="7.22" height="9.76"/><rect class="cls-1" x="71.68" y="35.63" width="26.89" height="9.76"/><rect class="cls-1" x="99.7" y="35.63" width="7.79" height="9.76"/><rect class="cls-1" x="108.61" y="35.63" width="7.79" height="9.76"/><rect class="cls-1" x="117.52" y="35.63" width="7.79" height="9.76"/><rect class="cls-1" x="126.42" y="35.63" width="7.22" height="9.76"/></g><rect class="cls-13" x="48.14" width="35.05" height="56.32"/><rect class="cls-1" x="50.84" y="3.05" width="29.64" height="12.57"/><g><rect class="cls-6" x="59.8" y="3.05" width="1.12" height="12.57"/><rect class="cls-6" x="70.4" y="3.05" width="1.12" height="12.57"/></g><polygon class="cls-2" points="43.71 99.34 5.27 99.34 5.27 71.95 32.88 71.95 32.88 78.48 43.71 78.48 43.71 99.34"/><rect class="cls-7" x="18.07" y="84.64" width=".81" height="14.7"/><rect class="cls-13" x="2.51" y="17.42" width="47.44" height="4.76"/><rect class="cls-1" x="5.27" y="22.19" width="43.81" height="34.14"/><rect class="cls-1" x="5.27" y="51.74" width="61.97" height="9.76"/><polygon class="cls-5" points="1.66 42.04 1.66 51.74 2.51 51.74 2.51 61.5 1.66 61.5 1.66 67.48 2.51 67.48 2.51 77.24 1.66 77.24 1.66 85.69 4.2 85.69 4.2 99.34 7.05 99.34 7.05 85.69 26.27 85.69 26.27 99.34 88.96 99.34 88.96 42.04 1.66 42.04"/><rect class="cls-1" x="5.27" y="67.48" width="61.97" height="9.76"/><rect class="cls-1" x="5.27" y="51.44" width="61.97" height="9.76"/><rect class="cls-13" x="11.98" y="21.47" width="1.12" height="58.92"/><rect class="cls-13" x="20.9" y="21.47" width="1.12" height="58.92"/><rect class="cls-13" x="29.81" y="21.47" width="1.12" height="58.92"/><rect class="cls-13" x="38.72" y="21.47" width="1.12" height="58.92"/><rect class="cls-13" x="47.63" y="50.3" width="1.12" height="30.09"/><rect class="cls-13" x="56.54" y="47.15" width="1.12" height="33.23"/><rect class="cls-12" y="99.34" width="138.55" height="5.69" rx="1.22" ry="1.22"/></g><rect class="cls-12" x="93.97" y="100.54" width="63.97" height="4.49" rx="1.2" ry="1.2"/><g><rect class="cls-13" x="96.39" y="62.78" width="59.13" height="37.78"/><path class="cls-12" d="M157.35,68.62h-62.93c-.76,0-1.33-.7-1.18-1.45l1.49-7.14c.12-.56,.61-.96,1.18-.96h59.95c.57,0,1.06,.4,1.18,.96l1.49,7.14c.16,.75-.41,1.45-1.18,1.45Z"/><rect class="cls-1" x="100.1" y="75.51" width="28.77" height="18.03"/><rect class="cls-16" x="134.57" y="75.51" width="15.91" height="25.11"/><rect class="cls-12" x="133.57" y="71.75" width="18.29" height=".91"/><circle class="cls-3" cx="135.77" cy="81.28" r="1.4"/><circle class="cls-12" cx="138.57" cy="81.28" r="1.4"/><rect class="cls-13" x="142.13" y="75.51" width=".8" height="25.14"/><circle class="cls-3" cx="141.36" cy="81.28" r="1.4"/><circle class="cls-12" cx="144.15" cy="81.28" r="1.4"/><circle class="cls-3" cx="146.94" cy="81.28" r="1.4"/><circle class="cls-12" cx="149.74" cy="81.28" r="1.4"/><polygon class="cls-3" points="153.92 81.28 131.59 81.28 133.57 72.66 151.94 72.66 153.92 81.28"/><polygon class="cls-12" points="145.05 72.66 145.55 81.28 142.76 81.28 142.76 72.66 145.05 72.66"/><polygon class="cls-12" points="151.13 81.28 149.64 72.66 147.35 72.66 148.34 81.28 151.13 81.28"/><polygon class="cls-12" points="140.46 72.66 139.96 81.28 137.17 81.28 138.16 72.66 140.46 72.66"/><polygon class="cls-12" points="133.57 72.66 131.59 81.28 134.38 81.28 135.87 72.66 133.57 72.66"/><path class="cls-12" d="M131.59,81.28h0c0,.78,.63,1.4,1.4,1.4s1.4-.63,1.4-1.4h-2.79Z"/><path class="cls-3" d="M152.53,82.68c.77,0,1.4-.63,1.4-1.4h-2.79c0,.77,.63,1.4,1.4,1.4Z"/><rect class="cls-13" x="139.97" y="86.77" width="1.17" height="3.91" rx=".3" ry=".3"/><rect class="cls-13" x="143.91" y="86.77" width="1.17" height="3.91" rx=".3" ry=".3"/><rect class="cls-9" x="128.03" y="46.14" width="24.93" height="19.03" rx="3.36" ry="3.36"/><g class="cls-10"><path class="cls-3" d="M127.86,69.31h-15.26c-1.54,0-2.79,1.25-2.79,2.79v24.66c0,1.54,1.25,2.79,2.79,2.79h15.26c1.54,0,2.79-1.25,2.79-2.79v-24.66c0-1.54-1.25-2.79-2.79-2.79Zm-15.26,1.04h15.26c.97,0,1.75,.79,1.75,1.75v2.72h-18.76v-2.72c0-.97,.79-1.75,1.75-1.75Zm-1.75,16.54v-5.23h18.76v5.23h-18.76Zm18.76,.81v5.23h-18.76v-5.23h18.76Zm-18.76-6.85v-5.23h18.76v5.23h-18.76Zm17.01,17.66h-15.26c-.97,0-1.75-.79-1.75-1.75v-3.02h18.76v3.02c0,.97-.79,1.75-1.75,1.75Z"/><rect class="cls-8" x="111.98" y="73.5" width="4.61" height="1.32"/><rect class="cls-15" x="112.42" y="73.79" width="1.87" height=".78"/><rect class="cls-8" x="111.98" y="72" width="4.61" height="1.32" transform="translate(228.56 145.32) rotate(180)"/><rect class="cls-15" x="114.28" y="72.25" width="1.87" height=".78" transform="translate(230.43 145.28) rotate(180)"/><rect class="cls-8" x="120.87" y="72.27" width="3.54" height="1.43" transform="translate(195.63 -49.65) rotate(90)"/><rect class="cls-15" x="121.9" y="71.85" width="1.43" height=".85" transform="translate(194.89 -50.34) rotate(90)"/><rect class="cls-8" x="122.5" y="72.27" width="3.54" height="1.43" transform="translate(51.28 197.26) rotate(-90)"/><rect class="cls-15" x="123.58" y="73.28" width="1.43" height=".85" transform="translate(50.58 198) rotate(-90)"/><rect class="cls-8" x="124.29" y="72.27" width="3.54" height="1.43" transform="translate(199.05 -53.07) rotate(90)"/><rect class="cls-15" x="125.33" y="71.85" width="1.43" height=".85" transform="translate(198.32 -53.77) rotate(90)"/><rect class="cls-8" x="125.93" y="72.27" width="3.54" height="1.43" transform="translate(54.7 200.69) rotate(-90)"/><rect class="cls-15" x="127" y="73.28" width="1.43" height=".85" transform="translate(54.01 201.43) rotate(-90)"/><rect class="cls-8" x="116.91" y="73.5" width="4.61" height="1.32" transform="translate(238.44 148.33) rotate(-180)"/><rect class="cls-15" x="119.22" y="73.79" width="1.87" height=".78" transform="translate(240.31 148.36) rotate(-180)"/><rect class="cls-8" x="116.91" y="72" width="4.61" height="1.32"/><rect class="cls-15" x="117.35" y="72.25" width="1.87" height=".78"/><rect class="cls-15" x="112.46" y="94.45" width="1.78" height="1.97" rx=".46" ry=".46"/><rect class="cls-8" x="112.46" y="95.06" width="1.78" height=".8"/><polygon class="cls-16" points="113.67 95.34 113.46 95.34 113.46 95.14 113.24 95.14 113.24 95.34 113.03 95.34 113.03 95.56 113.24 95.56 113.24 95.77 113.46 95.77 113.46 95.56 113.67 95.56 113.67 95.34"/><rect class="cls-15" x="112.46" y="96.55" width="1.78" height="1.97" rx=".46" ry=".46"/><rect class="cls-8" x="112.46" y="97.16" width="1.78" height=".8"/><polygon class="cls-16" points="113.67 97.44 113.46 97.44 113.46 97.24 113.24 97.24 113.24 97.44 113.03 97.44 113.03 97.66 113.24 97.66 113.24 97.87 113.46 97.87 113.46 97.66 113.67 97.66 113.67 97.44"/><rect class="cls-15" x="114.53" y="94.45" width="1.78" height="1.97" rx=".46" ry=".46"/><rect class="cls-8" x="114.53" y="95.06" width="1.78" height=".8"/><polygon class="cls-16" points="115.74 95.34 115.53 95.34 115.53 95.14 115.31 95.14 115.31 95.34 115.1 95.34 115.1 95.56 115.31 95.56 115.31 95.77 115.53 95.77 115.53 95.56 115.74 95.56 115.74 95.34"/><rect class="cls-15" x="114.53" y="96.55" width="1.78" height="1.97" rx=".46" ry=".46"/><rect class="cls-8" x="114.53" y="97.16" width="1.78" height=".8"/><polygon class="cls-16" points="115.74 97.44 115.53 97.44 115.53 97.24 115.31 97.24 115.31 97.44 115.1 97.44 115.1 97.66 115.31 97.66 115.31 97.87 115.53 97.87 115.53 97.66 115.74 97.66 115.74 97.44"/><rect class="cls-15" x="116.6" y="94.45" width="1.78" height="1.97" rx=".46" ry=".46"/><rect class="cls-8" x="116.6" y="95.06" width="1.78" height=".8"/><polygon class="cls-16" points="117.81 95.34 117.6 95.34 117.6 95.14 117.38 95.14 117.38 95.34 117.17 95.34 117.17 95.56 117.38 95.56 117.38 95.77 117.6 95.77 117.6 95.56 117.81 95.56 117.81 95.34"/><rect class="cls-15" x="116.6" y="96.55" width="1.78" height="1.97" rx=".46" ry=".46"/><rect class="cls-8" x="116.6" y="97.16" width="1.78" height=".8"/><polygon class="cls-16" points="117.81 97.44 117.6 97.44 117.6 97.24 117.38 97.24 117.38 97.44 117.17 97.44 117.17 97.66 117.38 97.66 117.38 97.87 117.6 97.87 117.6 97.66 117.81 97.66 117.81 97.44"/></g><path class="cls-3" d="M129.46,94.14h-29.96v-19.22h29.96v19.22Zm-28.77-1.19h27.57v-16.84h-27.57v16.84Z"/><rect class="cls-3" x="100.17" y="80.13" width="28.5" height="1.55"/></g><g><path class="cls-3" d="M140.18,54.16c-.02-.59-.04-1.18-.05-1.77,0-.15-.03-.19-.18-.13-.31,.12-.63,.1-.98,.03l.31-.41-.02-.05c-.55,.47-1.13,.76-1.87,.42l.54-.48-.02-.03c-.23,.13-.47,.26-.7,.38-.17,.09-.35,.15-.54,.15-.26,0-.46-.1-.61-.33l1.03-.57-.02-.04c-.26,.11-.52,.2-.77,.32-.37,.16-.74,.3-1.15,.28-.2,0-.38-.05-.51-.21-.09-.1-.1-.17,.05-.22,.47-.17,.94-.35,1.41-.53,.03-.01,.06-.03,.09-.06-.14-.02-.27,.05-.4,.08-.38,.1-.76,.21-1.13,.32-.9,.25-1.73-.16-2.1-1.01-.06-.14-.04-.19,.11-.21,.66-.1,1.33-.2,1.99-.3,.98-.15,1.95-.31,2.93-.46,.29-.05,.59-.08,.87-.13,.14-.03,.18,0,.19,.14,.05,.37,.18,.72,.46,.98,.23,.21,.5,.3,.8,.33,.11,0,.16-.01,.15-.14-.01-.2-.02-.41,0-.61,0-.1-.04-.15-.12-.2-.41-.27-.56-.74-.4-1.18,.15-.4,.59-.68,1.01-.64,.48,.05,.83,.39,.91,.88,.05,.36-.15,.76-.5,.96-.1,.05-.13,.11-.13,.22,0,.18,0,.37-.01,.55,0,.12,.02,.16,.15,.16,.67,0,1.18-.41,1.34-1.12,.03-.12,0-.29,.09-.34,.09-.05,.24,.02,.36,.04,1.44,.22,2.88,.45,4.32,.67,.47,.07,.93,.15,1.4,.22-.12,.66-.82,1.23-1.5,1.27-.39,.02-.75-.1-1.12-.2-.36-.1-.72-.2-1.08-.3-.04-.01-.07-.04-.11,0l.08,.03c.5,.19,1.01,.39,1.51,.58,.21,.08,.22,.15,.04,.29-.23,.18-.49,.16-.76,.14-.4-.04-.74-.24-1.11-.38-.17-.07-.34-.16-.54-.17,.3,.17,.6,.34,.9,.5,.15,.08,.13,.14,.03,.23-.23,.22-.63,.25-.98,.06-.21-.11-.42-.23-.63-.34-.05-.02-.09-.07-.17-.05,.1,.09,.19,.17,.28,.25,.09,.08,.18,.16,.29,.26-.47,.17-.91,.21-1.33-.04-.17-.1-.34-.22-.51-.33-.01-.03-.05-.06-.06-.04-.02,.03,.02,.05,.03,.07l.29,.38c-.4,.07-.78,.1-1.13-.1-.13-.07-.13,0-.13,.09-.01,.57-.03,1.15-.04,1.72,0,.07-.01,.13-.02,.2l-.53-.04Zm.56-5.93c-.13,0-.19,.09-.15,.23,.05,.16,.18,.26,.31,.32,.08,.03,.18-.02,.2-.13,.03-.18-.17-.41-.36-.41Zm-4.43,2.65s-.02-.02-.03-.02c0,0-.02,.01-.03,.02,0,0,.02,.02,.03,.02,.01,0,.02-.01,.03-.02Z"/><path class="cls-3" d="M139.18,56.14c-.21-.14-.42-.26-.49-.52-.12-.42,.04-.73,.36-.99,.19,.06,.38,.13,.58,.15-.06,.08-.13,.15-.18,.23-.15,.26-.09,.47,.18,.6,.12,.06,.25,.09,.38,.13,.14,.04,.2,.02,.19-.15-.02-.27-.01-.54-.02-.81,.16,0,.33-.01,.49,.02,0,.28,0,.57,0,.85,0,.11,0,.17,.14,.17,.16,0,.31,.06,.47,.09,.22,.07,.44,.17,.62,.32,.38,.47,.37,1.24-.01,1.69-.15-.23-.36-.35-.62-.41,.03-.04,.05-.08,.08-.12,.18-.26,.15-.52-.09-.72-.18-.15-.38-.24-.62-.28-.03,.34,.01,.67-.05,1l-.35-.05c0-.29-.02-.58-.02-.86,0-.11-.03-.16-.14-.16-.14,0-.28-.02-.42-.03l-.5-.14Z"/><path class="cls-1" d="M141.91,56.22c-.19-.15-.4-.24-.62-.32,.47-.33,.34-.81-.15-1-.15-.06-.3-.09-.46-.11-.16-.03-.33-.02-.49-.02h-.56c-.2-.02-.39-.09-.58-.15-.17-.09-.34-.17-.48-.3-.25-.24-.34-.53-.24-.87,.1-.35,.3-.63,.67-.74,.1-.03,.18,0,.27,.04,.14,.07,.29,.13,.44,.2,.04,.02,.1,0,.1,.05,0,.06-.05,.08-.09,.1-.04,.02-.08,.03-.12,.05,.04,.06,.1,.11,.1,.19,0,.09-.03,.16-.14,.14-.1-.02-.17,0-.24,.07-.1,.1-.22,.13-.36,.1-.05,0-.1-.03-.13,.03-.03,.06,0,.11,.03,.15,.09,.12,.21,.18,.35,.22,.32,.1,.64,.08,.97,.08l.53,.04,.32,.05c.33,.05,.65,.15,.92,.35,.25,.22,.38,.51,.39,.84,0,.33-.13,.6-.42,.78Z"/><path class="cls-3" d="M140.54,60.69c0,.23-.02,.47-.03,.7,0,.08,.02,.13,.09,.18,.25,.17,.28,.33,.12,.61-.05-.1-.09-.21-.24-.26v1.54h-.06c0-.09,0-.19,0-.29-.01-.41-.03-.81-.03-1.22,0-.08-.02-.13-.1-.15-.08-.03-.16-.07-.24-.09-.53-.18-.55-.59-.4-1.03,.02-.05,.05-.08,.07-.13l.37,.08c-.21,.42-.13,.67,.25,.79v-1.18c0-.08,0-.16,0-.24q-.03-.48-.5-.59l-.36-.13c-.46-.38-.51-.85-.13-1.33,.04-.05,.09-.1,.13-.15,.19,.06,.39,.11,.59,.13-.08,.07-.19,.09-.24,.19-.18,.3-.18,.63,.35,.78,.12,.03,.14,0,.13-.1-.01-.28-.02-.55-.03-.83l.33,.04c0,.18,0,.37-.02,.55-.02,.43-.02,.43,.41,.55,.2,.07,.39,.16,.55,.31,.28,.43,.24,.84-.11,1.14-.1-.17-.28-.2-.44-.27,.08-.26-.08-.49-.45-.61v1.02Z"/><path class="cls-1" d="M141.56,59.41c-.16-.15-.35-.24-.55-.31,.04-.03,.09-.07,.13-.1,.17-.15,.25-.35,.21-.58-.04-.21-.22-.28-.4-.34-.11-.04-.23-.05-.34-.07l-.33-.04-.21-.04c-.2-.02-.39-.07-.59-.13-.35-.18-.58-.45-.62-.85-.04-.33,.04-.61,.32-.81l.5,.14c0,.06-.05,.1-.07,.15-.16,.39-.11,.75,.39,.86,.08,.02,.17,.03,.25,.04l.35,.05,.68,.12c.26,.06,.47,.18,.62,.41,.2,.36,.24,.73,.06,1.11-.09,.18-.22,.31-.4,.39Z"/><path class="cls-3" d="M141.94,54.6c-.27-.2-.59-.3-.92-.35,.19-.04,.39-.03,.58-.1,.14-.05,.27-.12,.35-.26,.05-.1,.02-.17-.1-.14-.17,.04-.3-.01-.42-.12-.04-.04-.08-.06-.13-.05-.07,.01-.16,.04-.2-.05-.04-.09,0-.18,.06-.25,0,0,.01-.02,.03-.04-.02,0-.05,0-.06-.02-.06-.03-.15-.04-.15-.12,0-.09,.1-.05,.15-.08,.09-.05,.19-.08,.28-.13,.34-.2,.56-.11,.8,.17,.42,.49,.45,1.17-.27,1.54Z"/><path class="cls-1" d="M140.54,60.69v-.46c.17-.03,.31,.03,.46,.05,.16,.07,.34,.1,.44,.27,.23,.46,.11,.92-.32,1.21-.05,.04-.13,.13-.17,0-.04-.1-.23-.18-.05-.32,.05-.04,.09-.09,.12-.14,.14-.23,.07-.45-.18-.55-.1-.04-.2-.07-.3-.07Z"/><path class="cls-1" d="M139.47,59.29l.36,.13c-.23,.45-.13,.64,.36,.75,.05,.01,.13-.01,.15,.08v.41l-.24-.03-.37-.08c-.31-.15-.5-.39-.51-.75,0-.22,.07-.4,.26-.52Z"/><path class="cls-9" d="M140.73,48.23c.19,0,.39,.23,.36,.41-.02,.11-.12,.17-.2,.13-.14-.06-.26-.16-.31-.32-.04-.13,.02-.22,.15-.23Z"/><path class="cls-14" d="M144.75,50.9l-.08-.03s.07-.02,.11,0l-.02,.03Z"/><path class="cls-14" d="M141.73,51.91s-.06-.04-.03-.07c.01-.02,.05,.01,.06,.04l-.03,.03Z"/><path class="cls-14" d="M136.3,50.87s-.02,.02-.03,.02c0,0-.02,0-.03-.02,0,0,.02-.02,.03-.02,0,0,.02,0,.03,.02Z"/></g><polygon class="cls-9" points="72.98 27.72 68.19 27.72 68.19 22.93 63.14 22.93 63.14 27.72 58.35 27.72 58.35 32.77 63.14 32.77 63.14 37.56 68.19 37.56 68.19 32.77 72.98 32.77 72.98 27.72"/></g></g></svg>