<svg width="318" height="164" viewBox="0 0 318 164" fill="none" xmlns="http://www.w3.org/2000/svg">
<g clip-path="url(#clip0)">
<path d="M34.47 132.488H8.05242V142.012H32.2097C35.7414 142.012 38.143 142.572 39.4145 143.833C40.6859 145.093 41.3923 147.334 41.3923 150.695V155.037C41.3923 158.398 40.8272 160.639 39.5557 161.899C38.2843 163.16 35.8827 163.72 32.351 163.72H9.32385C5.79209 163.72 3.24922 163.16 1.97779 161.899C0.706353 160.639 0 158.258 0 154.897V152.656H6.49844V158.118H34.8938V147.894H10.7366C7.2048 147.894 4.8032 147.334 3.53176 146.073C2.26033 144.813 1.55398 142.572 1.69525 139.211V135.71C1.69525 132.348 2.4016 130.107 3.67303 128.847C4.94447 127.587 7.34607 127.026 10.8778 127.026H31.9271C35.4589 127.026 37.8605 127.587 39.1319 128.847C40.4034 129.967 41.1097 132.068 41.1097 135.009V137.25H34.6113V132.488H34.47Z" fill="#676868"/>
<path d="M63.5727 133.889C63.5727 134.449 63.5727 135.149 63.714 136.13C63.714 137.67 63.8552 138.651 63.8552 139.071V163.72H57.9219V127.026H63.8552L82.5029 150.695L99.7379 127.026H106.378V163.58H99.7379V138.931C99.7379 138.09 99.7379 137.11 99.8792 136.27C100.02 135.429 100.02 134.589 100.162 133.889C99.738 134.869 99.3141 135.99 98.8903 136.97C98.6078 137.67 98.184 138.371 97.6189 138.931L83.2093 157.838H81.3728L66.2568 139.071C65.6918 138.371 65.2679 137.53 64.8441 136.83C64.4203 135.85 63.9965 134.869 63.5727 133.889Z" fill="#676868"/>
<path d="M190.434 164V127.447H220.807C222.926 127.307 225.186 127.867 226.881 129.127C228.294 130.528 228.859 132.489 228.718 134.589V142.712C228.859 144.673 228.294 146.634 226.881 148.034C225.186 149.295 222.926 149.855 220.807 149.715H215.862L232.532 164H223.067L208.092 149.715H197.78V164H190.434ZM217.558 132.769H197.497V144.533H217.558C218.688 144.673 219.818 144.393 220.807 143.833C221.513 142.992 221.796 141.872 221.654 140.892V136.55C221.796 135.57 221.372 134.589 220.807 133.749C219.818 133.049 218.688 132.769 217.558 132.769Z" fill="#676868"/>
<path d="M264.883 132.909V164H257.82V132.909H240.02V127.447H282.825V132.909H264.883Z" fill="#676868"/>
<path d="M177.293 163.86H163.731L147.908 137.81L131.521 163.86H118.383L147.908 115.962L177.293 163.86Z" fill="#64AED0"/>
<path d="M118.527 0H131.948L147.77 25.9095L163.875 0H177.013L147.77 47.6174L118.527 0Z" fill="#722772"/>
<path d="M85.6094 49.998L92.3904 39.4941H124.035L108.354 13.3045L114.852 2.66064L143.954 49.998H85.6094Z" fill="#E24A31"/>
<path d="M210.071 54.3398L203.432 64.8437H171.787L187.468 91.3134L180.828 101.957L151.727 54.3398H210.071Z" fill="#89BF44"/>
<path d="M180.828 2.38086L187.609 13.4449L171.646 39.4944H203.573L210.071 49.9983H151.727L180.828 2.38086Z" fill="#E77D26"/>
<path d="M114.852 101.957L108.071 90.8932L124.035 64.8437H92.1078L85.6094 54.3398H143.954L114.852 101.957Z" fill="#F1B42A"/>
<path d="M291.865 125.626C292.571 124.086 293.56 122.685 294.831 121.565C296.103 120.444 297.515 119.464 299.211 118.904C302.601 117.643 306.415 117.643 309.665 118.904C311.219 119.464 312.773 120.444 314.044 121.565C315.315 122.685 316.304 124.086 317.011 125.626C317.717 127.167 318.141 128.988 318.141 130.668C318.141 132.489 317.717 134.169 317.011 135.71C316.304 137.251 315.315 138.651 314.044 139.771C312.773 140.892 311.36 141.872 309.665 142.432C306.274 143.693 302.46 143.693 299.211 142.432C297.657 141.872 296.103 140.892 294.831 139.771C293.56 138.651 292.571 137.251 291.865 135.71C291.158 134.169 290.734 132.349 290.734 130.668C290.734 128.988 291.158 127.307 291.865 125.626ZM294.125 135.01C294.69 136.27 295.538 137.531 296.526 138.511C297.515 139.491 298.787 140.332 300.058 140.892C301.471 141.452 303.025 141.732 304.438 141.732C305.992 141.732 307.404 141.452 308.817 140.892C310.088 140.332 311.36 139.631 312.349 138.511C313.338 137.531 314.185 136.27 314.75 135.01C315.315 133.609 315.598 132.209 315.598 130.668C315.598 129.268 315.315 127.727 314.75 126.467C314.185 125.206 313.338 123.946 312.349 123.105C311.36 122.125 310.088 121.285 308.817 120.865C307.404 120.304 305.992 120.024 304.438 120.024C302.884 120.024 301.471 120.304 300.058 120.865C298.787 121.425 297.515 122.125 296.526 123.105C295.538 124.086 294.69 125.206 294.125 126.467C293.56 127.727 293.277 129.268 293.277 130.668C293.136 132.209 293.419 133.609 294.125 135.01ZM305.285 123.245C306.839 123.105 308.252 123.526 309.523 124.366C310.512 125.206 311.077 126.327 310.936 127.587C311.077 128.707 310.654 129.828 309.665 130.528C308.817 131.228 307.687 131.648 306.557 131.648L311.077 138.231H308.393L304.014 131.789H301.33V138.231H298.787V123.245H305.285ZM304.155 129.968C304.72 129.968 305.285 129.968 305.709 129.968C306.133 129.968 306.557 129.828 306.98 129.688C307.404 129.548 307.687 129.268 307.828 128.847C308.111 128.427 308.252 128.007 308.111 127.447C308.111 127.027 307.969 126.607 307.828 126.327C307.687 126.046 307.404 125.766 306.98 125.626C306.698 125.486 306.274 125.346 305.85 125.346C305.427 125.346 305.003 125.206 304.579 125.206H301.33V129.968H304.155Z" fill="#676868"/>
</g>
<defs>
<clipPath id="clip0">
<rect width="318" height="164" fill="white"/>
</clipPath>
</defs>
</svg>
