<svg width="80" height="45" viewBox="0 0 80 45" fill="none" xmlns="http://www.w3.org/2000/svg">
<g clip-path="url(#clip0)">
<path d="M8.66815 36.3586H2.01155V38.957H8.09951C8.98801 38.957 9.59455 39.1211 9.91915 39.4491C10.2437 39.7771 10.406 40.4023 10.406 41.3249V42.5241C10.406 43.4492 10.2473 44.0745 9.92981 44.3999C9.61232 44.7254 9.00222 44.8894 8.09951 44.892H2.32785C1.42278 44.892 0.809122 44.728 0.486895 44.3999C0.164668 44.0719 0.00236932 43.4467 0 42.5241V41.8976H1.63838V43.389H8.79965V40.5715H2.68681C1.7912 40.5715 1.18229 40.4075 0.860062 40.0795C0.537835 39.7514 0.379091 39.1236 0.383829 38.196V37.2465C0.383829 36.3317 0.543758 35.7064 0.863616 35.3707C1.18347 35.035 1.79239 34.8672 2.69036 34.8672H7.96801C8.8494 34.8672 9.45831 35.0286 9.79476 35.3515C10.1312 35.6744 10.3018 36.2446 10.3065 37.062V37.6694H8.66815V36.3586Z" fill="white"/>
<path d="M15.9919 36.7277C15.9919 36.8737 15.9919 37.0736 16.0132 37.3273C16.0132 37.7425 16.0346 38.0077 16.0346 38.1268V44.892H14.5703V34.8711H16.0452L20.7542 41.3672L25.0936 34.8711H26.7533V44.892H25.0936V38.1268C25.0936 37.8808 25.0936 37.6425 25.1221 37.4119C25.1505 37.1813 25.1683 36.9583 25.2038 36.743C25.1095 37.0276 25.0003 37.306 24.8768 37.5772C24.7948 37.7725 24.6923 37.9569 24.5712 38.1268L20.9284 43.3084H20.4593L16.6778 38.173C16.5417 37.9778 16.4227 37.7693 16.3224 37.5503C16.1916 37.2863 16.081 37.0112 15.9919 36.7277Z" fill="white"/>
<path d="M47.9023 44.9997V34.9788H55.5292C56.072 34.9251 56.6142 35.0878 57.0538 35.4362C57.2234 35.6343 57.3525 35.8688 57.4328 36.1244C57.513 36.3801 57.5425 36.6511 57.5194 36.9199V39.1571C57.5424 39.4229 57.5128 39.6911 57.4325 39.9436C57.3523 40.1961 57.2232 40.4272 57.0538 40.6216C56.6123 40.9653 56.0709 41.125 55.5292 41.0713H54.2711L58.4577 44.9959H56.0623L52.2808 41.0713H49.69V44.9959H47.913L47.9023 44.9997ZM54.7331 36.4471H49.6936V39.6798H54.7331C55.0173 39.7143 55.3037 39.641 55.5434 39.4723C55.7075 39.2429 55.7816 38.953 55.7495 38.665V37.4619C55.7711 37.1844 55.6921 36.9087 55.5292 36.6931C55.2997 36.5117 55.0158 36.4294 54.7331 36.4625" fill="white"/>
<path d="M66.6332 36.4709V45.0004H64.8527V36.4709H60.3711V34.9795H71.1361V36.4709H66.6332Z" fill="white"/>
<path d="M44.5878 44.9762H41.1867L37.2027 37.8305L33.1014 44.9762H29.7891L37.1956 31.8379L44.5878 44.9762Z" fill="#64AED0"/>
<path d="M29.8203 0H33.2001L37.1593 7.0996L41.2357 0H44.5231L37.1664 13.0537L29.8203 0Z" fill="#722772"/>
<path d="M21.5391 13.7302L23.2308 10.8242H31.1881L27.2467 3.64777L28.8922 0.71875L36.2099 13.7302H21.5391Z" fill="#E24A31"/>
<path d="M52.8544 14.9062L51.1663 17.8084H43.2054L47.1467 25.0463L45.5012 27.9754L38.1836 14.9062H52.8544Z" fill="#89BF44"/>
<path d="M45.4931 0.665039L47.1848 3.67093L43.183 10.8243H51.2008L52.8462 13.7303H38.1719L45.4931 0.665039Z" fill="#E77D26"/>
<path d="M28.8887 27.9715L27.2005 24.9618L31.1988 17.8084H23.1846L21.5391 14.9062H36.2134L28.8887 27.9715Z" fill="#F1B42A"/>
<path d="M73.4144 34.4909C73.5914 34.0721 73.844 33.6957 74.1572 33.3839C74.4767 33.0677 74.8479 32.8187 75.2518 32.6497C76.1037 32.2939 77.0476 32.2939 77.8995 32.6497C78.3001 32.8191 78.6677 33.0681 78.9835 33.3839C79.2944 33.6972 79.5455 34.0732 79.7227 34.4909C79.907 34.9234 80.0005 35.3946 79.9964 35.8708C80.0008 36.3532 79.9074 36.8308 79.7227 37.27C79.5454 37.6898 79.2943 38.0684 78.9835 38.3847C78.6693 38.7027 78.3013 38.952 77.8995 39.1189C77.0467 39.4693 76.1047 39.4693 75.2518 39.1189C74.8468 38.9524 74.4751 38.7031 74.1572 38.3847C73.8443 38.0696 73.5919 37.6908 73.4144 37.27C73.2298 36.8308 73.1364 36.3532 73.1408 35.8708C73.1368 35.3947 73.2302 34.9234 73.4144 34.4909ZM73.976 37.0663C74.113 37.4237 74.3148 37.7478 74.5695 38.0195C74.8258 38.2918 75.1288 38.5072 75.4615 38.6538C75.8157 38.8097 76.195 38.8881 76.5775 38.8844C76.9564 38.888 77.3322 38.8096 77.6828 38.6538C78.014 38.5064 78.3157 38.2911 78.5712 38.0195C78.8258 37.7477 79.0276 37.4236 79.1648 37.0663C79.3096 36.6874 79.3822 36.2808 79.378 35.8708C79.379 35.4749 79.3065 35.0827 79.1648 34.7177C79.027 34.3641 78.8252 34.0439 78.5712 33.7759C78.3145 33.508 78.013 33.2954 77.6828 33.1494C77.3322 32.9936 76.9564 32.9152 76.5775 32.9188C76.1951 32.9156 75.8159 32.994 75.4615 33.1494C75.1299 33.2946 74.827 33.5073 74.5695 33.7759C74.3154 34.0438 74.1136 34.364 73.976 34.7177C73.8342 35.0827 73.7617 35.4749 73.7627 35.8708C73.7586 36.2808 73.8311 36.6874 73.976 37.0663ZM76.7907 33.8374C77.1662 33.8042 77.5413 33.907 77.8569 34.1296C77.9764 34.2353 78.071 34.3703 78.1328 34.5233C78.1946 34.6764 78.2218 34.8431 78.2123 35.0098C78.224 35.1611 78.2027 35.3133 78.1503 35.4541C78.0978 35.595 78.0156 35.7206 77.9102 35.8209C77.6831 36.01 77.4076 36.1187 77.1212 36.1322L78.2621 37.9427H77.5975L76.5135 36.1822H75.856V37.9427H75.2341V33.8259H76.7765L76.7907 33.8374ZM76.517 35.6556C76.6557 35.6556 76.7871 35.6556 76.9151 35.6556C77.0297 35.6483 77.1426 35.621 77.2492 35.5749C77.3427 35.5303 77.4219 35.4567 77.4766 35.3634C77.5406 35.2477 77.5704 35.1136 77.5619 34.9791C77.567 34.8641 77.5398 34.7502 77.4837 34.6523C77.4337 34.5719 77.3651 34.507 77.2847 34.464C77.1961 34.4185 77.1013 34.3887 77.0039 34.3756C76.8991 34.3599 76.7934 34.3522 76.6876 34.3525H75.8667V35.6556H76.5135H76.517Z" fill="white"/>
</g>
<defs>
<clipPath id="clip0">
<rect width="80" height="45" fill="white"/>
</clipPath>
</defs>
</svg>
