<svg width="102" height="42" viewBox="0 0 102 42" fill="none" xmlns="http://www.w3.org/2000/svg">
<path d="M32.7857 20.5658C32.7857 31.9456 25.4545 41.1317 16.3929 41.1317C7.33125 41.1317 0 31.9456 0 20.5658C0 9.18607 7.33125 0 16.3929 0C25.4089 0 32.7857 9.18607 32.7857 20.5658Z" fill="#003087"/>
<path d="M16.3914 2.37644C8.65034 2.37644 2.32087 10.5571 2.32087 20.6115C2.32087 30.6659 8.65034 38.8465 16.3914 38.8465C24.1325 38.8465 30.4619 30.6659 30.4619 20.6115C30.4619 10.5571 24.1325 2.37644 16.3914 2.37644ZM16.3914 39.7149C8.14944 39.7149 1.41016 31.1229 1.41016 20.6115C1.41016 10.0543 8.14944 1.4624 16.3914 1.4624C24.6334 1.4624 31.3727 10.0543 31.3727 20.5658C31.3271 31.1229 24.6334 39.7149 16.3914 39.7149Z" fill="white"/>
<path d="M20.764 7.54093V7.63234C20.3997 7.76944 20.0354 7.86085 19.6256 7.99795C19.5345 7.99795 19.3979 8.04365 19.3979 8.13506V8.22646C19.9443 8.59207 20.4908 9.04909 21.0372 9.3233C21.0372 8.86629 20.9917 8.36357 20.9917 7.90655L21.0827 7.86085C22.3122 8.54637 23.4051 9.2319 24.6345 9.91743V10.0088C24.0426 10.2373 23.4051 10.4201 22.9042 10.7401C21.7202 10.1459 20.5818 9.32331 19.489 8.54637C18.6693 7.90655 17.7586 7.26672 16.939 6.53549C16.8934 6.44409 17.0301 6.35268 17.0301 6.30698C17.0301 5.71286 17.1211 5.16444 17.1667 4.57031L17.3943 4.66172L20.764 7.54093Z" fill="white"/>
<path d="M21.493 6.48959C22.5403 7.40363 23.3599 8.27197 24.3162 9.32311C22.5403 8.45477 20.8099 7.44933 19.3073 5.98687C18.8064 5.48415 18.2144 5.02713 17.668 4.52441H17.759L21.493 6.48959Z" fill="white"/>
<path d="M16.7133 7.03809C18.4892 8.45484 20.3561 9.9173 22.2686 11.0141C22.3597 11.1056 22.4052 11.2427 22.3142 11.3341C22.1776 11.4255 21.9954 11.2884 21.8588 11.2427C20.0374 10.1001 18.1704 8.86616 16.5311 7.4951C16.3945 7.4037 16.3945 7.22089 16.3945 7.12949C16.4856 7.03809 16.5767 7.03809 16.7133 7.03809Z" fill="white"/>
<path d="M17.8962 11.6538C17.3953 11.5167 16.8944 11.2882 16.6212 10.8769C16.5757 10.7855 16.5757 10.6484 16.7123 10.6484C17.2132 11.1511 17.9417 11.471 18.6703 11.3796C18.7614 11.471 18.898 11.471 18.8069 11.6081C18.7158 11.6995 18.5337 11.6538 18.4426 11.7452C18.7158 12.2936 19.3989 12.4764 19.9453 12.6592C19.9908 12.7506 19.8542 12.7506 19.8087 12.7963C18.9891 12.7049 18.215 12.4307 17.8962 11.6538ZM19.1712 11.5167C19.7176 11.7452 20.3096 12.0194 20.9016 11.8823C21.0837 11.8823 21.1748 11.928 21.1748 12.0651C21.1748 12.2022 21.0837 12.2936 20.9926 12.2936C20.2185 12.385 19.7176 11.928 19.1257 11.6081L19.1712 11.5167ZM25.956 20.8856C25.865 19.3317 24.3623 18.829 23.4971 17.915C23.2694 17.7321 23.0873 18.0064 22.8596 18.0064C22.4498 17.7778 23.0873 17.7778 23.0873 17.5036C22.723 17.0466 22.7685 16.4068 22.4042 15.9498C22.1766 15.8127 22.04 16.0412 21.8578 15.9498C21.7212 15.2185 21.4935 14.4873 21.1748 13.8475C20.4007 13.2991 20.3551 14.6244 19.6721 14.5787C19.6721 14.533 19.581 14.533 19.6266 14.4873C19.6266 14.3959 19.8087 14.3502 19.8542 14.2588C20.0364 14.1217 20.0364 13.8018 20.0364 13.5733C19.8998 13.3448 19.6721 13.3448 19.3989 13.3448C19.2623 13.3448 19.2167 13.2077 19.2623 13.0706C19.49 12.7506 19.8542 13.0249 20.173 13.0249C20.5373 12.7963 20.856 12.8877 21.2203 12.7506C21.4935 12.6592 21.5846 12.385 21.5391 12.1108C21.6301 12.0651 21.7667 12.2022 21.8578 12.0194C21.8578 11.8366 21.8123 11.6538 21.7212 11.5167C20.5828 10.8769 19.6721 9.78002 18.3516 9.41441C18.1239 9.323 17.6685 9.50581 17.7596 9.0945C17.623 8.72888 17.1221 8.68318 16.8033 8.59177C16.7123 8.50037 16.7578 8.36327 16.8944 8.31756C16.94 8.22616 16.94 8.18046 16.8489 8.08905C16.4391 7.99765 16.2569 7.44923 16.0292 7.12932C15.8016 6.94651 15.4828 6.8551 15.1641 6.90081C14.481 6.90081 14.4355 7.81484 14.0257 8.18046C13.9346 8.45467 13.5703 8.63748 13.5703 9.00309C13.7525 9.55151 14.4355 9.55151 14.9364 9.68862C15.1641 9.64292 15.4373 9.78002 15.5283 9.55151C15.5739 9.41441 15.4373 9.41441 15.3917 9.41441C15.2096 9.323 15.1641 9.1859 15.2096 9.00309C15.3007 8.86599 15.4828 8.82028 15.665 8.82028C15.9382 9.04879 16.1658 8.68318 16.4846 8.77458C16.7578 8.82028 16.8489 9.1402 16.94 9.36871C16.6212 9.2773 16.2569 9.1402 15.9382 9.2316C15.8471 9.41441 15.9382 9.59722 16.0292 9.73432C16.2569 9.68862 16.5301 9.64292 16.7578 9.64292C16.8944 9.64292 17.031 9.73432 17.0766 9.87143C17.7596 10.0085 18.5792 9.96283 19.0801 10.4198C19.0801 10.6484 19.3989 10.8312 19.1712 11.014C18.4882 10.3284 17.4864 10.237 16.5757 10.4198C16.3935 10.3284 16.6212 10.0999 16.4846 10.0085C15.8926 10.0999 15.3917 10.3284 14.8453 10.557L14.7087 10.5113C14.7542 10.4198 14.7087 10.3284 14.7542 10.2827C14.6176 10.1913 14.5266 10.0999 14.3444 10.0999C14.1167 10.5113 14.5266 10.9226 14.481 11.3796C14.6632 11.8366 14.8908 11.2425 15.1641 11.2882C15.3917 11.2882 15.7105 11.1054 15.8471 11.3796C15.5739 11.5167 15.3007 11.5624 15.0275 11.7452C14.9364 11.8366 15.073 11.928 15.1185 11.9737C15.3462 12.2936 15.8471 12.0651 16.1658 12.2479C16.1658 12.3393 16.1203 12.385 16.0748 12.4764C15.665 12.5221 15.4373 12.842 15.2551 13.162C15.0275 13.0706 15.1185 12.842 15.073 12.7049C15.0275 12.5221 14.8453 12.5221 14.7087 12.5221C14.6176 12.9792 14.4355 13.3448 14.39 13.8018C14.4355 14.076 14.7542 13.9846 14.9364 14.0303C15.2096 14.1217 15.0275 14.4416 15.1641 14.6244C15.3917 14.7158 15.7105 14.7158 15.9837 14.6244C16.0292 14.6701 16.0748 14.7158 16.0292 14.8529C15.9382 15.0357 15.756 15.0814 15.5739 15.0814C15.4828 15.1728 15.3462 15.2642 15.4373 15.4014C15.8926 15.6299 15.3917 16.3154 15.8471 16.5439C16.3025 16.7724 16.9855 16.681 17.3953 16.4525C17.6685 16.3611 17.8507 16.0869 18.215 16.1783C18.2605 16.2697 18.306 16.224 18.306 16.3154C18.9891 16.3611 19.6721 16.224 20.3096 16.1326C20.5373 16.1783 20.8105 15.9498 20.9471 16.1783C20.9471 16.224 20.9926 16.2697 20.9471 16.2697C20.0819 16.6353 19.0346 16.5896 18.0783 16.7267C17.4864 16.9095 17.7596 17.5493 17.7141 18.0064C17.3498 18.1892 17.4864 17.6407 17.2587 17.5036C16.348 17.5493 15.5739 17.8693 14.7542 18.0521C14.2078 18.3263 13.9801 18.9204 13.8435 19.4688C13.8435 19.7887 13.7069 20.2 14.0257 20.3372C14.7087 20.5657 15.756 20.7028 16.348 20.2C16.8489 20.0172 17.3042 19.5602 17.8507 19.7887C18.1239 19.3317 18.5792 18.829 19.1257 18.5548C19.3533 18.4634 19.3533 18.2349 19.581 18.1892C19.8087 18.2349 19.6721 18.5091 19.7632 18.6005C20.2641 18.6919 20.7194 18.4634 21.1748 18.5091C21.448 18.6005 21.4935 18.8747 21.5846 19.1489C21.5846 19.2403 21.5391 19.3774 21.4935 19.4688C21.6757 19.8344 21.2658 20.0172 21.4025 20.3829C20.8105 21.2969 19.9908 22.0738 18.8525 22.2566C18.6248 22.348 18.7614 22.7136 18.6248 22.8965C17.3953 23.7191 15.5283 24.0847 15.1641 25.7757C14.9364 26.644 15.7105 27.0096 16.2114 27.3752C16.8944 27.5123 17.2587 28.4264 18.0783 28.1979C18.4426 27.3295 18.4882 26.3241 18.8525 25.4558C19.8542 23.6734 21.0382 21.9824 22.6319 20.7028C23.1784 20.3372 23.6792 19.7887 24.4078 19.7887C24.4989 19.7887 24.4534 19.8801 24.4534 19.9258C23.7703 20.1543 23.2239 20.6114 22.7685 21.0227C22.4042 21.434 21.8578 21.8453 21.6301 22.4394C20.765 23.5363 19.8542 24.8159 19.3078 26.0956C19.2623 26.5069 19.2167 26.9639 19.2623 27.3752C19.3989 27.3752 19.4444 27.1924 19.5355 27.1467C20.0819 25.9128 20.7194 24.6788 21.4025 23.582C21.8123 23.0336 22.1766 22.3023 22.8141 21.9824L22.8596 22.0281C22.04 23.0793 21.4025 24.2218 20.8105 25.4558C20.4007 26.4155 19.8542 27.3295 19.8087 28.3807C19.8998 28.6549 20.3096 28.5635 20.4917 28.7463C20.6739 28.8377 20.7194 29.0662 20.6739 29.249C20.6284 29.3861 20.4917 29.5232 20.3551 29.5232C20.0819 29.4318 20.1275 29.1576 19.9453 28.9748C19.8542 28.9748 19.7176 28.8834 19.6721 28.9748C19.6266 29.3861 20.0364 29.7974 19.7176 30.163C19.3989 30.3916 19.49 29.8888 19.2623 29.7517C19.1712 29.6603 18.9435 29.6603 18.8525 29.7517C17.8507 30.7115 16.3935 31.2142 14.9819 31.397C14.5266 31.6255 13.5703 31.2599 13.5703 32.0368C13.6614 32.7224 13.5248 33.5907 14.1167 34.002C15.5283 34.1391 17.031 34.1391 18.3516 33.7735C19.3533 33.545 20.3551 33.2251 21.1748 32.7224C22.5864 31.6255 23.2694 29.8888 24.1801 28.3807C25.5007 26.3241 26.548 23.7191 25.956 20.8856Z" fill="white"/>
<path d="M23.4071 11.8824C23.4071 12.6594 23.3616 13.482 22.7241 13.939C22.3143 14.1218 21.8589 13.9847 21.5402 13.7105V13.5734C21.7679 13.6648 22.1777 13.7562 22.4054 13.5277C22.4054 13.4363 22.4054 13.2992 22.2688 13.2992C21.95 13.4363 21.6768 13.2078 21.358 13.2078C21.3125 13.1164 21.3125 13.1164 21.3125 12.9793C21.4946 12.8879 21.7223 12.8879 21.8134 12.6594C21.7223 12.2023 22.3598 12.2023 22.3143 11.791C22.4509 11.6082 22.6786 11.4254 22.9973 11.5625C23.1795 11.6082 23.3161 11.6996 23.4071 11.8824Z" fill="white"/>
<path d="M13.0694 17.0924C12.9327 17.1381 12.9327 16.9553 12.8417 16.8639C12.9327 16.7268 13.1604 16.8182 13.297 16.7725C13.3881 17.001 13.1604 17.0467 13.0694 17.0924ZM13.1604 17.7779C13.1149 17.8693 12.9783 17.9607 12.8417 17.915C12.7051 17.8236 12.5685 17.6865 12.3863 17.7322V17.5951C12.6595 17.7779 12.7961 17.4123 13.0694 17.5037C13.1604 17.458 13.2515 17.4123 13.297 17.458C13.297 17.5494 13.1604 17.6408 13.1604 17.7779ZM11.9765 15.5843L11.7488 15.6757C11.7033 15.5386 11.8399 15.5843 11.8854 15.4471C12.1586 15.4471 12.5685 15.3557 12.6595 15.7214C12.7051 15.9042 12.7506 16.087 12.5229 16.1784H11.6577C11.6122 15.8585 12.2042 15.8585 11.9765 15.5843ZM11.1113 15.1729C11.0202 15.4014 11.0658 15.6757 10.8836 15.7671C10.747 15.6757 10.5194 15.5386 10.5194 15.8128L10.4738 16.544C10.3827 16.5897 10.2461 16.5897 10.2461 16.4526C10.1551 15.9499 10.2917 15.4014 10.5649 15.0815C10.7015 15.2186 10.9292 15.1729 10.9292 14.9901C11.0202 14.8073 11.1569 14.4417 11.4756 14.396C11.5211 14.5788 11.7488 14.6245 11.8399 14.4874L11.931 14.5331C11.931 14.7616 11.7944 14.8987 11.6122 14.9901C11.3845 15.0358 11.2024 14.853 11.1113 15.1729ZM12.7506 14.396C12.9783 14.1218 12.9327 13.7105 13.1149 13.3906C13.2515 13.3449 13.3426 13.4363 13.3426 13.5277L13.297 13.9847C12.8417 13.8933 13.0694 14.853 12.4774 14.6245L12.3408 14.4417C12.4774 14.3046 12.614 14.4874 12.7506 14.396ZM9.28989 15.5843C9.06221 15.5386 9.19882 15.1729 9.06221 15.0358C8.69792 15.2643 8.97114 15.8128 8.60685 16.0413C8.51578 16.0413 8.47024 15.9956 8.42471 15.9042C8.74346 15.5386 8.51578 14.853 8.88007 14.4417C9.15328 14.3503 9.15328 14.853 9.42649 14.6245C9.47203 14.853 9.47203 15.31 9.28989 15.5843ZM13.7069 15.9499C13.5247 15.8585 13.3426 16.0413 13.2515 15.9499C13.297 15.6757 13.4336 15.4014 13.7069 15.2643C13.8435 14.9901 13.7524 14.5331 13.5247 14.3046C13.5702 14.2132 13.6613 14.2132 13.7524 14.2132C13.889 13.7562 13.9345 13.1164 13.5247 12.7964C13.297 12.705 13.1149 12.5679 12.8872 12.6136C12.8872 12.6136 12.8417 12.6136 12.8417 12.5679C12.6595 12.5222 12.3863 12.4765 12.2042 12.5679C11.8399 12.2937 11.3845 12.3394 11.0202 12.2023C10.3372 12.0195 9.74524 12.4308 9.28989 12.7507C8.01489 13.2992 8.51578 14.853 7.83275 15.7671C7.74167 16.3612 7.74167 17.0924 8.19703 17.5037C8.56132 17.458 8.88007 17.8236 9.24435 17.7322C9.83632 17.458 8.97114 17.0924 9.19882 16.6811C9.5631 16.6354 9.42649 17.0924 9.69971 17.1838C9.92739 17.2752 10.0185 16.9553 10.2461 16.9553C10.5649 17.1381 10.3827 17.5494 10.6104 17.7779C11.0658 18.4635 11.8854 18.692 12.7051 18.7834C13.297 18.7377 13.5702 18.3264 13.8435 17.8236C13.9801 17.2752 14.2077 16.4526 13.7069 15.9499Z" fill="white"/>
<path d="M11.0642 19.1032C11.3374 19.3317 12.066 19.0118 12.0205 19.6516C12.4303 19.9258 12.8401 20.2 13.2955 20.4285L14.5705 21.4797H14.7526C14.8437 21.3426 14.4794 21.114 14.7526 21.0683C15.7544 21.2512 16.5285 20.5656 17.3937 20.2457C17.6214 20.1543 17.8035 20.3371 17.8946 20.5199C18.1678 21.2055 18.2589 21.9367 18.2589 22.6679C17.9401 22.8507 17.7124 23.0335 17.3026 23.1249C16.9383 22.8964 16.5741 23.2163 16.2553 23.3534C15.2991 23.9476 14.1151 24.6331 12.8857 24.039C11.8383 24.7245 11.0187 23.4448 10.0169 23.3534C9.8803 23.4448 9.83477 23.6734 9.8803 23.8562C10.0624 23.9476 10.3357 23.9476 10.5633 24.039C11.1098 24.3589 11.5196 25.0444 12.3392 24.953C12.3392 24.9987 12.3848 24.9987 12.4303 24.9987V25.0901C12.066 25.3186 11.6107 25.6385 11.4741 26.0498C11.5651 26.187 11.7017 26.1412 11.8383 26.0955C12.4758 25.7756 12.9767 25.1815 13.7053 25.1358C14.0241 25.4557 13.3866 25.7299 13.5687 26.0955C13.933 26.4612 14.1607 26.9639 13.9785 27.4666C13.7508 27.7865 13.2955 27.8779 13.1589 28.2892C13.1133 28.4263 13.2044 28.6091 13.3866 28.6549C13.9785 28.6549 14.0696 27.5123 14.8437 27.9236C15.4812 28.1978 16.2553 28.1064 16.7107 28.6549C16.9383 29.0205 17.1205 29.4775 17.3026 29.8431C17.2116 30.1173 16.7562 30.2087 16.5285 30.3001C15.2991 30.8485 13.8874 30.9399 12.7035 31.397C11.5651 31.4884 10.6089 30.62 9.51602 31.2142C8.83298 31.3056 8.14995 31.0313 7.64905 30.7114C7.10262 30.3458 7.37584 29.4775 6.78387 29.1119C5.87316 26.7811 6.87495 24.4046 7.3303 22.2109C7.87673 21.2512 7.60352 19.8801 8.65084 19.286C9.1062 19.0575 9.47048 18.6918 9.69816 18.3262C10.1991 18.2805 10.2901 18.8747 10.7455 18.9661L11.0642 19.1032Z" fill="white"/>
<path d="M20.9937 19.1032C20.9027 19.286 21.0393 19.3317 21.0848 19.4688C21.0393 19.7887 21.0393 20.1544 20.9027 20.4286C20.4473 20.977 19.7643 21.5254 18.9446 21.5711C18.4893 21.4797 18.3527 20.977 18.125 20.6571C18.2161 20.063 18.4438 19.3774 19.0813 19.1946C19.2634 19.0575 19.4 19.286 19.6277 19.1946C20.083 19.1946 20.4473 18.9204 20.9027 19.0118L20.9937 19.1032Z" fill="white"/>
<path d="M12.6137 32.4941C12.9325 32.8597 12.9325 33.4539 12.7959 33.9109C12.0673 34.1851 11.2477 34.4136 10.4735 34.4593C10.1093 34.4593 9.74498 34.4593 9.5173 34.2308C9.42623 33.8652 8.97087 33.9566 8.97087 33.5453C8.92534 33.3625 8.60658 33.4082 8.60658 33.2253C8.69766 32.9511 8.42444 32.814 8.37891 32.5855C8.42444 32.0371 9.15301 32.0828 9.5173 31.9C9.97266 31.2602 10.7923 31.6715 11.3843 31.8086C11.7941 32.0371 12.2494 32.2199 12.6137 32.4941Z" fill="white"/>
<path d="M23.6791 34.6874C23.4059 34.9159 23.1327 35.2358 22.8595 35.3729C22.3131 34.8245 21.7211 34.2304 21.4023 33.5906C21.4023 33.4992 21.4023 33.3621 21.539 33.3621C22.5407 33.225 23.1327 34.0019 23.6791 34.6874Z" fill="white"/>
<path d="M19.6732 35.0535C19.9009 35.6019 19.992 36.196 20.2196 36.7445C19.992 36.973 19.5366 37.0187 19.1723 37.2015C16.167 38.1155 12.4786 37.5671 10.1562 35.739C10.2473 35.5105 10.3839 35.2363 10.6571 35.1449C11.067 35.0992 11.4768 35.3734 11.8866 35.3734C11.8866 35.3734 12.433 35.4648 12.6607 35.3734C13.025 35.3734 13.2527 35.0992 13.5714 35.0078C14.0723 34.9164 14.6188 34.9164 15.1196 34.9164C15.9393 35.282 17.6241 35.0992 17.8062 35.0078C17.9884 34.9621 18.7625 34.5051 19.3089 34.3223C19.6732 34.3223 19.5366 34.825 19.6732 35.0535Z" fill="white"/>
<path d="M21.5366 34.5963C21.9009 34.9619 22.2652 35.1447 22.4473 35.6474C22.3563 35.7845 22.2196 35.8759 22.0375 35.9673C21.7643 35.8302 21.6277 35.3732 21.3089 35.4189C21.2179 35.7388 21.5821 35.9216 21.5366 36.2416C21.2634 36.4244 20.9446 36.5615 20.6714 36.5615C20.3527 36.0587 20.2161 35.5103 20.125 34.9619C20.2161 34.2764 20.9902 34.8248 21.3545 34.5049L21.5366 34.5963Z" fill="white"/>
<path d="M41.9368 10.9225C42.9386 10.9225 43.485 10.2827 43.485 9.36864C43.485 8.5003 42.8931 7.81477 41.9368 7.81477H39.8422V10.9225H41.9368ZM41.7547 6.26091C42.5743 6.26091 43.0752 5.66679 43.0752 4.88986C43.0752 4.11293 42.6199 3.5645 41.7091 3.5645H39.8422V6.26091H41.7547ZM37.9297 1.87354H41.7547C43.6672 1.87354 45.0333 2.87898 45.0333 4.61565C45.0333 5.62109 44.5324 6.48942 43.7583 6.90074V6.94644C44.9422 7.31205 45.4886 8.3632 45.4886 9.46004C45.4886 11.608 43.7583 12.5678 41.8002 12.5678H37.9297V1.87354Z" fill="white"/>
<path d="M50.5903 11.1515C51.8198 11.1515 52.8671 10.1917 52.8671 8.77498C52.8671 7.35823 51.8198 6.35279 50.5903 6.35279C49.3608 6.35279 48.3135 7.31253 48.3135 8.77498C48.3135 10.1917 49.3153 11.1515 50.5903 11.1515ZM50.5448 4.70752C52.9126 4.70752 54.7796 6.39849 54.7796 8.72928C54.7796 11.1058 52.9126 12.751 50.5903 12.751C48.268 12.751 46.3555 11.1058 46.3555 8.72928C46.3555 6.39849 48.2224 4.70752 50.5448 4.70752Z" fill="white"/>
<path d="M56.2363 10.2829C56.2363 10.2829 57.0559 11.1056 58.3309 11.1056C58.8773 11.1056 59.3327 10.8771 59.3327 10.4201C59.3327 9.27751 55.5988 9.41461 55.5988 6.94671C55.5988 5.52996 56.8738 4.66162 58.5131 4.66162C60.2434 4.66162 61.0631 5.52996 61.0631 5.52996L60.3345 6.94671C60.3345 6.94671 59.6059 6.26119 58.4675 6.26119C57.9666 6.26119 57.5113 6.48969 57.5113 6.94671C57.5113 8.04356 61.2452 7.90645 61.2452 10.3744C61.2452 11.654 60.1523 12.7051 58.3309 12.7051C56.4184 12.7051 55.3711 11.5626 55.3711 11.5626L56.2363 10.2829Z" fill="white"/>
<path d="M62.9744 6.53515H61.9727V5.02699H63.02V2.7876H64.8869V5.02699H66.6173V6.53515H64.8869V9.50577C64.8869 10.7854 65.8887 10.9682 66.3896 10.9682C66.6173 10.9682 66.7539 10.9225 66.7539 10.9225V12.6135C66.7539 12.6135 66.5262 12.6592 66.1619 12.6592C65.1146 12.6592 62.9744 12.3393 62.9744 9.77998V6.53515Z" fill="white"/>
<path d="M71.6723 11.1515C72.9018 11.1515 73.9491 10.1917 73.9491 8.77498C73.9491 7.35823 72.9018 6.35279 71.6723 6.35279C70.4429 6.35279 69.3955 7.31253 69.3955 8.77498C69.3955 10.1917 70.3973 11.1515 71.6723 11.1515ZM71.6268 4.70752C73.9946 4.70752 75.8616 6.39849 75.8616 8.72928C75.8616 11.1058 73.9946 12.751 71.6723 12.751C69.3045 12.751 67.4375 11.1058 67.4375 8.72928C67.4375 6.39849 69.3045 4.70752 71.6268 4.70752Z" fill="white"/>
<path d="M77.0026 4.89033H78.824V5.75866C78.824 6.03287 78.7785 6.30708 78.7785 6.30708H78.824C79.1427 5.66726 80.0079 4.70752 81.5561 4.70752C83.241 4.70752 84.1972 5.57586 84.1972 7.63244V12.5682H82.2847V7.99805C82.2847 7.08402 82.057 6.44419 81.0552 6.44419C80.0535 6.44419 79.2794 7.08402 79.0061 7.99805C78.9151 8.31797 78.8695 8.68358 78.8695 9.00349V12.5225H76.957V4.89033H77.0026Z" fill="white"/>
<path d="M42.4845 14.8989C45.08 14.8989 46.4461 16.3614 46.4461 16.3614L45.5354 17.8238C45.5354 17.8238 44.3059 16.6813 42.6211 16.6813C40.3443 16.6813 39.0237 18.3723 39.0237 20.3831C39.0237 22.4397 40.3898 24.2221 42.6211 24.2221C44.488 24.2221 45.7175 22.8511 45.7175 22.8511L46.7193 24.2678C46.7193 24.2678 45.2621 26.0045 42.53 26.0045C39.2514 26.0045 37.0202 23.5823 37.0202 20.4289C36.9746 17.2754 39.3425 14.8989 42.4845 14.8989Z" fill="white"/>
<path d="M48.0403 15.0815H49.9528V18.7834C49.9528 19.149 49.9073 19.4232 49.9073 19.4232H49.9528C50.3171 18.692 51.2733 17.9151 52.5939 17.9151C54.2787 17.9151 55.2349 18.7834 55.2349 20.84V25.7758H53.3224V21.2056C53.3224 20.2916 53.0948 19.6517 52.093 19.6517C51.0912 19.6517 50.3171 20.3373 49.9983 21.2513C49.9073 21.5712 49.8617 21.8911 49.8617 22.2567V25.7758H47.9492V15.0815H48.0403Z" fill="white"/>
<path d="M59.0141 18.0977H57.1016V25.7756H59.0141V18.0977Z" fill="white"/>
<path d="M68.075 24.359C69.0768 24.359 69.9875 23.6278 69.9875 21.9368C69.9875 20.7486 69.35 19.5603 68.075 19.5603C67.0277 19.5603 66.1625 20.4287 66.1625 21.9368C66.1625 23.3993 66.9366 24.359 68.075 24.359ZM67.7107 17.9151C69.3955 17.9151 69.942 18.8748 69.942 18.8748H69.9875C69.9875 18.8748 69.9875 18.692 69.9875 18.4178V15.0815H71.9V25.7758H70.0786V25.136C70.0786 24.8617 70.1241 24.6332 70.1241 24.6332H70.0786C70.0786 24.6332 69.4411 25.9586 67.6652 25.9586C65.5705 25.9586 64.25 24.3133 64.25 21.9368C64.25 19.4689 65.6616 17.9151 67.7107 17.9151Z" fill="white"/>
<path d="M73.6315 18.0977H75.4529V19.4231C75.4529 19.6973 75.4074 19.9715 75.4074 19.9715H75.4529C75.8172 18.8747 76.7279 18.0063 77.8663 18.0063C78.0484 18.0063 78.2306 18.052 78.2306 18.052V19.9258C78.2306 19.9258 78.0484 19.8801 77.7752 19.8801C76.9556 19.8801 76.0449 20.3371 75.6806 21.4797C75.544 21.8453 75.4984 22.2566 75.4984 22.7136V25.7757H73.5859V18.0977H73.6315Z" fill="white"/>
<path d="M84.0593 20.9771C84.0138 19.9259 83.3763 19.3775 82.5566 19.3775C81.6004 19.3775 80.9173 19.9716 80.7352 20.9771H84.0593ZM82.6021 17.915C84.8334 17.915 86.0173 19.5146 86.0173 21.5712C86.0173 21.7997 85.9718 22.3024 85.9718 22.3024H80.6896C80.8263 23.6278 81.828 24.359 83.012 24.359C84.2414 24.359 85.2432 23.5364 85.2432 23.5364L85.9718 24.9074C85.9718 24.9074 84.7879 26.0043 82.8754 26.0043C80.3254 26.0043 78.7771 24.1762 78.7771 21.9825C78.6861 19.5603 80.2798 17.915 82.6021 17.915Z" fill="white"/>
<path d="M87.4297 18.0978H89.2511V18.9662C89.2511 19.2404 89.2056 19.5146 89.2056 19.5146H89.2511C89.5699 18.8748 90.435 17.915 91.9833 17.915C93.6681 17.915 94.6243 18.7834 94.6243 20.84V25.7758H92.7118V21.2056C92.7118 20.2915 92.4841 19.6517 91.4824 19.6517C90.4806 19.6517 89.7065 20.2915 89.4333 21.2056C89.3422 21.5255 89.2967 21.8911 89.2967 22.211V25.7301H87.4297V18.0978Z" fill="white"/>
<path d="M96.9902 23.4905C96.9902 23.4905 97.8098 24.3131 99.0848 24.3131C99.6313 24.3131 100.087 24.0846 100.087 23.6276C100.087 22.485 96.3527 22.6221 96.3527 20.1542C96.3527 18.7375 97.6277 17.8691 99.267 17.8691C100.997 17.8691 101.817 18.7375 101.817 18.7375L101.088 20.1542C101.088 20.1542 100.36 19.4687 99.2214 19.4687C98.7205 19.4687 98.2652 19.6972 98.2652 20.1542C98.2652 21.2511 101.999 21.114 101.999 23.5819C101.999 24.8615 100.906 25.9127 99.0848 25.9127C97.1723 25.9127 96.125 24.7701 96.125 24.7701L96.9902 23.4905Z" fill="white"/>
<path d="M37.9297 28.2437H39.8422V32.8138H44.76V28.2437H46.6725V38.9836H44.76V34.4591H39.8422V38.9836H37.9297V28.2437Z" fill="white"/>
<path d="M52.2752 37.5211C53.5047 37.5211 54.552 36.5614 54.552 35.0989C54.552 33.6822 53.5047 32.7224 52.2752 32.7224C51.0458 32.7224 49.9984 33.6822 49.9984 35.0989C49.9984 36.5614 51.0458 37.5211 52.2752 37.5211ZM52.2752 31.0771C54.6431 31.0771 56.5101 32.7681 56.5101 35.0989C56.5101 37.4754 54.6431 39.1207 52.3208 39.1207C49.9529 39.1207 48.0859 37.4754 48.0859 35.0989C48.0859 32.7681 49.9529 31.0771 52.2752 31.0771Z" fill="white"/>
<path d="M57.9667 36.6528C57.9667 36.6528 58.7864 37.5211 60.0614 37.5211C60.6078 37.5211 61.0632 37.2926 61.0632 36.8356C61.0632 35.693 57.3292 35.8301 57.3292 33.3622C57.3292 31.9455 58.6042 31.0771 60.2435 31.0771C61.9739 31.0771 62.7935 31.9455 62.7935 31.9455L62.0649 33.3622C62.0649 33.3622 61.3364 32.6767 60.198 32.6767C59.6971 32.6767 59.2417 32.9052 59.2417 33.3622C59.2417 34.4591 62.9757 34.322 62.9757 36.7899C62.9757 38.0695 61.8828 39.1207 60.0614 39.1207C58.1489 39.1207 57.1016 37.9781 57.1016 37.9781L57.9667 36.6528Z" fill="white"/>
<path d="M67.9865 37.5211C69.0338 37.5211 69.899 36.6528 69.899 35.1446C69.899 33.6822 69.1249 32.7224 67.9865 32.7224C66.9847 32.7224 66.074 33.4536 66.074 35.1446C66.074 36.3786 66.7115 37.5211 67.9865 37.5211ZM64.207 31.26H65.9374V31.8084C65.9374 32.0826 65.8919 32.3568 65.8919 32.3568H65.9374C65.9374 32.3568 66.6204 31.0771 68.3963 31.0771C70.491 31.0771 71.8115 32.7224 71.8115 35.0989C71.8115 37.5211 70.3088 39.1207 68.3052 39.1207C66.8026 39.1207 66.1195 38.0695 66.1195 38.0695H66.074C66.074 38.0695 66.1195 38.3437 66.1195 38.7551V41.9999H64.207V31.26Z" fill="white"/>
<path d="M74.9984 31.2603H73.0859V38.9382H74.9984V31.2603Z" fill="white"/>
<path d="M77.2752 32.9053H76.2734V31.3971H77.3208V29.1577H79.1877V31.3971H80.9181V32.9053H79.1877V35.8759C79.1877 37.1555 80.1895 37.3383 80.6904 37.3383C80.9181 37.3383 81.0547 37.2926 81.0547 37.2926V38.9836C81.0547 38.9836 80.827 39.0293 80.4627 39.0293C79.4154 39.0293 77.2752 38.7094 77.2752 36.1501V32.9053Z" fill="white"/>
<path d="M85.0592 37.6582C86.0609 37.6582 86.7895 36.5614 86.7895 35.6473V35.4645H86.4708C85.5145 35.4645 83.9208 35.6016 83.9208 36.6528C83.9208 37.1555 84.2851 37.6582 85.0592 37.6582ZM86.5163 34.1392H86.7895V34.0478C86.7895 33.0423 86.152 32.6767 85.3324 32.6767C84.2395 32.6767 83.2377 33.4079 83.2377 33.4079L82.5092 32.0369C82.5092 32.0369 83.6931 31.0771 85.5145 31.0771C87.5181 31.0771 88.702 32.174 88.702 34.1392V38.9379H86.9261V38.298C86.9261 37.9781 86.9717 37.7496 86.9717 37.7496H86.9261C86.9261 37.7496 86.3342 39.1207 84.6038 39.1207C83.2377 39.1207 82.0083 38.2523 82.0083 36.7442C81.9627 34.322 85.2868 34.1392 86.5163 34.1392Z" fill="white"/>
<path d="M62.932 15.0815H61.0195V25.7758H62.932V15.0815Z" fill="white"/>
<path d="M92.2094 28.2437H90.2969V38.9379H92.2094V28.2437Z" fill="white"/>
<path d="M97.0817 16.0416C97.0817 15.4931 96.6263 15.0361 96.0799 15.0361C95.5335 15.0361 95.0781 15.4931 95.0781 16.0416C95.0781 16.5443 95.4424 16.9556 95.9433 17.0013C95.7612 17.1384 95.5335 17.2755 95.2147 17.3669L95.3969 18.0068C96.9906 17.5497 97.1272 16.5443 97.0817 16.0416Z" fill="white"/>
<path d="M75.0894 29.2489C75.0894 29.843 74.5885 30.3457 73.9965 30.3457C73.4046 30.3457 72.9492 29.843 72.9492 29.2489C72.9492 28.6547 73.4501 28.1977 73.9965 28.1977C74.634 28.152 75.0894 28.6547 75.0894 29.2489Z" fill="white"/>
<path d="M59.1519 16.0412C59.1519 16.6353 58.651 17.0923 58.059 17.0923C57.4671 17.0923 57.0117 16.5896 57.0117 16.0412C57.0117 15.4471 57.5126 14.9443 58.059 14.9443C58.651 14.99 59.1519 15.4471 59.1519 16.0412Z" fill="white"/>
</svg>
