<?xml version="1.0" encoding="UTF-8"?><svg id="Layer_2" xmlns="http://www.w3.org/2000/svg" xmlns:xlink="http://www.w3.org/1999/xlink" viewBox="0 0 180.46 117.22"><defs><style>.cls-1{fill:#6ebcbc;}.cls-2{fill:url(#linear-gradient-2);}.cls-3,.cls-4,.cls-5{fill:#fff;}.cls-6{fill:#013939;}.cls-7{fill:#003939;}.cls-8{fill:#ffc549;}.cls-4,.cls-5{stroke:#023939;stroke-miterlimit:10;stroke-width:.75px;}.cls-9{fill:url(#linear-gradient);}.cls-5{stroke-linecap:round;}</style><linearGradient id="linear-gradient" x1="0" y1="45.57" x2="249.6" y2="45.57" gradientTransform="matrix(1, 0, 0, 1, 0, 0)" gradientUnits="userSpaceOnUse"><stop offset="0" stop-color="#fff" stop-opacity=".54"/><stop offset=".59" stop-color="#a0d3d3" stop-opacity=".84"/><stop offset="1" stop-color="#6ebcbc"/></linearGradient><linearGradient id="linear-gradient-2" x1="140.12" y1="57.3" x2="140.39" y2="34.63" gradientTransform="matrix(1, 0, 0, 1, 0, 0)" gradientUnits="userSpaceOnUse"><stop offset="0" stop-color="#fff" stop-opacity=".41"/><stop offset=".89" stop-color="#ffc549" stop-opacity=".96"/></linearGradient></defs><g id="Layer_1-2"><g><path class="cls-3" d="M154.98,116.85l25.11-12.04-2.3-3.26-1.45-3.52c-1.56-4.4-1.28-9.18-1.06-13.84l.22-9.66c-.05-.63-.19-1.26-.39-1.86l-1.37-6.41-2.68-5.93-4.01-10.92-1.93-1.86c-1.28-.82-2.69-.16-3.7,.98l-1.04,2.02-3.76,16.98-32.09,19.32,8.09,8.43,3.09,5.68,3.19,3.63c1.41,1.61,3.1,2.94,5,3.93l5.39,2.83,5.71,5.51Z"/><g><path class="cls-4" d="M113.23,41.84h10.97c2.18,0,3.94,1.77,3.94,3.94v2.05c0,2.18-1.77,3.94-3.94,3.94h-10.67c-2.82,0-5.12-2.29-5.12-5.12h0c0-2.66,2.16-4.82,4.82-4.82Z" transform="translate(43.33 -55.97) rotate(32.31)"/><path class="cls-5" d="M132.6,95.28s4.12,11.84,16.61,15.79l5.76,5.78"/></g></g><path class="cls-7" d="M24.9,4.29H5.36V31.71h27.36V4.29h-7.82Zm3.91,7.83v15.67H9.27V8.2H28.81v3.92h0Z"/><path class="cls-7" d="M83.52,4.29h-23.45V31.71h27.36V4.29h-3.91Zm0,7.83v15.67h-19.55V8.2h19.55v3.92h0Z"/><polygon class="cls-7" points="17.08 12.12 13.17 12.12 13.17 16.04 13.17 19.96 13.17 23.88 17.08 23.88 20.99 23.88 24.9 23.88 24.9 19.96 24.9 16.04 24.9 12.12 20.99 12.12 17.08 12.12 17.08 12.12 17.08 12.12"/><polygon class="cls-7" points="48.34 16.04 52.25 16.04 52.25 12.12 52.25 8.2 56.16 8.2 56.16 4.29 52.25 4.29 48.34 4.29 44.44 4.29 44.44 8.2 44.44 12.12 48.34 12.12 48.34 16.04 48.34 16.04 48.34 16.04"/><polygon class="cls-7" points="71.8 12.12 67.88 12.12 67.88 16.04 67.88 19.96 67.88 23.88 71.8 23.88 75.7 23.88 79.61 23.88 79.61 19.96 79.61 16.04 79.61 12.12 75.7 12.12 71.8 12.12 71.8 12.12 71.8 12.12"/><polygon class="cls-7" points="44.44 19.96 44.44 16.04 44.44 12.12 40.53 12.12 36.63 12.12 36.63 16.04 36.63 19.96 36.63 23.88 40.53 23.88 40.53 19.96 44.44 19.96 44.44 19.96 44.44 19.96"/><polygon class="cls-7" points="52.25 16.04 56.15 16.04 56.15 19.96 52.25 19.96 52.25 16.04 52.25 16.04"/><polygon class="cls-7" points="36.63 27.79 40.53 27.79 40.53 31.71 36.63 31.71 36.63 27.79 36.63 27.79"/><polygon class="cls-7" points="28.81 35.63 32.71 35.63 32.71 39.55 28.81 39.55 28.81 35.63 28.81 35.63"/><polygon class="cls-7" points="79.61 35.63 75.7 35.63 71.8 35.63 67.88 35.63 67.88 39.55 71.8 39.55 71.8 43.46 71.8 47.38 71.8 51.3 71.8 55.22 71.8 59.13 75.7 59.13 75.7 55.22 79.61 55.22 79.61 59.13 83.51 59.13 87.43 59.13 87.43 55.22 83.51 55.22 83.51 51.3 79.61 51.3 75.7 51.3 75.7 47.38 75.7 43.46 79.61 43.46 79.61 47.38 83.51 47.38 83.51 43.46 83.51 39.55 79.61 39.55 79.61 35.63 79.61 35.63 79.61 35.63"/><polygon class="cls-7" points="83.51 35.63 87.42 35.63 87.42 39.55 83.51 39.55 83.51 35.63 83.51 35.63"/><polygon class="cls-7" points="17.08 43.46 20.99 43.46 20.99 39.55 20.99 35.63 17.08 35.63 13.17 35.63 9.27 35.63 5.36 35.63 5.36 39.55 9.27 39.55 9.27 43.46 13.17 43.46 17.08 43.46 17.08 43.46 17.08 43.46"/><polygon class="cls-7" points="60.07 39.55 60.07 35.63 56.16 35.63 56.16 31.72 56.16 27.79 56.16 23.88 52.25 23.88 52.25 19.96 48.34 19.96 48.34 23.88 44.44 23.88 40.53 23.88 40.53 27.79 44.44 27.79 44.44 31.72 48.34 31.72 48.34 27.79 52.25 27.79 52.25 31.72 48.34 31.72 48.34 35.63 44.44 35.63 40.53 35.63 36.63 35.63 36.63 39.55 40.53 39.55 40.53 43.46 44.44 43.46 44.44 39.55 48.34 39.55 48.34 43.46 48.34 47.38 44.44 47.38 40.53 47.38 40.53 51.3 40.53 55.22 44.44 55.22 44.44 59.13 48.34 59.13 48.34 63.05 52.25 63.05 56.16 63.05 56.16 59.13 52.25 59.13 52.25 55.22 48.34 55.22 48.34 51.3 52.25 51.3 52.25 47.38 52.25 43.46 56.16 43.46 60.07 43.46 63.97 43.46 67.88 43.46 67.88 39.55 63.97 39.55 60.07 39.55 60.07 39.55 60.07 39.55"/><polygon class="cls-7" points="5.36 43.46 9.27 43.46 9.27 47.38 5.36 47.38 5.36 43.46 5.36 43.46"/><polygon class="cls-7" points="28.81 43.46 32.71 43.46 32.71 47.38 28.81 47.38 28.81 43.46 28.81 43.46"/><polygon class="cls-7" points="36.63 43.46 36.63 39.55 32.71 39.55 32.71 43.46 32.71 47.38 36.63 47.38 40.53 47.38 40.53 43.46 36.63 43.46 36.63 43.46 36.63 43.46"/><polygon class="cls-7" points="20.99 47.38 17.08 47.38 17.08 51.3 13.17 51.3 13.17 47.38 9.27 47.38 9.27 51.3 9.27 55.22 13.17 55.22 17.08 55.22 20.99 55.22 20.99 51.3 24.9 51.3 24.9 55.22 28.81 55.22 32.71 55.22 32.71 51.3 28.81 51.3 28.81 47.38 24.9 47.38 20.99 47.38 20.99 47.38 20.99 47.38"/><polygon class="cls-7" points="83.51 47.38 87.42 47.38 87.42 51.29 83.51 51.29 83.51 47.38 83.51 47.38"/><polygon class="cls-7" points="52.25 51.3 56.15 51.3 56.15 55.22 52.25 55.22 52.25 51.3 52.25 51.3"/><polygon class="cls-7" points="67.88 55.22 67.88 51.3 67.88 47.38 63.97 47.38 60.07 47.38 60.07 51.3 63.97 51.3 63.97 55.22 67.88 55.22 67.88 55.22 67.88 55.22"/><polygon class="cls-7" points="36.63 55.22 40.53 55.22 40.53 59.13 36.63 59.13 36.63 55.22 36.63 55.22"/><polygon class="cls-7" points="60.07 55.22 63.97 55.22 63.97 59.13 60.07 59.13 60.07 55.22 60.07 55.22"/><path class="cls-7" d="M24.9,59.13H5.36v19.59h0v7.83h27.36v-7.83h0v-19.59h-7.82Zm3.91,7.83v11.76h0v3.95H9.27v-3.92h0v-15.7H28.81v3.92h0Z"/><polygon class="cls-7" points="40.53 59.13 44.44 59.13 44.44 63.05 40.53 63.05 40.53 59.13 40.53 59.13"/><polygon class="cls-7" points="75.7 63.05 71.8 63.05 67.88 63.05 63.97 63.05 63.97 66.97 67.88 66.97 67.88 70.89 71.8 70.89 71.8 66.97 75.7 66.97 75.7 63.05 75.7 63.05 75.7 63.05"/><polygon class="cls-7" points="17.08 66.97 13.17 66.97 13.17 70.89 13.17 74.81 13.17 78.72 17.08 78.72 20.99 78.72 24.9 78.72 24.9 74.81 24.9 70.89 24.9 66.97 20.99 66.97 17.08 66.97 17.08 66.97 17.08 66.97"/><polygon class="cls-7" points="63.97 66.97 60.07 66.97 56.16 66.97 52.25 66.97 52.25 70.89 56.16 70.89 60.07 70.89 60.07 74.81 60.07 78.72 56.16 78.72 56.16 74.81 52.25 74.81 52.25 78.72 56.16 78.72 56.16 82.64 56.16 86.56 60.07 86.56 60.07 82.64 60.07 78.72 63.97 78.72 63.97 74.81 67.88 74.81 67.88 70.89 63.97 70.89 63.97 66.97 63.97 66.97 63.97 66.97"/><polygon class="cls-7" points="48.34 70.89 52.25 70.89 52.25 74.81 48.34 74.81 48.34 70.89 48.34 70.89"/><polygon class="cls-7" points="44.44 78.72 40.53 78.72 40.53 74.81 44.44 74.81 44.44 70.89 44.44 66.97 40.53 66.97 40.53 70.89 36.63 70.89 36.63 74.81 36.63 78.72 36.63 78.72 36.63 82.64 36.63 86.56 40.53 86.56 40.53 82.64 44.44 82.64 44.44 78.72 48.34 78.72 48.34 74.81 44.44 74.81 44.44 78.72 44.44 78.72 44.44 78.72"/><polygon class="cls-7" points="75.7 74.81 79.61 74.81 79.61 78.72 75.7 78.72 75.7 74.81 75.7 74.81"/><polygon class="cls-7" points="67.88 78.72 67.88 82.64 71.8 82.64 71.8 78.72 71.8 78.72 71.8 74.81 67.88 74.81 67.88 78.72 67.88 78.72 67.88 78.72 67.88 78.72"/><polygon class="cls-7" points="44.44 82.64 48.34 82.64 48.34 86.55 44.44 86.55 44.44 82.64 44.44 82.64"/><polygon class="cls-7" points="63.97 82.64 67.88 82.64 67.88 86.55 63.97 86.55 63.97 82.64 63.97 82.64"/><polygon class="cls-7" points="79.61 82.64 83.51 82.64 83.51 86.55 79.61 86.55 79.61 82.64 79.61 82.64"/><polygon class="cls-9" points="127.49 24.5 85.46 90.84 1.63 91.14 0 .3 85.46 0 127.49 19.96 127.49 24.5"/><g><rect class="cls-1" x="117.19" y="10.82" width="46" height="84.73" rx="4.28" ry="4.28"/><rect class="cls-3" x="121.79" y="18.73" width="36.8" height="62.94"/></g><circle class="cls-3" cx="140.19" cy="90.04" r="2.8"/><rect class="cls-3" x="135.67" y="14.4" width="9.04" height="1.94" rx=".57" ry=".57"/><rect class="cls-3" x="123.94" y="37.11" width="32.45" height="32.45"/><g><path class="cls-7" d="M132.83,39.51h-6.67v9.36h9.34v-9.36h-2.67Zm1.33,2.67v5.35h-6.67v-6.69h6.67v1.34h0Z"/><path class="cls-7" d="M152.84,39.51h-8.01v9.36h9.34v-9.36h-1.33Zm0,2.67v5.35h-6.67v-6.69h6.67v1.34h0Z"/><polygon class="cls-7" points="130.16 42.19 128.82 42.19 128.82 43.53 128.82 44.87 128.82 46.2 130.16 46.2 131.49 46.2 132.83 46.2 132.83 44.87 132.83 43.53 132.83 42.19 131.49 42.19 130.16 42.19 130.16 42.19 130.16 42.19"/><polygon class="cls-7" points="140.83 43.53 142.16 43.53 142.16 42.19 142.16 40.85 143.5 40.85 143.5 39.52 142.16 39.52 140.83 39.52 139.5 39.52 139.5 40.85 139.5 42.19 140.83 42.19 140.83 43.53 140.83 43.53 140.83 43.53"/><polygon class="cls-7" points="148.84 42.19 147.5 42.19 147.5 43.53 147.5 44.87 147.5 46.2 148.84 46.2 150.17 46.2 151.5 46.2 151.5 44.87 151.5 43.53 151.5 42.19 150.17 42.19 148.84 42.19 148.84 42.19 148.84 42.19"/><polygon class="cls-7" points="139.5 44.87 139.5 43.53 139.5 42.19 138.16 42.19 136.83 42.19 136.83 43.53 136.83 44.87 136.83 46.2 138.16 46.2 138.16 44.87 139.5 44.87 139.5 44.87 139.5 44.87"/><polygon class="cls-7" points="142.16 43.53 143.5 43.53 143.5 44.87 142.16 44.87 142.16 43.53 142.16 43.53"/><polygon class="cls-7" points="136.83 47.54 138.16 47.54 138.16 48.88 136.83 48.88 136.83 47.54 136.83 47.54"/><polygon class="cls-7" points="134.16 50.22 135.49 50.22 135.49 51.55 134.16 51.55 134.16 50.22 134.16 50.22"/><polygon class="cls-7" points="151.5 50.22 150.17 50.22 148.84 50.22 147.5 50.22 147.5 51.55 148.84 51.55 148.84 52.89 148.84 54.23 148.84 55.57 148.84 56.9 148.84 58.24 150.17 58.24 150.17 56.9 151.5 56.9 151.5 58.24 152.84 58.24 154.17 58.24 154.17 56.9 152.84 56.9 152.84 55.57 151.5 55.57 150.17 55.57 150.17 54.23 150.17 52.89 151.5 52.89 151.5 54.23 152.84 54.23 152.84 52.89 152.84 51.55 151.5 51.55 151.5 50.22 151.5 50.22 151.5 50.22"/><polygon class="cls-7" points="152.84 50.22 154.17 50.22 154.17 51.55 152.84 51.55 152.84 50.22 152.84 50.22"/><polygon class="cls-7" points="130.16 52.89 131.49 52.89 131.49 51.55 131.49 50.22 130.16 50.22 128.82 50.22 127.49 50.22 126.16 50.22 126.16 51.55 127.49 51.55 127.49 52.89 128.82 52.89 130.16 52.89 130.16 52.89 130.16 52.89"/><polygon class="cls-7" points="144.83 51.55 144.83 50.22 143.5 50.22 143.5 48.88 143.5 47.54 143.5 46.2 142.16 46.2 142.16 44.87 140.83 44.87 140.83 46.2 139.5 46.2 138.16 46.2 138.16 47.54 139.5 47.54 139.5 48.88 140.83 48.88 140.83 47.54 142.16 47.54 142.16 48.88 140.83 48.88 140.83 50.22 139.5 50.22 138.16 50.22 136.83 50.22 136.83 51.55 138.16 51.55 138.16 52.89 139.5 52.89 139.5 51.55 140.83 51.55 140.83 52.89 140.83 54.23 139.5 54.23 138.16 54.23 138.16 55.57 138.16 56.9 139.5 56.9 139.5 58.24 140.83 58.24 140.83 59.58 142.16 59.58 143.5 59.58 143.5 58.24 142.16 58.24 142.16 56.9 140.83 56.9 140.83 55.57 142.16 55.57 142.16 54.23 142.16 52.89 143.5 52.89 144.83 52.89 146.17 52.89 147.5 52.89 147.5 51.55 146.17 51.55 144.83 51.55 144.83 51.55 144.83 51.55"/><polygon class="cls-7" points="126.16 52.89 127.49 52.89 127.49 54.23 126.16 54.23 126.16 52.89 126.16 52.89"/><polygon class="cls-7" points="134.16 52.89 135.49 52.89 135.49 54.23 134.16 54.23 134.16 52.89 134.16 52.89"/><polygon class="cls-7" points="136.83 52.89 136.83 51.55 135.49 51.55 135.49 52.89 135.49 54.23 136.83 54.23 138.16 54.23 138.16 52.89 136.83 52.89 136.83 52.89 136.83 52.89"/><polygon class="cls-7" points="131.49 54.23 130.16 54.23 130.16 55.57 128.82 55.57 128.82 54.23 127.49 54.23 127.49 55.57 127.49 56.9 128.82 56.9 130.16 56.9 131.49 56.9 131.49 55.57 132.83 55.57 132.83 56.9 134.16 56.9 135.49 56.9 135.49 55.57 134.16 55.57 134.16 54.23 132.83 54.23 131.49 54.23 131.49 54.23 131.49 54.23"/><polygon class="cls-7" points="152.84 54.23 154.17 54.23 154.17 55.56 152.84 55.56 152.84 54.23 152.84 54.23"/><polygon class="cls-7" points="142.16 55.57 143.5 55.57 143.5 56.9 142.16 56.9 142.16 55.57 142.16 55.57"/><polygon class="cls-7" points="147.5 56.9 147.5 55.57 147.5 54.23 146.17 54.23 144.83 54.23 144.83 55.57 146.17 55.57 146.17 56.9 147.5 56.9 147.5 56.9 147.5 56.9"/><polygon class="cls-7" points="136.83 56.9 138.16 56.9 138.16 58.24 136.83 58.24 136.83 56.9 136.83 56.9"/><polygon class="cls-7" points="144.83 56.9 146.17 56.9 146.17 58.24 144.83 58.24 144.83 56.9 144.83 56.9"/><path class="cls-7" d="M132.83,58.24h-6.67v6.69h0v2.67h9.34v-2.67h0v-6.69h-2.67Zm1.33,2.67v4.01h0v1.35h-6.67v-1.34h0v-5.36h6.67v1.34h0Z"/><polygon class="cls-7" points="138.16 58.24 139.5 58.24 139.5 59.58 138.16 59.58 138.16 58.24 138.16 58.24"/><polygon class="cls-7" points="150.17 59.58 148.84 59.58 147.5 59.58 146.17 59.58 146.17 60.92 147.5 60.92 147.5 62.25 148.84 62.25 148.84 60.92 150.17 60.92 150.17 59.58 150.17 59.58 150.17 59.58"/><polygon class="cls-7" points="130.16 60.92 128.82 60.92 128.82 62.25 128.82 63.59 128.82 64.93 130.16 64.93 131.49 64.93 132.83 64.93 132.83 63.59 132.83 62.25 132.83 60.92 131.49 60.92 130.16 60.92 130.16 60.92 130.16 60.92"/><polygon class="cls-7" points="146.17 60.92 144.83 60.92 143.5 60.92 142.16 60.92 142.16 62.25 143.5 62.25 144.83 62.25 144.83 63.59 144.83 64.93 143.5 64.93 143.5 63.59 142.16 63.59 142.16 64.93 143.5 64.93 143.5 66.26 143.5 67.6 144.83 67.6 144.83 66.26 144.83 64.93 146.17 64.93 146.17 63.59 147.5 63.59 147.5 62.25 146.17 62.25 146.17 60.92 146.17 60.92 146.17 60.92"/><polygon class="cls-7" points="140.83 62.25 142.16 62.25 142.16 63.59 140.83 63.59 140.83 62.25 140.83 62.25"/><polygon class="cls-7" points="139.5 64.93 138.16 64.93 138.16 63.59 139.5 63.59 139.5 62.25 139.5 60.92 138.16 60.92 138.16 62.25 136.83 62.25 136.83 63.59 136.83 64.93 136.83 64.93 136.83 66.26 136.83 67.6 138.16 67.6 138.16 66.26 139.5 66.26 139.5 64.93 140.83 64.93 140.83 63.59 139.5 63.59 139.5 64.93 139.5 64.93 139.5 64.93"/><polygon class="cls-7" points="150.17 63.59 151.5 63.59 151.5 64.93 150.17 64.93 150.17 63.59 150.17 63.59"/><polygon class="cls-7" points="147.5 64.93 147.5 66.26 148.84 66.26 148.84 64.93 148.84 64.93 148.84 63.59 147.5 63.59 147.5 64.93 147.5 64.93 147.5 64.93 147.5 64.93"/><polygon class="cls-7" points="139.5 66.26 140.83 66.26 140.83 67.6 139.5 67.6 139.5 66.26 139.5 66.26"/><polygon class="cls-7" points="146.17 66.26 147.5 66.26 147.5 67.6 146.17 67.6 146.17 66.26 146.17 66.26"/><polygon class="cls-7" points="151.5 66.26 152.84 66.26 152.84 67.6 151.5 67.6 151.5 66.26 151.5 66.26"/></g><path class="cls-6" d="M157.23,70.36h-3.66c-.11,0-.2,.09-.2,.2,0,.11,.09,.2,.2,.2h3.85c.11,0,.2-.09,.2-.2h0v-3.85c0-.11-.09-.2-.2-.2h0c-.11,0-.2,.09-.2,.2v3.65Z"/><path class="cls-6" d="M157.23,36.38h-3.66c-.11,0-.2-.09-.2-.2,0-.11,.09-.2,.2-.2h3.85c.11,0,.2,.09,.2,.2h0v3.85c0,.11-.09,.2-.2,.2h0c-.11,0-.2-.09-.2-.2v-3.65Z"/><path class="cls-6" d="M123.14,36.38h3.66c.11,0,.2-.09,.2-.2,0-.11-.09-.2-.2-.2h-3.85c-.11,0-.2,.09-.2,.2h0v3.85c0,.11,.09,.2,.2,.2h0c.11,0,.2-.09,.2-.2v-3.65Z"/><g><rect class="cls-2" x="122.75" y="49.88" width="34.83" height="7.62"/><rect class="cls-8" x="122.75" y="49.4" width="34.83" height="1.14"/></g><path class="cls-5" d="M180.08,104.81s-5.48-5.07-4.87-16.63c.61-11.56,1.34-17.55-4.14-27.79-.51-.95-2.94-7-3.85-10.5-.54-2.07-5.59-6.49-7.63,3.4-1.47,7.15,4.01,25.51,4.01,25.51"/><g><rect class="cls-4" x="111.51" y="72.6" width="18.26" height="8.89" rx="3.95" ry="3.95" transform="translate(59.93 -52.59) rotate(32.34)"/><path class="cls-4" d="M120.3,91.1l-4.63-2.47c-1.85-1.17-2.4-3.63-1.23-5.48h0c1.17-1.85,3.63-2.4,5.48-1.23l3.85,2.98c1.85,1.17,2.74,3.29,1.56,5.15h0c-1.17,1.85-3.18,2.23-5.03,1.06Z"/><rect class="cls-4" x="111.9" y="61.22" width="18.63" height="9.93" rx="4.64" ry="4.64" transform="translate(54.14 -54.54) rotate(32.31)"/></g></g></svg>