<svg width="124" height="76" xmlns="http://www.w3.org/2000/svg" xmlns:xlink="http://www.w3.org/1999/xlink" xml:space="preserve" overflow="hidden"><defs><clipPath id="clip0"><rect x="425" y="382" width="124" height="76"/></clipPath></defs><g clip-path="url(#clip0)" transform="translate(-425 -382)"><path d="M40.261 37.8703C49.3742 37.8703 56.762 45.2565 56.762 54.368L56.762 54.368C56.762 63.4794 49.3742 70.8657 40.261 70.8657L18.8116 70.8657C9.69832 70.8657 2.31055 63.4794 2.31055 54.368L2.31055 54.368C2.31055 45.2565 9.69832 37.8703 18.8116 37.8703Z" stroke="#003939" stroke-width="0.667788" stroke-miterlimit="10" fill="#FFFFFF" transform="matrix(1 0 0 1.00343 425.353 382)"/><path d="M-661.778 459.058C-662.972 458.494-664.393 458.763-665.297 459.725-665.516 459.958-665.697 460.224-665.832 460.513-666.242 461.375-666.223 462.38-665.778 463.225-665.472 463.81-664.982 464.28-664.383 464.56L-664.195 464.64C-663.918 464.753-663.625 464.82-663.327 464.841-662.065 464.944-660.872 464.255-660.329 463.111-659.61 461.591-660.259 459.778-661.778 459.058ZM-661.017 462.784C-661.414 463.656-662.312 464.189-663.267 464.119-663.496 464.099-663.721 464.048-663.935 463.966L-664.075 463.906C-664.527 463.695-664.895 463.34-665.124 462.897-665.449 462.272-665.464 461.532-665.164 460.894-665.064 460.675-664.929 460.474-664.763 460.3-664.083 459.581-663.019 459.382-662.125 459.806-661.013 460.334-660.521 461.648-661.01 462.777Z" fill="#6EBDBD" transform="matrix(1 0 0 1.00343 1123.57 -28.723)"/><path d="M-665.117 462.864-665.785 463.218C-666.23 462.373-666.249 461.368-665.838 460.507-665.703 460.217-665.523 459.951-665.304 459.719L-664.75 460.24C-664.915 460.414-665.051 460.615-665.15 460.834-665.462 461.478-665.449 462.231-665.117 462.864Z" stroke="#003939" stroke-width="0.500841" stroke-miterlimit="10" fill="#013939" transform="matrix(1 0 0 1.00343 1123.57 -28.723)"/><path d="M-663.908 463.932-664.189 464.64-664.376 464.56C-664.975 464.28-665.465 463.81-665.771 463.225L-665.104 462.871C-664.875 463.313-664.507 463.668-664.055 463.879Z" stroke="#003939" stroke-width="0.500841" stroke-miterlimit="10" fill="#013939" transform="matrix(1 0 0 1.00343 1123.57 -28.723)"/><path d="M-660.322 453.836C-659.754 452.642-660.025 451.218-660.99 450.316-661.22 450.097-661.484 449.917-661.771 449.782-662.636 449.374-663.641 449.394-664.489 449.835-665.074 450.143-665.543 450.634-665.825 451.231L-665.912 451.418C-666.017 451.699-666.085 451.994-666.112 452.293-666.215 453.555-665.522 454.748-664.376 455.285-662.861 456.005-661.048 455.361-660.327 453.846-660.326 453.842-660.324 453.839-660.322 453.836ZM-664.049 454.597C-664.921 454.203-665.454 453.307-665.384 452.353-665.367 452.124-665.315 451.899-665.231 451.685-665.216 451.637-665.196 451.589-665.17 451.545-664.959 451.096-664.608 450.728-664.169 450.497-663.542 450.177-662.804 450.163-662.165 450.457-661.95 450.559-661.751 450.694-661.578 450.857-660.842 451.54-660.638 452.625-661.077 453.528-661.62 454.625-662.932 455.097-664.049 454.597Z" fill="#6EBDBD" transform="matrix(1 0 0 1.00343 1123.57 -28.723)"/><path d="M-664.135 450.51-664.489 449.842C-663.641 449.401-662.636 449.381-661.771 449.789-661.484 449.924-661.22 450.104-660.99 450.323L-661.511 450.877C-661.685 450.714-661.883 450.579-662.099 450.477-662.746 450.169-663.499 450.182-664.135 450.51Z" stroke="#003939" stroke-width="0.500841" stroke-miterlimit="10" fill="#6EBDBD" transform="matrix(1 0 0 1.00343 1123.57 -28.723)"/><path d="M-665.197 451.699-665.912 451.418-665.825 451.231C-665.543 450.634-665.074 450.143-664.489 449.835L-664.135 450.503C-664.575 450.734-664.926 451.102-665.137 451.552-665.163 451.598-665.183 451.647-665.197 451.699Z" stroke="#003939" stroke-width="0.500841" stroke-miterlimit="10" fill="#013939" transform="matrix(1 0 0 1.00343 1123.57 -28.723)"/><path d="M-666.112 452.293C-666.085 451.994-666.017 451.699-665.912 451.418L-665.197 451.699C-665.282 451.912-665.333 452.137-665.351 452.366Z" stroke="#003939" stroke-width="0.500841" stroke-miterlimit="10" fill="#013939" transform="matrix(1 0 0 1.00343 1123.57 -28.723)"/><path d="M34.2108 57.53 28.5279 57.53 28.5279 57.4164 34.0973 57.4164 34.0973 55.2662 34.2108 55.2662 34.2108 57.53Z" stroke="#003939" stroke-width="0.500841" stroke-miterlimit="10" fill="#6EBDBD" transform="matrix(1 0 0 1.00343 425.353 382)"/><path d="M23.5061 57.53 16.1071 57.53 16.1071 57.4164 23.3926 57.4164 23.3926 53.8972 23.5061 53.8972 23.5061 57.53Z" stroke="#003939" stroke-width="0.500841" stroke-miterlimit="10" fill="#6EBDBD" transform="matrix(1 0 0 1.00343 425.353 382)"/><path d="M16.1071 56.2411 21.1956 56.2411 21.1956 56.9223 16.1071 56.9223Z" stroke="#003939" stroke-width="0.500841" stroke-miterlimit="10" fill="#6EBDBD" transform="matrix(1 0 0 1.00343 425.353 382)"/><path d="M28.5279 56.2411 31.5196 56.2411 31.5196 56.9223 28.5279 56.9223Z" stroke="#003939" stroke-width="0.500841" stroke-miterlimit="10" fill="#6EBDBD" transform="matrix(1 0 0 1.00343 425.353 382)"/><path d="M15.0186 61.3898 44.0874 61.3898 44.0874 62.1844 15.0186 62.1844Z" fill="#6EBDBD" transform="matrix(1 0 0 1.00343 425.353 382)"/><path d="M15.0186 63.2529 46.251 63.2529 46.251 64.0476 15.0186 64.0476Z" fill="#6EBDBD" transform="matrix(1 0 0 1.00343 425.353 382)"/><path d="M15.0186 65.1094 38.8519 65.1094 38.8519 65.904 15.0186 65.904Z" fill="#6EBDBD" transform="matrix(1 0 0 1.00343 425.353 382)"/><path d="M15.0186 61.3898 32.7149 61.3898 32.7149 62.1844 15.0186 62.1844Z" stroke="#003939" stroke-width="0.500841" stroke-miterlimit="10" fill="#013939" transform="matrix(1 0 0 1.00343 425.353 382)"/><path d="M15.0186 63.2529 34.144 63.2529 34.144 64.0476 15.0186 64.0476Z" stroke="#003939" stroke-width="0.500841" stroke-miterlimit="10" fill="#013939" transform="matrix(1 0 0 1.00343 425.353 382)"/><path d="M15.0186 65.1094 27.4261 65.1094 27.4261 65.904 15.0186 65.904Z" stroke="#003939" stroke-width="0.500841" stroke-miterlimit="10" fill="#013939" transform="matrix(1 0 0 1.00343 425.353 382)"/><path d="M56.2612 14.117C62.3539 14.117 67.293 19.0562 67.293 25.1489L67.293 25.1489C67.293 31.2416 62.3539 36.1808 56.2612 36.1808L11.3658 36.1808C5.27303 36.1808 0.333894 31.2416 0.333894 25.1489L0.333894 25.1489C0.333894 19.0562 5.27303 14.117 11.3658 14.117Z" stroke="#003939" stroke-width="0.667788" stroke-miterlimit="10" fill="#FFFFFF" transform="matrix(1 0 0 1.00343 425.353 382)"/><path d="M54.6184 20.2874 61.8773 20.2874 61.8773 21.0153 54.6184 21.0153Z" fill="#6EBDBD" transform="matrix(1 0 0 1.00343 425.353 382)"/><path d="M54.6184 22.5379 62.9658 22.5379 62.9658 23.2657 54.6184 23.2657Z" fill="#6EBDBD" transform="matrix(1 0 0 1.00343 425.353 382)"/><path d="M54.605 24.7816 58.9256 24.7816 58.9256 25.5095 54.605 25.5095Z" fill="#6EBDBD" transform="matrix(1 0 0 1.00343 425.353 382)"/><path d="M54.605 27.0254 61.2562 27.0254 61.2562 27.7533 54.605 27.7533Z" fill="#6EBDBD" transform="matrix(1 0 0 1.00343 425.353 382)"/><path d="M15.279 33.9837 21.7499 33.9837 21.7499 34.7784 15.279 34.7784Z" fill="#D7D6D6" transform="matrix(1 0 0 1.00343 425.353 382)"/><path d="M13.7097 32.568 23.3258 32.568 23.3258 33.3627 13.7097 33.3627Z" fill="#D7D6D6" transform="matrix(1 0 0 1.00343 425.353 382)"/><path d="M-678.019 430.944C-678.019 431.866-678.767 432.613-679.688 432.613-679.688 432.613-679.695 432.613-679.695 432.613-680.616 432.613-681.364 431.866-681.364 430.944-681.364 430.022-680.616 429.274-679.695 429.274-678.773 429.271-678.025 430.015-678.019 430.937-678.019 430.939-678.019 430.942-678.019 430.944Z" stroke="#003939" stroke-width="0.500841" stroke-miterlimit="10" fill="#6EBDBD" transform="matrix(1 0 0 1.00343 1123.57 -28.723)"/><path d="M-676.676 436.393-676.676 439.572C-677.625 440.01-678.66 440.237-679.708 440.239-680.757 440.237-681.792 440.009-682.74 439.572L-682.74 436.393C-682.74 434.719-681.384 433.361-679.708 433.361-678.032 433.361-676.676 434.719-676.676 436.393Z" stroke="#003939" stroke-width="0.500841" stroke-miterlimit="10" fill="#6EBDBD" transform="matrix(1 0 0 1.00343 1123.57 -28.723)"/><path d="M28.9753 19.1522 44.5415 19.1522 44.5415 20.1538 28.9753 20.1538Z" fill="#6EBDBD" transform="matrix(1 0 0 1.00343 425.353 382)"/><path d="M46.2109 19.1522 52.2611 19.1522 52.2611 20.1538 46.2109 20.1538Z" stroke="#003939" stroke-width="0.500841" stroke-miterlimit="10" fill="#6EBDBD" transform="matrix(1 0 0 1.00343 425.353 382)"/><path d="M28.9753 16.8617 36.2876 16.8617 36.2876 17.8633 28.9753 17.8633Z" fill="#6EBDBD" transform="matrix(1 0 0 1.00343 425.353 382)"/><path d="M-679.708 440.42C-680.783 440.42-681.845 440.193-682.82 439.752-685.505 438.526-687.234 435.847-687.234 432.894-687.221 428.744-683.855 425.384-679.708 425.381-675.548 425.384-672.182 428.755-672.176 432.914-672.182 435.867-673.905 438.547-676.596 439.772-677.578 440.207-678.64 440.428-679.708 440.42ZM-679.708 425.762C-683.648 425.766-686.834 428.956-686.84 432.894-686.834 435.692-685.197 438.231-682.653 439.391-681.732 439.811-680.723 440.028-679.708 440.026-678.693 440.029-677.685 439.813-676.763 439.391-674.219 438.231-672.583 435.692-672.576 432.894-672.583 428.956-675.768 425.766-679.708 425.762Z" stroke="#003939" stroke-width="0.500841" stroke-miterlimit="10" fill="#6EBDBD" transform="matrix(1 0 0 1.00343 1123.57 -28.723)"/><path d="M30.0772 22.057 30.4779 22.057 30.4779 31.6932 30.0772 31.6932Z" stroke="#003939" stroke-width="0.500841" stroke-miterlimit="10" fill="#6EBDBD" transform="matrix(1 0 0 1.00343 425.353 382)"/><path d="M31.9069 22.057 32.3076 22.057 32.3076 31.6932 31.9069 31.6932Z" stroke="#003939" stroke-width="0.500841" stroke-miterlimit="10" fill="#6EBDBD" transform="matrix(1 0 0 1.00343 425.353 382)"/><path d="M33.73 22.057 34.1307 22.057 34.1307 31.6932 33.73 31.6932Z" stroke="#003939" stroke-width="0.500841" stroke-miterlimit="10" fill="#6EBDBD" transform="matrix(1 0 0 1.00343 425.353 382)"/><path d="M35.5597 22.057 35.9604 22.057 35.9604 31.6932 35.5597 31.6932Z" stroke="#003939" stroke-width="0.500841" stroke-miterlimit="10" fill="#6EBDBD" transform="matrix(1 0 0 1.00343 425.353 382)"/><path d="M37.3828 22.057 37.7835 22.057 37.7835 31.6932 37.3828 31.6932Z" stroke="#003939" stroke-width="0.500841" stroke-miterlimit="10" fill="#6EBDBD" transform="matrix(1 0 0 1.00343 425.353 382)"/><path d="M39.2125 22.057 39.6132 22.057 39.6132 31.6932 39.2125 31.6932Z" stroke="#003939" stroke-width="0.500841" stroke-miterlimit="10" fill="#6EBDBD" transform="matrix(1 0 0 1.00343 425.353 382)"/><path d="M41.0356 22.057 41.4363 22.057 41.4363 31.6932 41.0356 31.6932Z" stroke="#003939" stroke-width="0.500841" stroke-miterlimit="10" fill="#6EBDBD" transform="matrix(1 0 0 1.00343 425.353 382)"/><path d="M42.8653 22.057 43.266 22.057 43.266 31.6932 42.8653 31.6932Z" stroke="#003939" stroke-width="0.500841" stroke-miterlimit="10" fill="#6EBDBD" transform="matrix(1 0 0 1.00343 425.353 382)"/><path d="M44.6884 22.057 45.0891 22.057 45.0891 31.6932 44.6884 31.6932Z" stroke="#003939" stroke-width="0.500841" stroke-miterlimit="10" fill="#6EBDBD" transform="matrix(1 0 0 1.00343 425.353 382)"/><path d="M46.5181 22.057 46.9188 22.057 46.9188 31.6932 46.5181 31.6932Z" stroke="#003939" stroke-width="0.500841" stroke-miterlimit="10" fill="#6EBDBD" transform="matrix(1 0 0 1.00343 425.353 382)"/><path d="M48.3412 22.057 48.7419 22.057 48.7419 31.6932 48.3412 31.6932Z" stroke="#003939" stroke-width="0.500841" stroke-miterlimit="10" fill="#6EBDBD" transform="matrix(1 0 0 1.00343 425.353 382)"/><path d="M50.1709 22.057 50.5716 22.057 50.5716 31.6932 50.1709 31.6932Z" stroke="#003939" stroke-width="0.500841" stroke-miterlimit="10" fill="#6EBDBD" transform="matrix(1 0 0 1.00343 425.353 382)"/><path d="M30.0772 24.9352 30.4779 24.9352 30.4779 31.6932 30.0772 31.6932Z" stroke="#003939" stroke-width="0.500841" stroke-miterlimit="10" fill="#FFC749" transform="matrix(1 0 0 1.00343 425.353 382)"/><path d="M31.9069 27.2725 32.3076 27.2725 32.3076 31.6932 31.9069 31.6932Z" stroke="#003939" stroke-width="0.500841" stroke-miterlimit="10" fill="#FFC749" transform="matrix(1 0 0 1.00343 425.353 382)"/><path d="M33.73 23.446 34.1307 23.446 34.1307 31.6932 33.73 31.6932Z" stroke="#003939" stroke-width="0.500841" stroke-miterlimit="10" fill="#FFC749" transform="matrix(1 0 0 1.00343 425.353 382)"/><path d="M35.5597 29.2892 35.9604 29.2892 35.9604 31.6932 35.5597 31.6932Z" stroke="#003939" stroke-width="0.500841" stroke-miterlimit="10" fill="#FFC749" transform="matrix(1 0 0 1.00343 425.353 382)"/><path d="M37.3828 26.8718 37.7835 26.8718 37.7835 31.6932 37.3828 31.6932Z" stroke="#003939" stroke-width="0.500841" stroke-miterlimit="10" fill="#FFC749" transform="matrix(1 0 0 1.00343 425.353 382)"/><path d="M39.2125 25.0688 39.6132 25.0688 39.6132 31.6932 39.2125 31.6932Z" stroke="#003939" stroke-width="0.500841" stroke-miterlimit="10" fill="#FFC749" transform="matrix(1 0 0 1.00343 425.353 382)"/><path d="M41.0356 27.4194 41.4363 27.4194 41.4363 31.6932 41.0356 31.6932Z" stroke="#003939" stroke-width="0.500841" stroke-miterlimit="10" fill="#FFC749" transform="matrix(1 0 0 1.00343 425.353 382)"/><path d="M42.8653 24.4544 43.266 24.4544 43.266 31.6932 42.8653 31.6932Z" stroke="#003939" stroke-width="0.500841" stroke-miterlimit="10" fill="#FFC749" transform="matrix(1 0 0 1.00343 425.353 382)"/><path d="M44.6884 27.7199 45.0891 27.7199 45.0891 31.6932 44.6884 31.6932Z" stroke="#003939" stroke-width="0.500841" stroke-miterlimit="10" fill="#FFC749" transform="matrix(1 0 0 1.00343 425.353 382)"/><path d="M46.5181 25.3359 46.9188 25.3359 46.9188 31.6932 46.5181 31.6932Z" stroke="#003939" stroke-width="0.500841" stroke-miterlimit="10" fill="#FFC749" transform="matrix(1 0 0 1.00343 425.353 382)"/><path d="M48.3412 28.5146 48.7419 28.5146 48.7419 31.6932 48.3412 31.6932Z" stroke="#003939" stroke-width="0.500841" stroke-miterlimit="10" fill="#FFC749" transform="matrix(1 0 0 1.00343 425.353 382)"/><path d="M50.1709 25.3359 50.5716 25.3359 50.5716 31.6932 50.1709 31.6932Z" stroke="#003939" stroke-width="0.500841" stroke-miterlimit="10" fill="#FFC749" transform="matrix(1 0 0 1.00343 425.353 382)"/><path d="M27.8802 46.4647 23.6664 46.4647 23.6664 42.251 21.042 42.251 21.042 46.4647 16.8283 46.4647 16.8283 49.0891 21.042 49.0891 21.042 53.3029 23.6664 53.3029 23.6664 49.0891 27.8802 49.0891 27.8802 46.4647Z" fill="#FFC749" transform="matrix(1 0 0 1.00343 425.353 382)"/><path d="M57.3764 0.333894 122.96 0.333894 122.96 75.4066 57.3764 75.4066Z" stroke="#003939" stroke-width="0.667788" stroke-miterlimit="10" fill="#FFFFFF" transform="matrix(1 0 0 1.00343 425.353 382)"/><path d="M-629.17 426.049-629.17 468.28-586.939 468.28-586.939 426.049ZM-588.301 466.918-627.808 466.918-627.808 427.438-588.321 427.438ZM-614.185 430.136-625.05 430.136-625.05 441.034-614.151 441.034ZM-615.52 439.672-623.714 439.672-623.714 431.525-615.54 431.525ZM-616.856 438.336-622.379 438.336-622.379 432.887-616.93 432.887ZM-590.993 430.162-601.891 430.162-601.891 441.061-590.993 441.061-590.993 430.162ZM-592.328 439.698-600.502 439.698-600.502 431.525-592.328 431.525ZM-593.664 438.363-599.113 438.363-599.113 432.914-593.664 432.914ZM-614.098 453.348-625.05 453.348-625.05 464.246-614.151 464.246ZM-615.434 462.884-623.714 462.884-623.714 454.684-615.54 454.684ZM-616.769 461.548-622.379 461.548-622.379 456.099-616.93 456.099ZM-611.32 434.303-612.656 434.303-612.656 430.216-611.32 430.216ZM-611.32 454.737-611.32 456.073-608.595 456.073-608.595 457.408-611.32 457.408-611.32 458.744-612.656 458.744-612.656 454.657ZM-623.714 449.234-620.99 449.234-620.99 451.959-616.903 451.959-616.903 449.234-612.816 449.234-612.816 451.959-610.091 451.959-610.091 446.51-608.756 446.51-608.756 454.684-607.42 454.684-607.42 453.348-606.085 453.348-606.085 458.771-608.809 458.771-608.809 460.106-606.085 460.106-606.085 461.442-604.749 461.442-604.749 462.777-607.474 462.777-607.474 464.113-603.387 464.113-603.387 458.771-602.051 458.771-602.051 460.106-600.716 460.106-600.716 458.771-599.38 458.771-599.38 461.495-598.044 461.495-598.044 462.831-600.769 462.831-600.769 464.166-596.682 464.166-596.682 461.442-593.958 461.442-593.958 457.435-598.044 457.435-598.044 456.099-593.958 456.099-593.958 454.764-598.044 454.764-598.044 451.959-602.131 451.959-602.131 450.623-600.796 450.623-600.796 447.899-598.071 447.899-598.071 443.812-600.796 443.812-600.796 446.537-604.883 446.537-604.883 443.812-600.796 443.812-600.796 442.476-606.245 442.476-606.245 447.926-602.158 447.926-602.158 449.261-607.607 449.261-607.607 445.148-610.332 445.148-610.332 441.061-611.667 441.061-611.667 443.785-614.392 443.785-614.392 442.45-618.479 442.45-618.479 443.785-615.754 443.785-615.754 445.121-618.479 445.121-618.479 446.456-615.754 446.456-615.754 447.792-618.479 447.792-618.479 450.517-619.814 450.517-619.814 443.705-623.714 443.705-623.714 442.37-625.05 442.37-625.05 450.543-623.714 450.543-623.714 449.208ZM-603.28 453.321-603.28 454.657-601.944 454.657-601.944 453.321-599.22 453.321-599.22 457.435-600.555 457.435-600.555 456.099-601.891 456.099-601.891 457.435-604.615 457.435-604.615 453.348ZM-614.178 446.51-614.178 445.174-611.454 445.174-611.454 447.899-614.178 447.899-614.178 446.563ZM-623.714 445.174-620.99 445.174-620.99 446.51-623.714 446.51ZM-596.468 443.839-590.993 443.839-590.993 447.926-592.328 447.926-592.328 445.148-595.053 445.148-595.053 449.234-592.328 449.234-592.328 451.959-590.993 451.959-590.993 456.046-592.328 456.046-592.328 453.321-595.053 453.321-595.053 450.597-596.388 450.597-596.388 443.785ZM-608.729 439.752-612.816 439.752-612.816 437.027-610.091 437.027-610.091 430.216-604.642 430.216-604.642 431.551-608.729 431.551-608.729 439.725ZM-608.729 441.087-608.729 439.752-607.393 439.752-607.393 432.94-606.058 432.94-606.058 434.276-603.333 434.276-603.333 438.363-606.058 438.363-606.058 439.698-604.722 439.698-604.722 441.034ZM-610.065 460.16-608.729 460.16-608.729 462.884-612.816 462.884-612.816 461.548-610.091 461.548ZM-592.355 461.495-591.019 461.495-591.019 464.22-595.106 464.22-595.106 462.884-592.382 462.884Z" stroke="#003939" stroke-width="0.500841" stroke-miterlimit="10" fill="#013939" transform="matrix(1 0 0 1.00343 1123.57 -28.723)"/></g></svg>