<svg width="16" height="13" viewBox="0 0 16 13" fill="none" xmlns="http://www.w3.org/2000/svg">
<path d="M4 0H5.83576L8.00002 3.25664L10.2029 0H12L8.00002 6L4 0Z" fill="#722772"/>
<path d="M0 6L0.929779 4.65489H5.26876L3.11864 1.36283L4.00969 0L8 6H0Z" fill="#E24A31"/>
<path d="M16 7L15.0896 8.34116H10.7506L12.9007 11.6588L11.9903 13L8 7H16Z" fill="#89BF44"/>
<path d="M11.9903 0L12.9201 1.37647L10.7312 4.65882H15.109L16 6H8L11.9903 0Z" fill="#E77D26"/>
<path d="M4.00969 13L3.0799 11.6235L5.26876 8.34116H0.891041L0 7H8L4.00969 13Z" fill="#F1B42A"/>
</svg>
