<?xml version="1.0" encoding="UTF-8"?><svg id="Layer_2" xmlns="http://www.w3.org/2000/svg" xmlns:xlink="http://www.w3.org/1999/xlink" viewBox="0 0 114.16 119.93"><defs><style>.cls-1{fill:#6ebcbc;}.cls-2,.cls-3{fill:#fff;}.cls-4{fill:#013939;}.cls-5{fill:#003939;}.cls-6{fill:#e67d27;}.cls-6,.cls-7,.cls-8,.cls-9,.cls-10,.cls-3,.cls-11,.cls-12,.cls-13{stroke-miterlimit:10;}.cls-6,.cls-7,.cls-8,.cls-9,.cls-10,.cls-11,.cls-12,.cls-13{stroke-width:.25px;}.cls-6,.cls-10{stroke:#fff;}.cls-7,.cls-9,.cls-11,.cls-12,.cls-13{fill:#fcfcfb;stroke:#215f5f;}.cls-14{fill:#e66524;}.cls-8{stroke:#fcfcfb;}.cls-8,.cls-15{fill:#178e45;}.cls-16{fill:#c23f39;}.cls-9{filter:url(#drop-shadow-3);}.cls-10{fill:#c33f37;}.cls-3{stroke:#023939;stroke-width:.75px;}.cls-11{filter:url(#drop-shadow-1);}.cls-12{filter:url(#drop-shadow-2);}.cls-13{filter:url(#drop-shadow-4);}</style><filter id="drop-shadow-1" filterUnits="userSpaceOnUse"><feOffset dx="0" dy="2"/><feGaussianBlur result="blur" stdDeviation="2"/><feFlood flood-color="#000" flood-opacity=".1"/><feComposite in2="blur" operator="in"/><feComposite in="SourceGraphic"/></filter><filter id="drop-shadow-2" filterUnits="userSpaceOnUse"><feOffset dx="0" dy="2"/><feGaussianBlur result="blur-2" stdDeviation="2"/><feFlood flood-color="#000" flood-opacity=".1"/><feComposite in2="blur-2" operator="in"/><feComposite in="SourceGraphic"/></filter><filter id="drop-shadow-3" filterUnits="userSpaceOnUse"><feOffset dx="0" dy="2"/><feGaussianBlur result="blur-3" stdDeviation="2"/><feFlood flood-color="#000" flood-opacity=".1"/><feComposite in2="blur-3" operator="in"/><feComposite in="SourceGraphic"/></filter><filter id="drop-shadow-4" filterUnits="userSpaceOnUse"><feOffset dx="0" dy="2"/><feGaussianBlur result="blur-4" stdDeviation="2"/><feFlood flood-color="#000" flood-opacity=".1"/><feComposite in2="blur-4" operator="in"/><feComposite in="SourceGraphic"/></filter></defs><g id="Layer_1-2"><path class="cls-2" d="M56.29,119.67l30.37-14.56-2.86-4.09-1.85-4.67-1.06-4.92-.11-6.77,.66-12-1.16-9.7-2.27-6.93-5.95-14.18-1.18-3.72-1.9-2.14-.56-.32c-1.33-.53-2.55-.43-3.64,.49l-1.15,1.3-1.68,4.94-.7,6.37,1.84,10.63,.89,3.51-12.34,1.08-32.21,19.39,9.79,10.2,3.54,6.42c.86,1.57,1.99,2.97,3.32,4.16l4.99,4.45,8.24,4.33,6.98,6.73Z"/><g><path class="cls-3" d="M7.31,28.94h10.51c3.32,0,6.01,2.69,6.01,6.01h0c0,3.32-2.69,6.01-6.01,6.01H4.64C2.06,40.95-.04,38.86-.04,36.28H-.04c0-4.05,3.29-7.34,7.34-7.34Z" transform="translate(20.52 -.95) rotate(32.31)"/><path class="cls-3" d="M29.23,93.57s4.99,14.32,20.09,19.1l6.97,7"/><rect class="cls-1" x="15.82" width="50.82" height="93.61" rx="5.54" ry="5.54"/><rect class="cls-2" x="6.46" y="23.18" width="69.54" height="40.65" transform="translate(84.74 2.27) rotate(90)"/><path class="cls-3" d="M86.66,105.11s-6.62-6.13-5.89-20.12,1.62-21.22-5.01-33.61c-.61-1.15-3.56-8.46-4.66-12.7-.65-2.5-6.76-7.85-9.22,4.11-1.78,8.65,4.85,30.85,4.85,30.85"/><g><g><path class="cls-5" d="M35.2,31.96h-5.48v7.7h7.68v-7.7h-2.2Zm1.1,2.2v4.4h-5.48v-5.5h5.48v1.1h0Z"/><path class="cls-5" d="M51.65,31.96h-6.58v7.7h7.68v-7.7h-1.1Zm0,2.2v4.4h-5.49v-5.5h5.49v1.1h0Z"/><polygon class="cls-5" points="33 34.16 31.91 34.16 31.91 35.26 31.91 36.36 31.91 37.46 33 37.46 34.1 37.46 35.2 37.46 35.2 36.36 35.2 35.26 35.2 34.16 34.1 34.16 33 34.16 33 34.16 33 34.16"/><polygon class="cls-5" points="41.78 35.26 42.87 35.26 42.87 34.16 42.87 33.06 43.97 33.06 43.97 31.96 42.87 31.96 41.78 31.96 40.68 31.96 40.68 33.06 40.68 34.16 41.78 34.16 41.78 35.26 41.78 35.26 41.78 35.26"/><polygon class="cls-5" points="48.36 34.16 47.26 34.16 47.26 35.26 47.26 36.36 47.26 37.46 48.36 37.46 49.46 37.46 50.55 37.46 50.55 36.36 50.55 35.26 50.55 34.16 49.46 34.16 48.36 34.16 48.36 34.16 48.36 34.16"/><polygon class="cls-5" points="40.68 36.36 40.68 35.26 40.68 34.16 39.59 34.16 38.49 34.16 38.49 35.26 38.49 36.36 38.49 37.46 39.59 37.46 39.59 36.36 40.68 36.36 40.68 36.36 40.68 36.36"/><polygon class="cls-5" points="42.87 35.26 43.97 35.26 43.97 36.36 42.87 36.36 42.87 35.26 42.87 35.26"/><polygon class="cls-5" points="38.49 38.56 39.59 38.56 39.59 39.66 38.49 39.66 38.49 38.56 38.49 38.56"/><polygon class="cls-5" points="36.29 40.76 37.39 40.76 37.39 41.86 36.29 41.86 36.29 40.76 36.29 40.76"/><polygon class="cls-5" points="50.55 40.76 49.46 40.76 48.36 40.76 47.26 40.76 47.26 41.86 48.36 41.86 48.36 42.95 48.36 44.05 48.36 45.16 48.36 46.25 48.36 47.35 49.46 47.35 49.46 46.25 50.55 46.25 50.55 47.35 51.65 47.35 52.75 47.35 52.75 46.25 51.65 46.25 51.65 45.16 50.55 45.16 49.46 45.16 49.46 44.05 49.46 42.95 50.55 42.95 50.55 44.05 51.65 44.05 51.65 42.95 51.65 41.86 50.55 41.86 50.55 40.76 50.55 40.76 50.55 40.76"/><polygon class="cls-5" points="51.65 40.76 52.75 40.76 52.75 41.86 51.65 41.86 51.65 40.76 51.65 40.76"/><polygon class="cls-5" points="33 42.95 34.1 42.95 34.1 41.86 34.1 40.76 33 40.76 31.91 40.76 30.81 40.76 29.72 40.76 29.72 41.86 30.81 41.86 30.81 42.95 31.91 42.95 33 42.95 33 42.95 33 42.95"/><polygon class="cls-5" points="45.07 41.86 45.07 40.76 43.97 40.76 43.97 39.66 43.97 38.56 43.97 37.46 42.87 37.46 42.87 36.36 41.78 36.36 41.78 37.46 40.68 37.46 39.59 37.46 39.59 38.56 40.68 38.56 40.68 39.66 41.78 39.66 41.78 38.56 42.87 38.56 42.87 39.66 41.78 39.66 41.78 40.76 40.68 40.76 39.59 40.76 38.49 40.76 38.49 41.86 39.59 41.86 39.59 42.95 40.68 42.95 40.68 41.86 41.78 41.86 41.78 42.95 41.78 44.05 40.68 44.05 39.59 44.05 39.59 45.16 39.59 46.25 40.68 46.25 40.68 47.35 41.78 47.35 41.78 48.45 42.87 48.45 43.97 48.45 43.97 47.35 42.87 47.35 42.87 46.25 41.78 46.25 41.78 45.16 42.87 45.16 42.87 44.05 42.87 42.95 43.97 42.95 45.07 42.95 46.17 42.95 47.26 42.95 47.26 41.86 46.17 41.86 45.07 41.86 45.07 41.86 45.07 41.86"/><polygon class="cls-5" points="29.72 42.95 30.81 42.95 30.81 44.05 29.72 44.05 29.72 42.95 29.72 42.95"/><polygon class="cls-5" points="36.29 42.95 37.39 42.95 37.39 44.05 36.29 44.05 36.29 42.95 36.29 42.95"/><polygon class="cls-5" points="38.49 42.95 38.49 41.86 37.39 41.86 37.39 42.95 37.39 44.05 38.49 44.05 39.59 44.05 39.59 42.95 38.49 42.95 38.49 42.95 38.49 42.95"/><polygon class="cls-5" points="34.1 44.05 33 44.05 33 45.16 31.91 45.16 31.91 44.05 30.81 44.05 30.81 45.16 30.81 46.25 31.91 46.25 33 46.25 34.1 46.25 34.1 45.16 35.2 45.16 35.2 46.25 36.29 46.25 37.39 46.25 37.39 45.16 36.29 45.16 36.29 44.05 35.2 44.05 34.1 44.05 34.1 44.05 34.1 44.05"/><polygon class="cls-5" points="51.65 44.05 52.75 44.05 52.75 45.15 51.65 45.15 51.65 44.05 51.65 44.05"/><polygon class="cls-5" points="42.87 45.16 43.97 45.16 43.97 46.25 42.87 46.25 42.87 45.16 42.87 45.16"/><polygon class="cls-5" points="47.26 46.25 47.26 45.16 47.26 44.05 46.17 44.05 45.07 44.05 45.07 45.16 46.17 45.16 46.17 46.25 47.26 46.25 47.26 46.25 47.26 46.25"/><polygon class="cls-5" points="38.49 46.25 39.59 46.25 39.59 47.35 38.49 47.35 38.49 46.25 38.49 46.25"/><polygon class="cls-5" points="45.07 46.25 46.17 46.25 46.17 47.35 45.07 47.35 45.07 46.25 45.07 46.25"/><path class="cls-5" d="M35.2,47.35h-5.48v5.5h0v2.2h7.68v-2.2h0v-5.5h-2.2Zm1.1,2.2v3.3h0v1.11h-5.48v-1.1h0v-4.41h5.48v1.1h0Z"/><polygon class="cls-5" points="39.59 47.35 40.68 47.35 40.68 48.45 39.59 48.45 39.59 47.35 39.59 47.35"/><polygon class="cls-5" points="49.46 48.45 48.36 48.45 47.26 48.45 46.17 48.45 46.17 49.55 47.26 49.55 47.26 50.65 48.36 50.65 48.36 49.55 49.46 49.55 49.46 48.45 49.46 48.45 49.46 48.45"/><polygon class="cls-5" points="33 49.55 31.91 49.55 31.91 50.65 31.91 51.75 31.91 52.85 33 52.85 34.1 52.85 35.2 52.85 35.2 51.75 35.2 50.65 35.2 49.55 34.1 49.55 33 49.55 33 49.55 33 49.55"/><polygon class="cls-5" points="46.17 49.55 45.07 49.55 43.97 49.55 42.87 49.55 42.87 50.65 43.97 50.65 45.07 50.65 45.07 51.75 45.07 52.85 43.97 52.85 43.97 51.75 42.87 51.75 42.87 52.85 43.97 52.85 43.97 53.95 43.97 55.05 45.07 55.05 45.07 53.95 45.07 52.85 46.17 52.85 46.17 51.75 47.26 51.75 47.26 50.65 46.17 50.65 46.17 49.55 46.17 49.55 46.17 49.55"/><polygon class="cls-5" points="41.78 50.65 42.87 50.65 42.87 51.75 41.78 51.75 41.78 50.65 41.78 50.65"/><polygon class="cls-5" points="40.68 52.85 39.59 52.85 39.59 51.75 40.68 51.75 40.68 50.65 40.68 49.55 39.59 49.55 39.59 50.65 38.49 50.65 38.49 51.75 38.49 52.85 38.49 52.85 38.49 53.95 38.49 55.05 39.59 55.05 39.59 53.95 40.68 53.95 40.68 52.85 41.78 52.85 41.78 51.75 40.68 51.75 40.68 52.85 40.68 52.85 40.68 52.85"/><polygon class="cls-5" points="49.46 51.75 50.55 51.75 50.55 52.85 49.46 52.85 49.46 51.75 49.46 51.75"/><polygon class="cls-5" points="47.26 52.85 47.26 53.95 48.36 53.95 48.36 52.85 48.36 52.85 48.36 51.75 47.26 51.75 47.26 52.85 47.26 52.85 47.26 52.85 47.26 52.85"/><polygon class="cls-5" points="40.68 53.95 41.78 53.95 41.78 55.05 40.68 55.05 40.68 53.95 40.68 53.95"/><polygon class="cls-5" points="46.17 53.95 47.26 53.95 47.26 55.05 46.17 55.05 46.17 53.95 46.17 53.95"/><polygon class="cls-5" points="50.55 53.95 51.65 53.95 51.65 55.05 50.55 55.05 50.55 53.95 50.55 53.95"/></g><g><path class="cls-4" d="M54.05,56.59h-2.75c-.08,0-.15,.07-.15,.15,0,.08,.07,.15,.15,.15h2.9c.08,0,.15-.07,.15-.15h0v-2.9c0-.08-.07-.15-.15-.15h0c-.08,0-.15,.07-.15,.15v2.75Z"/><path class="cls-4" d="M28.42,56.59h2.75c.08,0,.15,.07,.15,.15,0,.08-.07,.15-.15,.15h-2.9c-.08,0-.15-.07-.15-.15h0v-2.9c0-.08,.07-.15,.15-.15h0c.08,0,.15,.07,.15,.15v2.75Z"/><path class="cls-4" d="M54.05,30.43h-2.75c-.08,0-.15-.07-.15-.15,0-.08,.07-.15,.15-.15h2.9c.08,0,.15,.07,.15,.15h0v2.9c0,.08-.07,.15-.15,.15h0c-.08,0-.15-.07-.15-.15v-2.75Z"/><path class="cls-4" d="M28.42,30.43h2.75c.08,0,.15-.07,.15-.15,0-.08-.07-.15-.15-.15h-2.9c-.08,0-.15,.07-.15,.15h0v2.9c0,.08,.07,.15,.15,.15h0c.08,0,.15-.07,.15-.15v-2.75Z"/></g></g><rect class="cls-11" x="57.61" y="62.07" width="39.45" height="12.95" rx="6.48" ry="6.48"/><path class="cls-10" d="M62.4,65.19c-.89,0-1.74,.35-2.37,.98-.63,.63-.98,1.48-.98,2.37s.35,1.74,.98,2.37c.63,.63,1.48,.98,2.37,.98s1.74-.35,2.37-.98c.63-.63,.98-1.48,.98-2.37,0-.59-.15-1.17-.45-1.68-.29-.51-.72-.93-1.23-1.23-.51-.29-1.09-.45-1.68-.45h0Zm1.24,4.12c.06,.06,.1,.15,.1,.24,0,.09-.03,.18-.1,.24-.06,.06-.15,.1-.24,.1-.09,0-.18-.04-.24-.1l-.77-.77-.77,.77c-.09,.08-.21,.11-.32,.08-.11-.03-.2-.12-.23-.23-.03-.11,0-.24,.08-.32l.77-.77-.77-.77c-.08-.09-.11-.21-.08-.32,.03-.11,.12-.2,.23-.23,.11-.03,.24,0,.32,.08l.77,.77,.77-.77c.09-.08,.21-.11,.32-.08,.11,.03,.2,.12,.23,.23,.03,.11,0,.24-.08,.32l-.77,.77,.77,.77Z"/><rect class="cls-12" x="57.61" y="42.39" width="49.56" height="12.95" rx="6.48" ry="6.48"/><path class="cls-6" d="M62.4,52.22c.89,0,1.74-.35,2.37-.98,.63-.63,.98-1.48,.98-2.37s-.35-1.74-.98-2.37c-.63-.63-1.48-.98-2.37-.98s-1.74,.35-2.37,.98-.98,1.48-.98,2.37,.35,1.74,.98,2.37,1.48,.98,2.37,.98Zm-.42-4.72c0-.15,.08-.29,.21-.36,.13-.07,.29-.07,.42,0,.13,.07,.21,.21,.21,.36v1.47h0c0,.15-.08,.29-.21,.36-.13,.07-.29,.07-.42,0-.13-.07-.21-.21-.21-.36v-1.47Zm.42,2.31c.11,0,.22,.04,.3,.12,.08,.08,.12,.19,.12,.3s-.04,.22-.12,.3c-.08,.08-.19,.12-.3,.12s-.22-.04-.3-.12c-.08-.08-.12-.19-.12-.3s.04-.22,.12-.3c.08-.08,.19-.12,.3-.12Z"/><rect class="cls-9" x="57.61" y="22.72" width="31.48" height="12.95" rx="6.48" ry="6.48"/><path class="cls-8" d="M62.27,32.55c-1.85,0-3.35-1.5-3.35-3.35s1.5-3.35,3.35-3.35,3.35,1.5,3.35,3.35-1.5,3.35-3.35,3.35Zm-.43-2.84l-.75-.75c-.11-.11-.3-.11-.41,0s-.11,.3,0,.41l.96,.96c.11,.11,.3,.11,.41,0l1.64-1.64c.11-.11,.11-.3,0-.41-.11-.11-.3-.11-.41,0l-1.44,1.44Z"/><g><path class="cls-15" d="M68.99,27.72h.62l.43,1.6c.1,.36,.17,.67,.28,1.04h.02c.11-.36,.18-.67,.28-1.04l.45-1.6h.6l-1.01,3.19h-.69l-.97-3.19Z"/><path class="cls-15" d="M71.74,29.72c0-.78,.55-1.26,1.11-1.26,.65,0,1,.47,1,1.14,0,.12,0,.2-.03,.29h-1.51c.06,.4,.31,.63,.69,.63,.2,0,.39-.06,.56-.17l.19,.36c-.22,.17-.52,.25-.83,.25-.66,0-1.18-.46-1.18-1.26Zm1.6-.25c0-.35-.17-.56-.48-.56-.27,0-.51,.19-.56,.56h1.04Z"/><path class="cls-15" d="M74.38,28.51h.47l.04,.43h.02c.18-.31,.43-.49,.68-.49,.12,0,.2,.02,.27,.05l-.12,.49c-.07-.02-.13-.03-.23-.03-.19,0-.42,.13-.56,.49v1.46h-.58v-2.4Z"/><path class="cls-15" d="M76.16,27.78c0-.2,.14-.33,.35-.33s.35,.13,.35,.33-.14,.33-.35,.33-.35-.13-.35-.33Zm.05,.74h.58v2.4h-.58v-2.4Z"/><path class="cls-15" d="M77.6,28.97h-.32v-.43l.32-.03v-.23c0-.5,.23-.87,.8-.87,.18,0,.34,.04,.44,.08l-.12,.42c-.09-.02-.17-.04-.25-.04-.2,0-.3,.13-.3,.4v.24h.46v.46h-.46v1.94h-.58v-1.94Z"/><path class="cls-15" d="M79,27.78c0-.2,.14-.33,.35-.33s.35,.13,.35,.33-.14,.33-.35,.33-.35-.13-.35-.33Zm.05,.74h.58v2.4h-.58v-2.4Z"/><path class="cls-15" d="M80.18,29.72c0-.78,.55-1.26,1.11-1.26,.65,0,1,.47,1,1.14,0,.12,0,.2-.03,.29h-1.51c.06,.4,.31,.63,.69,.63,.21,0,.39-.06,.56-.17l.2,.36c-.22,.17-.52,.25-.83,.25-.66,0-1.18-.46-1.18-1.26Zm1.6-.25c0-.35-.17-.56-.48-.56-.27,0-.51,.19-.56,.56h1.04Z"/><path class="cls-15" d="M82.67,29.72c0-.79,.49-1.26,1.02-1.26,.27,0,.44,.1,.63,.26l-.02-.39v-.86h.58v3.45h-.47l-.04-.26h-.02c-.18,.18-.42,.32-.67,.32-.6,0-.99-.46-.99-1.26Zm1.62,.51v-1.1c-.16-.15-.32-.2-.48-.2-.3,0-.55,.28-.55,.78,0,.52,.2,.79,.54,.79,.18,0,.34-.08,.49-.26Z"/></g><g><path class="cls-16" d="M68.99,67.08h.62l.96,1.76c.12,.22,.22,.47,.33,.72h.02c-.03-.34-.07-.73-.07-1.08v-1.4h.54v3.19h-.62l-.96-1.76c-.12-.22-.22-.47-.33-.72h-.02c.03,.33,.07,.73,.07,1.08v1.4h-.54v-3.19Z"/><path class="cls-16" d="M71.98,69.08c0-.8,.55-1.26,1.15-1.26s1.14,.46,1.14,1.26-.55,1.26-1.14,1.26-1.15-.46-1.15-1.26Zm1.7,0c0-.48-.2-.79-.55-.79s-.55,.31-.55,.79,.21,.79,.55,.79,.55-.31,.55-.79Z"/><path class="cls-16" d="M74.79,69.46v-1.13h-.34v-.43l.37-.03,.07-.75h.48v.75h.61v.46h-.61v1.13c0,.28,.11,.42,.34,.42,.08,0,.17-.02,.25-.05l.1,.41c-.13,.06-.3,.1-.5,.1-.56,0-.77-.35-.77-.87Z"/><path class="cls-16" d="M77.08,67.08h.61l.43,1.6c.1,.36,.17,.67,.28,1.04h.02c.11-.36,.18-.67,.28-1.04l.45-1.6h.6l-1.01,3.19h-.69l-.97-3.19Z"/><path class="cls-16" d="M79.84,69.07c0-.78,.55-1.26,1.11-1.26,.65,0,1,.47,1,1.14,0,.12,0,.2-.03,.29h-1.51c.06,.4,.31,.63,.69,.63,.2,0,.39-.06,.56-.17l.19,.36c-.22,.17-.52,.25-.83,.25-.66,0-1.18-.46-1.18-1.26Zm1.6-.25c0-.35-.17-.56-.48-.56-.27,0-.51,.19-.56,.56h1.04Z"/><path class="cls-16" d="M82.47,67.87h.47l.04,.43h.02c.18-.31,.43-.49,.68-.49,.12,0,.2,.02,.27,.05l-.12,.49c-.07-.02-.13-.03-.23-.03-.19,0-.42,.13-.56,.49v1.46h-.58v-2.4Z"/><path class="cls-16" d="M84.25,67.13c0-.2,.14-.33,.35-.33s.35,.13,.35,.33-.14,.33-.35,.33-.35-.13-.35-.33Zm.05,.74h.58v2.4h-.58v-2.4Z"/><path class="cls-16" d="M85.69,68.33h-.32v-.43l.32-.03v-.23c0-.5,.23-.87,.8-.87,.18,0,.34,.04,.45,.08l-.12,.42c-.09-.02-.17-.04-.25-.04-.2,0-.3,.13-.3,.4v.24h.46v.46h-.46v1.94h-.58v-1.94Z"/><path class="cls-16" d="M87.09,67.13c0-.2,.14-.33,.35-.33s.35,.13,.35,.33-.14,.33-.35,.33-.35-.13-.35-.33Zm.05,.74h.58v2.4h-.58v-2.4Z"/><path class="cls-16" d="M88.27,69.07c0-.78,.55-1.26,1.11-1.26,.65,0,1,.47,1,1.14,0,.12,0,.2-.03,.29h-1.51c.06,.4,.31,.63,.69,.63,.2,0,.39-.06,.56-.17l.19,.36c-.22,.17-.52,.25-.83,.25-.66,0-1.18-.46-1.18-1.26Zm1.6-.25c0-.35-.17-.56-.48-.56-.27,0-.51,.19-.56,.56h1.04Z"/><path class="cls-16" d="M90.77,69.08c0-.79,.49-1.26,1.02-1.26,.27,0,.44,.1,.63,.26l-.02-.39v-.86h.58v3.45h-.47l-.04-.26h-.02c-.18,.18-.42,.32-.67,.32-.6,0-.99-.46-.99-1.26Zm1.62,.51v-1.1c-.16-.15-.32-.2-.48-.2-.3,0-.55,.28-.55,.78,0,.52,.19,.79,.54,.79,.18,0,.34-.08,.49-.26Z"/></g><g><path class="cls-14" d="M68.99,46.94h1.01c.71,0,1.24,.25,1.24,.99s-.53,1.04-1.22,1.04h-.45v1.17h-.58v-3.19Zm.99,1.56c.47,0,.69-.19,.69-.57s-.24-.53-.71-.53h-.39v1.1h.41Z"/><path class="cls-14" d="M71.46,49.49c0-.53,.42-.79,1.41-.9-.01-.24-.11-.45-.43-.45-.23,0-.46,.1-.67,.22l-.2-.38c.26-.17,.61-.31,.99-.31,.6,0,.9,.37,.9,1.04v1.42h-.47l-.05-.26h-.02c-.22,.19-.45,.32-.73,.32-.42,0-.71-.28-.71-.7Zm1.41,0v-.51c-.65,.08-.85,.22-.85,.47,0,.2,.14,.28,.33,.28s.34-.08,.52-.24Z"/><path class="cls-14" d="M74.11,47.73h.47l.04,.43h.02c.18-.31,.43-.49,.68-.49,.12,0,.2,.02,.27,.05l-.12,.49c-.07-.02-.13-.03-.23-.03-.19,0-.42,.13-.56,.49v1.46h-.58v-2.4Z"/><path class="cls-14" d="M76.03,49.32v-1.13h-.34v-.43l.37-.03,.07-.75h.48v.75h.61v.46h-.61v1.13c0,.28,.11,.42,.34,.42,.08,0,.17-.02,.25-.05l.1,.41c-.13,.06-.3,.1-.5,.1-.56,0-.77-.35-.77-.87Z"/><path class="cls-14" d="M77.66,46.99c0-.2,.14-.33,.35-.33s.35,.13,.35,.33-.14,.33-.35,.33-.35-.13-.35-.33Zm.05,.74h.58v2.4h-.58v-2.4Z"/><path class="cls-14" d="M78.87,49.49c0-.53,.42-.79,1.41-.9-.01-.24-.11-.45-.43-.45-.23,0-.46,.1-.67,.22l-.2-.38c.26-.17,.61-.31,.99-.31,.6,0,.9,.37,.9,1.04v1.42h-.47l-.05-.26h-.02c-.22,.19-.45,.32-.73,.32-.42,0-.71-.28-.71-.7Zm1.41,0v-.51c-.65,.08-.85,.22-.85,.47,0,.2,.14,.28,.33,.28s.34-.08,.52-.24Z"/><path class="cls-14" d="M81.52,49.5v-2.82h.58v2.85c0,.14,.06,.19,.12,.19,.03,0,.05,0,.09,0l.07,.43c-.07,.03-.17,.05-.3,.05-.41,0-.56-.26-.56-.69Z"/><path class="cls-14" d="M82.84,49.5v-2.82h.58v2.85c0,.14,.06,.19,.12,.19,.03,0,.05,0,.09,0l.07,.43c-.07,.03-.17,.05-.3,.05-.41,0-.56-.26-.56-.69Z"/><path class="cls-14" d="M84.02,51.06l.11-.43c.07,.02,.11,.02,.17,.02,.25,0,.4-.17,.47-.4l.04-.15-.94-2.37h.59l.41,1.17c.07,.21,.14,.45,.21,.68h.02c.06-.22,.12-.46,.18-.68l.35-1.17h.56l-.87,2.51c-.2,.55-.45,.88-.98,.88-.13,0-.22-.02-.32-.05Z"/><path class="cls-14" d="M87.2,46.94h.62l.43,1.6c.1,.36,.17,.67,.28,1.04h.02c.11-.36,.18-.67,.28-1.04l.45-1.6h.6l-1.01,3.19h-.69l-.97-3.19Z"/><path class="cls-14" d="M89.96,48.93c0-.78,.55-1.26,1.11-1.26,.65,0,1,.47,1,1.14,0,.12,0,.2-.03,.29h-1.51c.06,.4,.31,.63,.69,.63,.2,0,.39-.06,.56-.17l.19,.36c-.22,.17-.52,.25-.83,.25-.66,0-1.18-.46-1.18-1.26Zm1.6-.25c0-.35-.17-.56-.48-.56-.27,0-.51,.19-.56,.56h1.04Z"/><path class="cls-14" d="M92.59,47.73h.47l.04,.43h.02c.18-.31,.43-.49,.68-.49,.12,0,.2,.02,.27,.05l-.12,.49c-.07-.02-.13-.03-.23-.03-.19,0-.42,.13-.56,.49v1.46h-.58v-2.4Z"/><path class="cls-14" d="M94.37,46.99c0-.2,.14-.33,.35-.33s.35,.13,.35,.33-.14,.33-.35,.33-.35-.13-.35-.33Zm.05,.74h.58v2.4h-.58v-2.4Z"/><path class="cls-14" d="M95.81,48.19h-.32v-.43l.32-.03v-.23c0-.5,.23-.87,.8-.87,.18,0,.34,.04,.44,.08l-.12,.42c-.09-.02-.17-.04-.25-.04-.2,0-.3,.13-.3,.4v.24h.46v.46h-.46v1.94h-.58v-1.94Z"/><path class="cls-14" d="M97.21,46.99c0-.2,.14-.33,.35-.33s.35,.13,.35,.33-.14,.33-.35,.33-.35-.13-.35-.33Zm.05,.74h.58v2.4h-.58v-2.4Z"/><path class="cls-14" d="M98.4,48.93c0-.78,.55-1.26,1.11-1.26,.65,0,1,.47,1,1.14,0,.12,0,.2-.03,.29h-1.51c.06,.4,.31,.63,.69,.63,.21,0,.39-.06,.56-.17l.2,.36c-.22,.17-.52,.25-.83,.25-.66,0-1.18-.46-1.18-1.26Zm1.6-.25c0-.35-.17-.56-.48-.56-.27,0-.51,.19-.56,.56h1.04Z"/><path class="cls-14" d="M100.89,48.94c0-.79,.49-1.26,1.02-1.26,.27,0,.44,.1,.63,.26l-.02-.39v-.86h.58v3.45h-.47l-.04-.26h-.02c-.18,.18-.42,.32-.67,.32-.6,0-.99-.46-.99-1.26Zm1.62,.51v-1.1c-.16-.15-.32-.2-.48-.2-.3,0-.55,.28-.55,.78,0,.52,.2,.79,.54,.79,.18,0,.34-.08,.49-.26Z"/></g></g><path class="cls-3" d="M29.23,93.57s4.99,14.32,20.09,19.1l6.97,7"/><g><path class="cls-5" d="M35.2,31.96h-5.48v7.7h7.68v-7.7h-2.2Zm1.1,2.2v4.4h-5.48v-5.5h5.48v1.1h0Z"/><path class="cls-5" d="M51.65,31.96h-6.58v7.7h7.68v-7.7h-1.1Zm0,2.2v4.4h-5.49v-5.5h5.49v1.1h0Z"/><polygon class="cls-5" points="33 34.16 31.91 34.16 31.91 35.26 31.91 36.36 31.91 37.46 33 37.46 34.1 37.46 35.2 37.46 35.2 36.36 35.2 35.26 35.2 34.16 34.1 34.16 33 34.16 33 34.16 33 34.16"/><polygon class="cls-5" points="41.78 35.26 42.87 35.26 42.87 34.16 42.87 33.06 43.97 33.06 43.97 31.96 42.87 31.96 41.78 31.96 40.68 31.96 40.68 33.06 40.68 34.16 41.78 34.16 41.78 35.26 41.78 35.26 41.78 35.26"/><polygon class="cls-5" points="48.36 34.16 47.26 34.16 47.26 35.26 47.26 36.36 47.26 37.46 48.36 37.46 49.46 37.46 50.55 37.46 50.55 36.36 50.55 35.26 50.55 34.16 49.46 34.16 48.36 34.16 48.36 34.16 48.36 34.16"/><polygon class="cls-5" points="40.68 36.36 40.68 35.26 40.68 34.16 39.59 34.16 38.49 34.16 38.49 35.26 38.49 36.36 38.49 37.46 39.59 37.46 39.59 36.36 40.68 36.36 40.68 36.36 40.68 36.36"/><polygon class="cls-5" points="42.87 35.26 43.97 35.26 43.97 36.36 42.87 36.36 42.87 35.26 42.87 35.26"/><polygon class="cls-5" points="38.49 38.56 39.59 38.56 39.59 39.66 38.49 39.66 38.49 38.56 38.49 38.56"/><polygon class="cls-5" points="36.29 40.76 37.39 40.76 37.39 41.86 36.29 41.86 36.29 40.76 36.29 40.76"/><polygon class="cls-5" points="50.55 40.76 49.46 40.76 48.36 40.76 47.26 40.76 47.26 41.86 48.36 41.86 48.36 42.95 48.36 44.05 48.36 45.16 48.36 46.25 48.36 47.35 49.46 47.35 49.46 46.25 50.55 46.25 50.55 47.35 51.65 47.35 52.75 47.35 52.75 46.25 51.65 46.25 51.65 45.16 50.55 45.16 49.46 45.16 49.46 44.05 49.46 42.95 50.55 42.95 50.55 44.05 51.65 44.05 51.65 42.95 51.65 41.86 50.55 41.86 50.55 40.76 50.55 40.76 50.55 40.76"/><polygon class="cls-5" points="51.65 40.76 52.74 40.76 52.74 41.86 51.65 41.86 51.65 40.76 51.65 40.76"/><polygon class="cls-5" points="33 42.95 34.1 42.95 34.1 41.86 34.1 40.76 33 40.76 31.91 40.76 30.81 40.76 29.71 40.76 29.71 41.86 30.81 41.86 30.81 42.95 31.91 42.95 33 42.95 33 42.95 33 42.95"/><polygon class="cls-5" points="45.07 41.86 45.07 40.76 43.97 40.76 43.97 39.66 43.97 38.56 43.97 37.46 42.87 37.46 42.87 36.36 41.78 36.36 41.78 37.46 40.68 37.46 39.59 37.46 39.59 38.56 40.68 38.56 40.68 39.66 41.78 39.66 41.78 38.56 42.87 38.56 42.87 39.66 41.78 39.66 41.78 40.76 40.68 40.76 39.59 40.76 38.49 40.76 38.49 41.86 39.59 41.86 39.59 42.95 40.68 42.95 40.68 41.86 41.78 41.86 41.78 42.95 41.78 44.05 40.68 44.05 39.59 44.05 39.59 45.16 39.59 46.25 40.68 46.25 40.68 47.35 41.78 47.35 41.78 48.45 42.87 48.45 43.97 48.45 43.97 47.35 42.87 47.35 42.87 46.25 41.78 46.25 41.78 45.16 42.87 45.16 42.87 44.05 42.87 42.95 43.97 42.95 45.07 42.95 46.17 42.95 47.26 42.95 47.26 41.86 46.17 41.86 45.07 41.86 45.07 41.86 45.07 41.86"/><polygon class="cls-5" points="29.71 42.95 30.81 42.95 30.81 44.05 29.71 44.05 29.71 42.95 29.71 42.95"/><polygon class="cls-5" points="36.29 42.95 37.39 42.95 37.39 44.05 36.29 44.05 36.29 42.95 36.29 42.95"/><polygon class="cls-5" points="38.49 42.95 38.49 41.86 37.39 41.86 37.39 42.95 37.39 44.05 38.49 44.05 39.59 44.05 39.59 42.95 38.49 42.95 38.49 42.95 38.49 42.95"/><polygon class="cls-5" points="34.1 44.05 33 44.05 33 45.16 31.91 45.16 31.91 44.05 30.81 44.05 30.81 45.16 30.81 46.25 31.91 46.25 33 46.25 34.1 46.25 34.1 45.16 35.2 45.16 35.2 46.25 36.29 46.25 37.39 46.25 37.39 45.16 36.29 45.16 36.29 44.05 35.2 44.05 34.1 44.05 34.1 44.05 34.1 44.05"/><polygon class="cls-5" points="51.65 44.05 52.74 44.05 52.74 45.15 51.65 45.15 51.65 44.05 51.65 44.05"/><polygon class="cls-5" points="42.87 45.16 43.97 45.16 43.97 46.25 42.87 46.25 42.87 45.16 42.87 45.16"/><polygon class="cls-5" points="47.26 46.25 47.26 45.16 47.26 44.05 46.17 44.05 45.07 44.05 45.07 45.16 46.17 45.16 46.17 46.25 47.26 46.25 47.26 46.25 47.26 46.25"/><polygon class="cls-5" points="38.49 46.25 39.59 46.25 39.59 47.35 38.49 47.35 38.49 46.25 38.49 46.25"/><polygon class="cls-5" points="45.07 46.25 46.17 46.25 46.17 47.35 45.07 47.35 45.07 46.25 45.07 46.25"/><path class="cls-5" d="M35.2,47.35h-5.48v5.5h0v2.2h7.68v-2.2h0v-5.5h-2.2Zm1.1,2.2v3.3h0v1.11h-5.48v-1.1h0v-4.41h5.48v1.1h0Z"/><polygon class="cls-5" points="39.59 47.35 40.68 47.35 40.68 48.45 39.59 48.45 39.59 47.35 39.59 47.35"/><polygon class="cls-5" points="49.46 48.45 48.36 48.45 47.26 48.45 46.17 48.45 46.17 49.55 47.26 49.55 47.26 50.65 48.36 50.65 48.36 49.55 49.46 49.55 49.46 48.45 49.46 48.45 49.46 48.45"/><polygon class="cls-5" points="33 49.55 31.91 49.55 31.91 50.65 31.91 51.75 31.91 52.85 33 52.85 34.1 52.85 35.2 52.85 35.2 51.75 35.2 50.65 35.2 49.55 34.1 49.55 33 49.55 33 49.55 33 49.55"/><polygon class="cls-5" points="46.17 49.55 45.07 49.55 43.97 49.55 42.87 49.55 42.87 50.65 43.97 50.65 45.07 50.65 45.07 51.75 45.07 52.85 43.97 52.85 43.97 51.75 42.87 51.75 42.87 52.85 43.97 52.85 43.97 53.95 43.97 55.05 45.07 55.05 45.07 53.95 45.07 52.85 46.17 52.85 46.17 51.75 47.26 51.75 47.26 50.65 46.17 50.65 46.17 49.55 46.17 49.55 46.17 49.55"/><polygon class="cls-5" points="41.78 50.65 42.87 50.65 42.87 51.75 41.78 51.75 41.78 50.65 41.78 50.65"/><polygon class="cls-5" points="40.68 52.85 39.59 52.85 39.59 51.75 40.68 51.75 40.68 50.65 40.68 49.55 39.59 49.55 39.59 50.65 38.49 50.65 38.49 51.75 38.49 52.85 38.49 52.85 38.49 53.95 38.49 55.05 39.59 55.05 39.59 53.95 40.68 53.95 40.68 52.85 41.78 52.85 41.78 51.75 40.68 51.75 40.68 52.85 40.68 52.85 40.68 52.85"/><polygon class="cls-5" points="49.46 51.75 50.55 51.75 50.55 52.85 49.46 52.85 49.46 51.75 49.46 51.75"/><polygon class="cls-5" points="47.26 52.85 47.26 53.95 48.36 53.95 48.36 52.85 48.36 52.85 48.36 51.75 47.26 51.75 47.26 52.85 47.26 52.85 47.26 52.85 47.26 52.85"/><polygon class="cls-5" points="40.68 53.95 41.78 53.95 41.78 55.05 40.68 55.05 40.68 53.95 40.68 53.95"/><polygon class="cls-5" points="46.17 53.95 47.26 53.95 47.26 55.05 46.17 55.05 46.17 53.95 46.17 53.95"/><polygon class="cls-5" points="50.55 53.95 51.65 53.95 51.65 55.05 50.55 55.05 50.55 53.95 50.55 53.95"/></g><g><path class="cls-4" d="M54.05,56.59h-2.75c-.08,0-.15,.07-.15,.15,0,.08,.07,.15,.15,.15h2.9c.08,0,.15-.07,.15-.15h0v-2.9c0-.08-.07-.15-.15-.15h0c-.08,0-.15,.07-.15,.15v2.75Z"/><path class="cls-4" d="M28.42,56.59h2.75c.08,0,.15,.07,.15,.15,0,.08-.07,.15-.15,.15h-2.9c-.08,0-.15-.07-.15-.15h0v-2.9c0-.08,.07-.15,.15-.15h0c.08,0,.15,.07,.15,.15v2.75Z"/><path class="cls-4" d="M54.05,30.43h-2.75c-.08,0-.15-.07-.15-.15,0-.08,.07-.15,.15-.15h2.9c.08,0,.15,.07,.15,.15h0v2.9c0,.08-.07,.15-.15,.15h0c-.08,0-.15-.07-.15-.15v-2.75Z"/><path class="cls-4" d="M28.42,30.43h2.75c.08,0,.15-.07,.15-.15,0-.08-.07-.15-.15-.15h-2.9c-.08,0-.15,.07-.15,.15h0v2.9c0,.08,.07,.15,.15,.15h0c.08,0,.15-.07,.15-.15v-2.75Z"/></g><rect class="cls-13" x="57.61" y="42.39" width="49.56" height="12.95" rx="6.48" ry="6.48"/><path class="cls-6" d="M62.4,52.22c.89,0,1.74-.35,2.37-.98,.63-.63,.98-1.48,.98-2.37s-.35-1.74-.98-2.37c-.63-.63-1.48-.98-2.37-.98s-1.74,.35-2.37,.98-.98,1.48-.98,2.37,.35,1.74,.98,2.37,1.48,.98,2.37,.98Zm-.42-4.72c0-.15,.08-.29,.21-.36,.13-.07,.29-.07,.42,0,.13,.07,.21,.21,.21,.36v1.47h0c0,.15-.08,.29-.21,.36-.13,.07-.29,.07-.42,0-.13-.07-.21-.21-.21-.36v-1.47Zm.42,2.31c.11,0,.22,.04,.3,.12,.08,.08,.12,.19,.12,.3s-.04,.22-.12,.3c-.08,.08-.19,.12-.3,.12s-.22-.04-.3-.12c-.08-.08-.12-.19-.12-.3s.04-.22,.12-.3c.08-.08,.19-.12,.3-.12Z"/><path class="cls-14" d="M68.98,46.94h1.01c.71,0,1.24,.25,1.24,.99s-.53,1.04-1.22,1.04h-.45v1.17h-.58v-3.19Zm.99,1.56c.47,0,.69-.19,.69-.57s-.24-.53-.71-.53h-.39v1.1h.41Z"/><path class="cls-14" d="M71.46,49.49c0-.53,.42-.79,1.41-.9-.01-.24-.11-.45-.43-.45-.23,0-.46,.1-.67,.22l-.2-.38c.26-.17,.61-.31,.99-.31,.6,0,.9,.37,.9,1.04v1.42h-.47l-.05-.26h-.02c-.22,.19-.45,.32-.73,.32-.42,0-.71-.28-.71-.7Zm1.41,0v-.51c-.65,.08-.85,.22-.85,.47,0,.2,.14,.28,.33,.28s.34-.08,.52-.24Z"/><path class="cls-14" d="M74.11,47.73h.47l.04,.43h.02c.18-.31,.43-.49,.68-.49,.12,0,.2,.02,.27,.05l-.12,.49c-.07-.02-.13-.03-.23-.03-.19,0-.42,.13-.56,.49v1.46h-.58v-2.4Z"/><path class="cls-14" d="M76.03,49.32v-1.13h-.34v-.43l.37-.03,.07-.75h.48v.75h.61v.46h-.61v1.13c0,.28,.11,.42,.34,.42,.08,0,.17-.02,.25-.05l.1,.41c-.13,.06-.3,.1-.5,.1-.56,0-.77-.35-.77-.87Z"/><path class="cls-14" d="M77.66,46.99c0-.2,.14-.33,.35-.33s.35,.13,.35,.33-.14,.33-.35,.33-.35-.13-.35-.33Zm.05,.74h.58v2.4h-.58v-2.4Z"/><path class="cls-14" d="M78.87,49.49c0-.53,.42-.79,1.41-.9-.01-.24-.11-.45-.43-.45-.23,0-.46,.1-.67,.22l-.2-.38c.26-.17,.61-.31,.99-.31,.6,0,.9,.37,.9,1.04v1.42h-.47l-.05-.26h-.02c-.22,.19-.45,.32-.73,.32-.42,0-.71-.28-.71-.7Zm1.41,0v-.51c-.65,.08-.85,.22-.85,.47,0,.2,.14,.28,.33,.28s.34-.08,.52-.24Z"/><path class="cls-14" d="M81.52,49.5v-2.82h.58v2.85c0,.14,.06,.19,.12,.19,.03,0,.05,0,.09,0l.07,.43c-.07,.03-.17,.05-.3,.05-.41,0-.56-.26-.56-.69Z"/><path class="cls-14" d="M82.84,49.5v-2.82h.58v2.85c0,.14,.06,.19,.12,.19,.03,0,.05,0,.09,0l.07,.43c-.07,.03-.17,.05-.3,.05-.41,0-.56-.26-.56-.69Z"/><path class="cls-14" d="M84.02,51.06l.11-.43c.07,.02,.11,.02,.17,.02,.25,0,.4-.17,.47-.4l.04-.15-.94-2.37h.59l.41,1.17c.07,.21,.14,.45,.21,.68h.02c.06-.22,.12-.46,.18-.68l.35-1.17h.56l-.87,2.51c-.2,.55-.45,.88-.98,.88-.13,0-.22-.02-.32-.05Z"/><path class="cls-14" d="M87.2,46.94h.62l.43,1.6c.1,.36,.17,.67,.28,1.04h.02c.11-.36,.18-.67,.28-1.04l.45-1.6h.6l-1.01,3.19h-.69l-.97-3.19Z"/><path class="cls-14" d="M89.96,48.93c0-.78,.55-1.26,1.11-1.26,.65,0,1,.47,1,1.14,0,.12,0,.2-.03,.29h-1.51c.06,.4,.31,.63,.69,.63,.2,0,.39-.06,.56-.17l.19,.36c-.22,.17-.52,.25-.83,.25-.66,0-1.18-.46-1.18-1.26Zm1.6-.25c0-.35-.17-.56-.48-.56-.27,0-.51,.19-.56,.56h1.04Z"/><path class="cls-14" d="M92.59,47.73h.47l.04,.43h.02c.18-.31,.43-.49,.68-.49,.12,0,.2,.02,.27,.05l-.12,.49c-.07-.02-.13-.03-.23-.03-.19,0-.42,.13-.56,.49v1.46h-.58v-2.4Z"/><path class="cls-14" d="M94.37,46.99c0-.2,.14-.33,.35-.33s.35,.13,.35,.33-.14,.33-.35,.33-.35-.13-.35-.33Zm.05,.74h.58v2.4h-.58v-2.4Z"/><path class="cls-14" d="M95.81,48.19h-.32v-.43l.32-.03v-.23c0-.5,.23-.87,.8-.87,.18,0,.34,.04,.44,.08l-.12,.42c-.09-.02-.17-.04-.25-.04-.2,0-.3,.13-.3,.4v.24h.46v.46h-.46v1.94h-.58v-1.94Z"/><path class="cls-14" d="M97.21,46.99c0-.2,.14-.33,.35-.33s.35,.13,.35,.33-.14,.33-.35,.33-.35-.13-.35-.33Zm.05,.74h.58v2.4h-.58v-2.4Z"/><path class="cls-14" d="M98.39,48.93c0-.78,.55-1.26,1.11-1.26,.65,0,1,.47,1,1.14,0,.12,0,.2-.03,.29h-1.51c.06,.4,.31,.63,.69,.63,.21,0,.39-.06,.56-.17l.2,.36c-.22,.17-.52,.25-.83,.25-.66,0-1.18-.46-1.18-1.26Zm1.6-.25c0-.35-.17-.56-.48-.56-.27,0-.51,.19-.56,.56h1.04Z"/><path class="cls-14" d="M100.89,48.94c0-.79,.49-1.26,1.02-1.26,.27,0,.44,.1,.63,.26l-.02-.39v-.86h.58v3.45h-.47l-.04-.26h-.02c-.18,.18-.42,.32-.67,.32-.6,0-.99-.46-.99-1.26Zm1.62,.51v-1.1c-.16-.15-.32-.2-.48-.2-.3,0-.55,.28-.55,.78,0,.52,.2,.79,.54,.79,.18,0,.34-.08,.49-.26Z"/><rect class="cls-7" x="37.82" y="3.79" width="10.12" height="2.17" rx=".57" ry=".57"/><rect class="cls-3" x="3.72" y="66.15" width="22.08" height="10.76" rx="5.38" ry="5.38" transform="translate(40.56 3.2) rotate(32.34)"/><rect class="cls-3" x="6.05" y="78.26" width="15.6" height="9.61" rx="4.8" ry="4.8" transform="translate(46.59 5.48) rotate(32.34)"/><rect class="cls-3" x="4.18" y="52.38" width="22.53" height="12.02" rx="6.01" ry="6.01" transform="translate(33.6 .78) rotate(32.31)"/><path d="M23.37,18.16l.21-.25c.15,.15,.36,.23,.56,.23,.23,0,.36-.11,.36-.27s-.14-.22-.33-.3l-.29-.13c-.21-.09-.43-.25-.43-.56,0-.34,.3-.6,.71-.6,.25,0,.49,.1,.65,.26l-.21,.25c-.13-.11-.29-.18-.45-.18-.2,0-.32,.09-.32,.24,0,.16,.16,.22,.33,.29l.28,.12c.25,.11,.43,.26,.43,.57,0,.34-.28,.63-.76,.63-.29,0-.56-.11-.76-.31Z"/><path d="M25.13,17.64c0-.53,.37-.83,.8-.83,.2,0,.35,.07,.46,.18l-.18,.24c-.08-.07-.16-.1-.26-.1-.25,0-.43,.21-.43,.52s.17,.52,.41,.52c.13,0,.23-.05,.33-.13l.15,.24c-.15,.13-.34,.19-.52,.19-.43,0-.77-.3-.77-.83Z"/><path d="M26.6,18c0-.35,.28-.52,.93-.59,0-.16-.07-.3-.28-.3-.15,0-.3,.06-.44,.15l-.14-.25c.17-.11,.4-.21,.65-.21,.39,0,.59,.24,.59,.69v.94h-.31l-.03-.17h-.01c-.14,.12-.3,.21-.48,.21-.28,0-.47-.19-.47-.46Zm.93,0v-.33c-.43,.05-.56,.15-.56,.31,0,.14,.09,.19,.22,.19s.22-.05,.34-.16Z"/><path d="M28.35,16.84h.31l.03,.21h.01c.14-.14,.3-.25,.52-.25,.34,0,.49,.23,.49,.63v.99h-.38v-.94c0-.26-.07-.35-.24-.35-.14,0-.23,.06-.35,.19v1.1h-.38v-1.58Z"/><path d="M30.15,16.84h.31l.03,.21h.01c.14-.14,.3-.25,.52-.25,.34,0,.49,.23,.49,.63v.99h-.38v-.94c0-.26-.07-.35-.24-.35-.14,0-.23,.06-.35,.19v1.1h-.38v-1.58Z"/><path d="M31.92,16.36c0-.13,.09-.22,.23-.22s.23,.09,.23,.22-.09,.22-.23,.22-.23-.09-.23-.22Zm.04,.49h.38v1.58h-.38v-1.58Z"/><path d="M32.8,16.84h.31l.03,.21h.01c.14-.14,.3-.25,.52-.25,.34,0,.49,.23,.49,.63v.99h-.38v-.94c0-.26-.07-.35-.24-.35-.14,0-.23,.06-.35,.19v1.1h-.38v-1.58Z"/><path d="M34.5,18.71c0-.14,.08-.25,.23-.34h0c-.08-.06-.15-.15-.15-.28s.08-.23,.18-.29h0c-.11-.09-.21-.24-.21-.43,0-.36,.3-.57,.63-.57,.09,0,.17,.02,.23,.04h.57v.28h-.28c.05,.06,.09,.15,.09,.26,0,.35-.27,.54-.61,.54-.07,0-.14-.01-.21-.04-.05,.04-.07,.08-.07,.15,0,.09,.06,.14,.25,.14h.28c.38,0,.58,.12,.58,.39,0,.31-.33,.56-.85,.56-.38,0-.66-.14-.66-.41Zm1.14-.09c0-.12-.1-.15-.27-.15h-.21c-.09,0-.15,0-.22-.02-.08,.06-.12,.13-.12,.21,0,.14,.15,.22,.4,.22s.42-.12,.42-.25Zm-.19-1.25c0-.2-.12-.31-.27-.31s-.27,.11-.27,.31,.12,.31,.27,.31,.27-.11,.27-.31Z"/><path d="M36.95,16.14h.26l-.74,2.8h-.25l.74-2.8Z"/><path d="M37.26,16.32h.41l.28,1.05c.06,.24,.11,.44,.18,.68h.01c.07-.24,.12-.44,.18-.68l.3-1.05h.39l-.66,2.11h-.45l-.64-2.11Z"/><path d="M39.08,17.64c0-.52,.36-.83,.73-.83,.43,0,.66,.31,.66,.75,0,.08,0,.14-.02,.19h-1c.04,.26,.21,.42,.46,.42,.14,0,.26-.04,.37-.11l.13,.24c-.15,.11-.34,.17-.55,.17-.44,0-.78-.3-.78-.83Zm1.06-.17c0-.23-.11-.37-.32-.37-.18,0-.33,.13-.37,.37h.68Z"/><path d="M40.81,16.84h.31l.03,.28h.01c.12-.21,.28-.32,.45-.32,.08,0,.13,.01,.18,.03l-.08,.33s-.09-.02-.15-.02c-.13,0-.28,.08-.37,.33v.96h-.38v-1.58Z"/><path d="M41.99,16.36c0-.13,.09-.22,.23-.22s.23,.09,.23,.22-.09,.22-.23,.22-.23-.09-.23-.22Zm.04,.49h.38v1.58h-.38v-1.58Z"/><path d="M42.94,17.15h-.21v-.28l.21-.02v-.15c0-.33,.15-.57,.53-.57,.12,0,.23,.03,.29,.05l-.08,.27c-.06-.02-.11-.03-.16-.03-.13,0-.2,.08-.2,.26v.16h.31v.3h-.31v1.28h-.38v-1.28Z"/><path d="M43.86,16.36c0-.13,.09-.22,.23-.22s.23,.09,.23,.22-.09,.22-.23,.22-.23-.09-.23-.22Zm.04,.49h.38v1.58h-.38v-1.58Z"/><path d="M44.64,17.64c0-.53,.37-.83,.8-.83,.2,0,.35,.07,.46,.18l-.18,.24c-.08-.07-.16-.1-.26-.1-.25,0-.43,.21-.43,.52s.17,.52,.41,.52c.13,0,.23-.05,.33-.13l.15,.24c-.15,.13-.34,.19-.52,.19-.43,0-.77-.3-.77-.83Z"/><path d="M46.11,18c0-.35,.28-.52,.93-.59,0-.16-.07-.3-.28-.3-.15,0-.3,.06-.44,.15l-.14-.25c.17-.11,.4-.21,.65-.21,.39,0,.59,.24,.59,.69v.94h-.31l-.03-.17h-.01c-.14,.12-.3,.21-.48,.21-.28,0-.47-.19-.47-.46Zm.93,0v-.33c-.43,.05-.56,.15-.56,.31,0,.14,.09,.19,.22,.19s.23-.05,.34-.16Z"/><path d="M47.86,17.89v-.74h-.23v-.28l.24-.02,.05-.49h.32v.49h.4v.3h-.4v.74c0,.18,.07,.27,.22,.27,.05,0,.11,0,.16-.03l.07,.27c-.08,.04-.2,.07-.33,.07-.37,0-.51-.23-.51-.58Z"/><path d="M48.93,16.36c0-.13,.09-.22,.23-.22s.23,.09,.23,.22-.09,.22-.23,.22-.23-.09-.23-.22Zm.04,.49h.38v1.58h-.38v-1.58Z"/><path d="M49.71,17.64c0-.53,.36-.83,.76-.83s.75,.31,.75,.83-.36,.83-.75,.83-.76-.3-.76-.83Zm1.12,0c0-.32-.14-.52-.36-.52s-.36,.21-.36,.52,.14,.52,.36,.52,.36-.21,.36-.52Z"/><path d="M51.58,16.84h.31l.03,.21h.01c.14-.14,.3-.25,.52-.25,.34,0,.49,.23,.49,.63v.99h-.38v-.94c0-.26-.07-.35-.24-.35-.14,0-.23,.06-.35,.19v1.1h-.38v-1.58Z"/><path d="M54.47,16.32h.45l.68,2.11h-.41l-.16-.56h-.7l-.16,.56h-.39l.68-2.11Zm-.05,1.24h.53l-.07-.25c-.07-.22-.13-.46-.19-.69h-.01c-.05,.23-.12,.47-.18,.69l-.07,.25Z"/><path d="M55.83,16.84h.31l.03,.17h.01c.14-.11,.3-.21,.48-.21,.39,0,.62,.32,.62,.81,0,.54-.32,.85-.67,.85-.14,0-.28-.06-.41-.17v.76h-.37v-2.2Zm1.06,.77c0-.31-.1-.5-.34-.5-.11,0-.22,.05-.34,.17v.73c.11,.09,.22,.13,.31,.13,.21,0,.37-.18,.37-.53Z"/><path d="M57.65,16.84h.31l.03,.17h.01c.14-.11,.3-.21,.48-.21,.39,0,.62,.32,.62,.81,0,.54-.32,.85-.67,.85-.14,0-.28-.06-.41-.17v.76h-.37v-2.2Zm1.06,.77c0-.31-.1-.5-.34-.5-.11,0-.22,.05-.34,.17v.73c.11,.09,.22,.13,.31,.13,.21,0,.37-.18,.37-.53Z"/><circle class="cls-2" cx="41.23" cy="85.94" r="3.83"/></g></svg>