<?xml version="1.0" encoding="UTF-8"?><svg id="Layer_2" xmlns="http://www.w3.org/2000/svg" viewBox="0 0 143.11 123.62"><defs><style>.cls-1{fill:#6ebcbc;}.cls-2,.cls-3,.cls-4{fill:#fff;}.cls-5{fill:#013939;}.cls-6{fill:#003939;}.cls-3{stroke-width:.25px;}.cls-3,.cls-7,.cls-4{stroke:#023939;stroke-miterlimit:10;}.cls-8,.cls-7{fill:#023939;}.cls-7{stroke-width:.5px;}.cls-9{opacity:.26;}.cls-10{fill:#ffc649;}.cls-4{stroke-width:.75px;}.cls-11{fill:#f1f1f1;}.cls-12{fill:#f2f2f2;}</style></defs><g id="Layer_1-2"><g><g><path class="cls-2" d="M11.76,117.44s-2.79-23.58-2.03-25.9c.67-2.06,5.52-10.58,6.04-11.34,.25-.37,2.87-3.38,5.18-2.2s3.92,2.41,3.92,2.41l-1.79,3.25-3.77,3.9,3.06,4.55,3.46,21.48"/><path class="cls-7" d="M11.66,117.45c-.11-.96-2.78-23.63-2.03-25.94,.69-2.11,5.54-10.62,6.06-11.37,.42-.6,3.01-3.41,5.31-2.23,2.29,1.17,3.92,2.41,3.93,2.42l.07,.05-1.85,3.35-3.71,3.84,3.03,4.52,3.46,21.48-.2,.03-3.46-21.45-3.09-4.6,3.82-3.95,1.74-3.16c-.34-.25-1.83-1.32-3.83-2.35-2.14-1.09-4.67,1.62-5.05,2.17-.51,.74-5.37,9.29-6.03,11.32-.74,2.27,2.01,25.62,2.04,25.85l-.21,.02Z"/></g><path class="cls-1" d="M94.58,90.23l-8.52-49.18,3.4-.59c2.82-.49,4.71-3.17,4.22-5.99l-5.23-30.18c-.49-2.82-3.17-4.71-5.99-4.22l-8.8,1.53c-.19,.01-.38,.04-.57,.07L10.79,12.47c-3.29,.57-5.5,3.7-4.93,7l14.49,83.63c.57,3.29,3.7,5.5,7,4.93l62.29-10.8c3.29-.57,5.5-3.7,4.93-7Z"/><rect class="cls-2" x="18.74" y="14.02" width="66.98" height="83.35" transform="translate(-8.74 9.74) rotate(-9.83)"/><path class="cls-12" d="M26.24,102.63l-.02-.13L11.96,20.24l.13-.02L78.21,8.76l.02,.13,14.26,82.26-.13,.02-66.12,11.46ZM12.27,20.46l14.19,81.86,65.73-11.39L78,9.06,12.27,20.46Z"/><rect class="cls-1" x="33.88" y="27.67" width="37.18" height="1.59" transform="translate(-5.72 15.16) rotate(-15.6)"/><rect class="cls-11" x="34.94" y="31.44" width="37.18" height="1.59" transform="translate(-6.7 15.58) rotate(-15.6)"/><rect class="cls-11" x="35.99" y="35.21" width="37.18" height="1.59" transform="translate(-7.67 16) rotate(-15.6)"/><rect class="cls-11" x="37.04" y="38.98" width="37.18" height="1.59" transform="translate(-8.65 16.43) rotate(-15.6)"/><rect class="cls-11" x="19.35" y="50.05" width="58.33" height="1.59" transform="translate(-11.89 14.92) rotate(-15.6)"/><rect class="cls-11" x="20.6" y="54.54" width="58.33" height="1.59" transform="translate(-13.05 15.42) rotate(-15.6)"/><rect class="cls-11" x="21.85" y="59.04" width="58.33" height="1.59" transform="translate(-14.21 15.92) rotate(-15.6)"/><rect class="cls-11" x="23.11" y="63.53" width="58.33" height="1.59" transform="translate(-15.37 16.43) rotate(-15.6)"/><rect class="cls-11" x="24.36" y="68.02" width="58.33" height="1.59" transform="translate(-16.53 16.93) rotate(-15.6)"/><rect class="cls-11" x="25.62" y="72.51" width="58.33" height="1.59" transform="translate(-17.7 17.43) rotate(-15.6)"/><rect class="cls-11" x="26.87" y="77" width="58.33" height="1.59" transform="translate(-18.86 17.93) rotate(-15.6)"/><rect class="cls-11" x="28.12" y="81.49" width="58.33" height="1.59" transform="translate(-20.02 18.44) rotate(-15.6)"/><rect class="cls-11" x="29.38" y="85.98" width="58.33" height="1.59" transform="translate(-21.18 18.94) rotate(-15.6)"/><rect class="cls-1" x="39.63" y="24.68" width="37.18" height="1.59" transform="translate(-3.5 10.32) rotate(-9.83)"/><rect class="cls-11" x="40.3" y="28.53" width="37.18" height="1.59" transform="translate(-4.14 10.49) rotate(-9.83)"/><rect class="cls-11" x="40.97" y="32.39" width="37.18" height="1.59" transform="translate(-4.79 10.66) rotate(-9.83)"/><rect class="cls-11" x="41.64" y="36.24" width="37.18" height="1.59" transform="translate(-5.44 10.83) rotate(-9.83)"/><rect class="cls-11" x="22.87" y="46.55" width="58.33" height="1.59" transform="translate(-7.32 9.58) rotate(-9.83)"/><rect class="cls-11" x="23.66" y="51.14" width="58.33" height="1.59" transform="translate(-8.09 9.78) rotate(-9.83)"/><rect class="cls-11" x="24.46" y="55.74" width="58.33" height="1.59" transform="translate(-8.87 9.99) rotate(-9.83)"/><rect class="cls-11" x="25.26" y="60.33" width="58.33" height="1.59" transform="translate(-9.64 10.19) rotate(-9.83)"/><rect class="cls-11" x="26.05" y="64.93" width="58.33" height="1.59" transform="translate(-10.41 10.4) rotate(-9.83)"/><rect class="cls-11" x="26.85" y="69.52" width="58.33" height="1.59" transform="translate(-11.19 10.6) rotate(-9.83)"/><rect class="cls-11" x="27.65" y="74.12" width="58.33" height="1.59" transform="translate(-11.96 10.8) rotate(-9.83)"/><rect class="cls-11" x="28.44" y="78.71" width="58.33" height="1.59" transform="translate(-12.73 11.01) rotate(-9.83)"/><rect class="cls-11" x="29.24" y="83.3" width="58.33" height="1.59" transform="translate(-13.5 11.21) rotate(-9.83)"/><rect class="cls-2" x="14.89" y="16.86" width="68.06" height="84.69" transform="translate(-14.12 15.34) rotate(-15.6)"/><path class="cls-12" d="M27.44,109.31l-.04-.13L4.59,27.48l.13-.04L70.4,9.11l.04,.13,22.81,81.7-.13,.04L27.44,109.31ZM4.92,27.67L27.62,108.98l65.29-18.23L70.21,9.44,4.92,27.67Z"/><rect class="cls-1" x="33.88" y="27.67" width="37.18" height="1.59" transform="translate(-5.72 15.16) rotate(-15.6)"/><rect class="cls-11" x="34.94" y="31.44" width="37.18" height="1.59" transform="translate(-6.7 15.58) rotate(-15.6)"/><rect class="cls-11" x="35.99" y="35.21" width="37.18" height="1.59" transform="translate(-7.67 16) rotate(-15.6)"/><rect class="cls-11" x="37.04" y="38.98" width="37.18" height="1.59" transform="translate(-8.65 16.43) rotate(-15.6)"/><rect class="cls-11" x="19.35" y="50.05" width="58.33" height="1.59" transform="translate(-11.89 14.92) rotate(-15.6)"/><rect class="cls-11" x="20.6" y="54.54" width="58.33" height="1.59" transform="translate(-13.05 15.42) rotate(-15.6)"/><rect class="cls-11" x="21.85" y="59.04" width="58.33" height="1.59" transform="translate(-14.21 15.92) rotate(-15.6)"/><rect class="cls-11" x="23.11" y="63.53" width="58.33" height="1.59" transform="translate(-15.37 16.43) rotate(-15.6)"/><rect class="cls-11" x="24.36" y="68.02" width="58.33" height="1.59" transform="translate(-16.53 16.93) rotate(-15.6)"/><rect class="cls-11" x="25.62" y="72.51" width="58.33" height="1.59" transform="translate(-17.7 17.43) rotate(-15.6)"/><rect class="cls-11" x="26.87" y="77" width="58.33" height="1.59" transform="translate(-18.86 17.93) rotate(-15.6)"/><rect class="cls-11" x="28.12" y="81.49" width="58.33" height="1.59" transform="translate(-20.02 18.44) rotate(-15.6)"/><rect class="cls-11" x="29.38" y="85.98" width="58.33" height="1.59" transform="translate(-21.18 18.94) rotate(-15.6)"/><g><rect class="cls-2" x="12.35" y="21.09" width="66.98" height="83.35" transform="translate(-18.62 19.33) rotate(-19.89)"/><path class="cls-12" d="M28.44,113.52l-.05-.13L0,34.89l.13-.05L63.23,12.02l.05,.13,28.4,78.5-.13,.05-63.11,22.83ZM.34,35.05L28.6,113.18l62.73-22.69L63.07,12.36,.34,35.05Z"/></g><rect class="cls-11" x="12.5" y="39.91" width="15.9" height="16.55" transform="translate(-15.17 9.83) rotate(-19.89)"/><g><circle class="cls-1" cx="19.49" cy="45.54" r="2.67"/><path class="cls-1" d="M21.49,48.66h0c2.39,0,4.34,1.94,4.34,4.34v.49h-8.68v-.49c0-2.39,1.94-4.34,4.34-4.34Z" transform="translate(-16.09 10.35) rotate(-19.89)"/></g><rect class="cls-1" x="29.64" y="30.41" width="37.18" height="1.59" transform="translate(-7.74 18.26) rotate(-19.89)"/><rect class="cls-11" x="30.97" y="34.08" width="37.18" height="1.59" transform="translate(-8.91 18.94) rotate(-19.89)"/><rect class="cls-11" x="32.3" y="37.76" width="37.18" height="1.59" transform="translate(-10.08 19.61) rotate(-19.89)"/><rect class="cls-11" x="33.63" y="41.44" width="37.18" height="1.59" transform="translate(-11.25 20.28) rotate(-19.89)"/><g><rect class="cls-11" x="15.38" y="52.89" width="58.33" height="1.59" transform="translate(-15.6 18.35) rotate(-19.89)"/><rect class="cls-11" x="16.97" y="57.27" width="58.33" height="1.59" transform="translate(-17 19.15) rotate(-19.89)"/><rect class="cls-11" x="18.55" y="61.66" width="58.33" height="1.59" transform="translate(-18.4 19.95) rotate(-19.89)"/><rect class="cls-11" x="20.14" y="66.04" width="58.33" height="1.59" transform="translate(-19.79 20.75) rotate(-19.89)"/><rect class="cls-11" x="21.72" y="70.43" width="58.33" height="1.59" transform="translate(-21.19 21.56) rotate(-19.89)"/><rect class="cls-11" x="23.31" y="74.81" width="58.33" height="1.59" transform="translate(-22.59 22.36) rotate(-19.89)"/><rect class="cls-11" x="24.9" y="79.2" width="58.33" height="1.59" transform="translate(-23.99 23.16) rotate(-19.89)"/><rect class="cls-11" x="26.48" y="83.58" width="58.33" height="1.59" transform="translate(-25.38 23.96) rotate(-19.89)"/><rect class="cls-11" x="28.07" y="87.97" width="58.33" height="1.59" transform="translate(-26.78 24.76) rotate(-19.89)"/></g><g><path class="cls-1" d="M98.6,81.48h0l-.18-1-.24-1.37-5.6-32.35-.39-2.19-.02-.14-.38-2.21c-.56-.3-1.15-.59-1.75-.85-.36-.02-.72-.03-1.08-.03-.05-.01-.11-.01-.16-.01h-.15c-1.59,0-3.14,.18-4.63,.5-.05,.01-.1,.02-.15,.04-.05,0-.11,.01-.16,.04-1.88,.42-3.66,1.08-5.33,1.96-.05,.02-.09,.04-.14,.07-.05,.02-.1,.05-.15,.08-1.51,.81-2.89,1.79-4.17,2.93h-.02c-.11,.1-.22,.19-.32,.29h-.01c-.23,.22-.44,.42-.65,.63h-.01c-.44,.45-.86,.91-1.26,1.39h0c-.28,.32-.54,.64-.78,.97-.06,.07-.12,.15-.17,.23-.7,.94-1.32,1.94-1.85,2.99-.27,.5-.51,1.01-.73,1.53l-.06,.15c-.06,.14-.11,.26-.16,.4h0c-.22,.54-.4,1.08-.57,1.63-.03,.1-.06,.19-.08,.29-.2,.65-.36,1.32-.48,1.99-.12,.57-.21,1.14-.26,1.73h0c-.02,.09-.03,.16-.03,.24h0c-.01,.07-.02,.13-.02,.2-.05,.52-.08,1.04-.09,1.57-.01,.16-.01,.32-.01,.48h0c0,.5,.02,1,.06,1.48,.03,.6,.09,1.19,.18,1.77,0,.04,.01,.08,.01,.11,.02,.14,.04,.27,.07,.4,.07,.46,.16,.91,.28,1.36,.03,.18,.07,.35,.12,.52,.11,.44,.24,.86,.38,1.28,.18,.57,.39,1.13,.62,1.68,.01,.04,.03,.09,.05,.13,.05,.11,.1,.23,.16,.34,.18,.43,.39,.86,.61,1.27,.07,.15,.15,.3,.24,.45,.25,.45,.51,.9,.8,1.33,.31,.49,.64,.97,1.01,1.43,.06,.1,.13,.19,.21,.28,.02,.03,.04,.06,.07,.09,.34,.43,.69,.84,1.06,1.24,.09,.1,.19,.2,.28,.3,.52,.54,1.07,1.06,1.64,1.54,.42,.37,.85,.71,1.29,1.04,.07,.05,.15,.1,.22,.15,.19,.14,.38,.27,.57,.39,.44,.3,.88,.58,1.34,.83,.03,.03,.07,.05,.1,.06,1.31,.75,2.71,1.36,4.17,1.83,.28,.09,.56,.17,.84,.25,.13,.04,.26,.07,.39,.11h.01c1.07,.27,2.16,.47,3.28,.58h.01c.26,.03,.53,.05,.8,.06,.19,.02,.37,.03,.56,.04,.31,.01,.61,.02,.92,.02,1.52,0,3-.15,4.43-.44l.15-.03,.15-.03c.77-.17,1.54-.38,2.28-.63,.05-.01,.09-.03,.14-.05,.05-.01,.1-.03,.15-.05,.06,0,.11-.03,.16-.06,.05,0,.1-.02,.14-.05,.06-.01,.11-.03,.16-.06,.85-.31,1.68-.67,2.48-1.09l-.35-2.05Z"/><g><path class="cls-2" d="M96.19,83.99l-.2-1.17-.15-.91-.03-.16-6.38-36.84-.11-.64-.25-1.43-.27-1.51h-.15c-1.59,0-3.14,.18-4.63,.5-.05,.01-.1,.02-.15,.04-.05,0-.11,.01-.16,.04-1.88,.42-3.66,1.08-5.33,1.96-.05,.02-.09,.04-.14,.07-.05,.02-.1,.05-.15,.08-1.51,.81-2.89,1.79-4.17,2.93h-.02c-.11,.1-.22,.19-.32,.29h-.01c-.23,.22-.44,.42-.65,.63h-.01c-.44,.45-.86,.91-1.26,1.39h0c-.28,.32-.54,.64-.78,.97-.06,.07-.12,.15-.17,.23-.7,.94-1.32,1.94-1.85,2.99-.27,.5-.51,1.01-.73,1.53l-.06,.15c-.06,.14-.11,.26-.16,.4h0c-.22,.54-.4,1.08-.57,1.63-.03,.1-.06,.19-.08,.29-.2,.65-.36,1.32-.48,1.99-.12,.57-.21,1.14-.26,1.73h0c-.02,.09-.03,.16-.03,.24h0c-.01,.07-.02,.13-.02,.2-.05,.52-.08,1.04-.09,1.57-.01,.16-.01,.32-.01,.48h0c0,.5,.02,1,.06,1.48,.03,.6,.09,1.19,.18,1.77,0,.04,.01,.08,.01,.11,.02,.14,.04,.27,.07,.4,.07,.46,.16,.91,.28,1.36,.03,.18,.07,.35,.12,.52,.11,.44,.24,.86,.38,1.28,.18,.57,.39,1.13,.62,1.68,.01,.04,.03,.09,.05,.13,.05,.11,.1,.23,.16,.34,.18,.43,.39,.86,.61,1.27,.07,.15,.15,.3,.24,.45,.25,.45,.51,.9,.8,1.33,.31,.49,.64,.97,1.01,1.43,.06,.1,.13,.19,.21,.28,.02,.03,.04,.06,.07,.09,.34,.43,.69,.84,1.06,1.24,.09,.1,.19,.2,.28,.3,.52,.54,1.07,1.06,1.64,1.54,.42,.37,.85,.71,1.29,1.04,.07,.05,.15,.1,.22,.15,.19,.14,.38,.27,.57,.39,.44,.3,.88,.58,1.34,.83,.03,.03,.07,.05,.1,.06,1.31,.75,2.71,1.36,4.17,1.83,.28,.09,.56,.17,.84,.25,.13,.04,.26,.07,.39,.11h.01c1.07,.27,2.16,.47,3.28,.58h.01c.26,.03,.53,.05,.8,.06,.19,.02,.37,.03,.56,.04,.31,.01,.61,.02,.92,.02,1.52,0,3-.15,4.43-.44l.15-.03,.15-.03c.77-.17,1.54-.38,2.28-.63,.05-.01,.09-.03,.14-.05,.05-.01,.1-.03,.15-.05,.06,0,.11-.03,.16-.06,.05,0,.1-.02,.14-.05l-.12-.69Z"/><path class="cls-12" d="M96.34,83.86l-.2-1.16-.16-.94v-.07l-6.37-36.69-.13-.73-.24-1.36-.28-1.57c-.05-.01-.11-.01-.16-.01h-.15l.24,1.44,.26,1.49,.1,.58,6.42,36.97,.04,.24,.14,.88,.21,1.19,.11,.61c.05,0,.1-.02,.14-.05,.06-.01,.11-.03,.16-.06l-.13-.76Z"/></g><g><path class="cls-11" d="M81.7,47.39l-1.23,.35-.63,.18-.15,.03-.16,.05-3.51,.98-5.32,1.48c.05-.08,.11-.16,.17-.23,.24-.33,.5-.65,.78-.96h0c.4-.49,.82-.95,1.26-1.39h.01l3.31-.93,2.66-.75,.15-.04,.15-.04,.79-.23,1.21-.33,.03,.12,.02,.06,.46,1.65Z"/><path class="cls-11" d="M83.18,52.73l-1.45,.41h-.02l-.13,.04-.16,.04-10.64,2.98-.36,.1-3.09,.86c.17-.55,.35-1.09,.57-1.62h0c.05-.15,.1-.27,.16-.41l.06-.15,1.64-.46,2.16-.6,6.18-1.73,2.68-.74,.16-.05,.15-.03,.27-.09,1.32-.37,.04,.13,.46,1.69Z"/><path class="cls-11" d="M84.68,58.07l-1.06,.3-.15,.04-.16,.04-.42,.12-10.83,3.02-2.73,.76h0l-2.96,.83c.01-.53,.04-1.05,.09-1.57,0-.07,.01-.13,.02-.19h0c0-.09,.01-.16,.03-.24h0l3.06-.85h0l1.86-.52,8.58-2.39,2.51-.7,.15-.05,.16-.04,.15-.04,1.19-.34,.05,.17,.46,1.65Z"/><path class="cls-11" d="M86.17,63.41l-.66,.18-.15,.05-.15,.05-1.08,.29-10.26,2.87-4.1,1.14-2.81,.79c-.12-.45-.21-.9-.28-1.36-.03-.13-.05-.26-.07-.4,0-.03-.01-.07-.01-.11l2.84-.79,3.75-1.05,8.71-2.43,1.85-.51,.81-.23,.16-.04,.15-.04,.79-.23,.06,.19,.45,1.63Z"/><path class="cls-11" d="M87.67,68.77l-.26,.07-.16,.04-.14,.04-1.71,.48-10.05,2.8-3.57,1-2.88,.8c-.22-.41-.43-.84-.61-1.27-.06-.11-.11-.23-.16-.34-.02-.04-.04-.09-.05-.13l2.84-.8,3.91-1.09,8.96-2.5,1.14-.32,1.52-.43,.16-.03,.15-.05,.4-.11,.06,.23,.45,1.61Z"/><path class="cls-11" d="M89.15,74.11h-.01l-.14,.04-2.34,.66-9.51,2.65-1.63,.46-3.23,.9c-.37-.4-.72-.81-1.06-1.24-.03-.03-.05-.06-.07-.09-.08-.09-.15-.18-.21-.28l3.06-.85,2.61-.73,9.06-2.52,.49-.15,2.18-.6,.15-.05,.14-.04,.07,.25,.44,1.59Z"/><path class="cls-11" d="M90.64,79.45l-2.85,.79-5.87,1.64-3.14,.87-1.15,.32c-.46-.25-.9-.53-1.34-.83-.19-.12-.38-.25-.57-.39-.07-.05-.15-.1-.22-.15l2.7-.76,1.06-.3,8.18-2.28,.13-.03,2.57-.72,.07,.28,.43,1.56Z"/><path class="cls-11" d="M92.14,84.79l-3.08,.85-1.27,.36c-.19-.01-.37-.02-.56-.04-.27-.01-.54-.03-.8-.06h-.01c-1.12-.11-2.21-.31-3.28-.58l5.45-1.52,.87-.24,2.17-.61,.08,.31,.43,1.53Z"/></g><g><path class="cls-11" d="M86.01,46.77l-.58,.1-.15,.04-.16,.02-4.65,.81-.65,.1-.16,.04-.16,.02-2.75,.48-1.45,.25-3.65,.63c.4-.48,.82-.94,1.26-1.38h.01c.21-.22,.42-.42,.65-.63h.01c.1-.11,.21-.2,.32-.29h.02l.89-.16,1.27-.23,2.76-.47,.17-.04,.15-.02,.82-.15,1.24-.21,.32-.05s.01-.01,.02-.01l3.04-.52,.17-.03,.15-.03,.77-.13,.32,1.86Z"/><path class="cls-11" d="M86.97,52.23l-.04,.02-.15,.02-.17,.02-4.88,.85h-.02l-.13,.03-.17,.03-4.64,.81-5.41,.93-3.46,.59c.05-.14,.1-.26,.16-.4l.06-.15c.22-.52,.46-1.03,.73-1.53l3.77-.66,3.65-.63,1.73-.3,2.76-.47,.16-.04,.16-.02,.28-.05,1.36-.24,3.38-.58,.16-.02,.16-.04,.22-.03,.33,1.86Z"/><path class="cls-11" d="M87.91,57.7l-4.26,.74-.16,.03-.15,.03-.45,.07-4.74,.82-8.67,1.51-2.03,.35-.97,.16c0-.08,.01-.15,.03-.23h0c.05-.6,.14-1.17,.26-1.74l3.1-.53,7.78-1.35,2.26-.39,2.61-.45,.16-.04,.16-.02,.15-.03,1.23-.21,3.36-.58,.33,1.86Z"/><path class="cls-11" d="M88.86,63.16l-3.3,.57-.15,.03-.16,.03-1.12,.19-4.49,.78-10.15,1.75-.57,.1-2.31,.41s-.01-.07-.01-.11c-.09-.58-.15-1.17-.18-1.77l2.89-.51,9.82-1.7,2.7-.47,1.92-.33,.84-.16,.32-.04,.81-.15,2.82-.48,.32,1.86Z"/><path class="cls-11" d="M89.81,68.63l-2.33,.41-.16,.02-.15,.04-1.77,.3-4.42,.77-9.88,1.7-.81,.14-2.16,.38s-.04-.09-.05-.13c-.23-.55-.44-1.11-.62-1.68l2.91-.5,10.14-1.75,3.23-.58,1.19-.2,1.58-.27,.16-.03,.15-.02,.4-.07,2.25-.39,.34,1.86Z"/><path class="cls-11" d="M90.75,74.09l-1.36,.24-.15,.03-.16,.02-2.42,.43-4.17,.71-7.99,1.39-2.71,.47-.63,.11c-.08-.09-.15-.18-.21-.28-.37-.46-.7-.94-1.01-1.43l3.16-.55,8.89-1.54,3.68-.64,.5-.09,2.26-.39,.15-.02,.13-.03h.03l1.69-.29,.32,1.86Z"/><path class="cls-11" d="M91.7,79.56l-.39,.08-.16,.02-.15,.02-3.21,.56-3.95,.69-2.97,.52-4.58,.79c-.19-.12-.38-.25-.57-.39-.07-.05-.15-.1-.22-.15-.44-.33-.87-.67-1.29-1.04l3.94-.69,5.25-.91,4.04-.7h.13l2.64-.47,.13-.03,.16-.02,.15-.02,.73-.13,.32,1.87Z"/><path class="cls-11" d="M92.65,85.02l-.8,.15-2.79,.47-1.83,.32c-.27-.01-.54-.03-.8-.06h-.01c-1.12-.11-2.21-.31-3.28-.58h-.01c-.13-.04-.26-.07-.39-.11-.28-.08-.56-.16-.84-.25l2.95-.51,3.74-.65,.9-.16,2.22-.38,.55-.09h.06l.06,.34,.21,1.16,.06,.35Z"/></g><g><path class="cls-2" d="M95.74,84.4l-.32-1.15-.2-.74-.14-.49-8.3-29.75-.52-1.83-.98-3.53-.51-1.84-.11-.39-.44-1.54-.35-1.27s-.11,.01-.16,.04c-1.88,.42-3.66,1.08-5.33,1.96-.05,.02-.09,.04-.14,.07-.05,.02-.1,.05-.15,.08-1.51,.81-2.89,1.79-4.17,2.93h-.02c-.11,.1-.22,.19-.32,.29h-.01c-.23,.22-.44,.42-.65,.63h-.01c-.44,.45-.86,.91-1.26,1.39h0c-.28,.32-.54,.64-.78,.97-.06,.07-.12,.15-.17,.23-.7,.94-1.32,1.94-1.85,2.99-.27,.5-.51,1.01-.73,1.53l-.06,.15c-.06,.14-.11,.26-.16,.4h0c-.22,.54-.4,1.08-.57,1.63-.03,.1-.06,.19-.08,.29-.2,.65-.36,1.32-.48,1.99-.12,.57-.21,1.14-.26,1.73h0c-.02,.09-.03,.16-.03,.24h0c-.01,.07-.02,.13-.02,.2-.05,.52-.08,1.04-.09,1.57-.01,.16-.01,.32-.01,.48h0c0,.5,.02,1,.06,1.48,.03,.6,.09,1.19,.18,1.77,0,.04,.01,.08,.01,.11,.02,.14,.04,.27,.07,.4,.07,.46,.16,.91,.28,1.36,.03,.18,.07,.35,.12,.52,.11,.44,.24,.86,.38,1.28,.18,.57,.39,1.13,.62,1.68,.01,.04,.03,.09,.05,.13,.05,.11,.1,.23,.16,.34,.18,.43,.39,.86,.61,1.27,.07,.15,.15,.3,.24,.45,.25,.45,.51,.9,.8,1.33,.31,.49,.64,.97,1.01,1.43,.06,.1,.13,.19,.21,.28,.02,.03,.04,.06,.07,.09,.34,.43,.69,.84,1.06,1.24,.09,.1,.19,.2,.28,.3,.52,.54,1.07,1.06,1.64,1.54,.42,.37,.85,.71,1.29,1.04,.07,.05,.15,.1,.22,.15,.19,.14,.38,.27,.57,.39,.44,.3,.88,.58,1.34,.83,.03,.03,.07,.05,.1,.06,1.31,.75,2.71,1.36,4.17,1.83,.28,.09,.56,.17,.84,.25,.13,.04,.26,.07,.39,.11h.01c1.07,.27,2.16,.47,3.28,.58h.01c.26,.03,.53,.05,.8,.06,.19,.02,.37,.03,.56,.04,.31,.01,.61,.02,.92,.02,1.52,0,3-.15,4.43-.44l.15-.03,.15-.03c.77-.17,1.54-.38,2.28-.63,.05-.01,.09-.03,.14-.05l-.12-.44Z"/><path class="cls-12" d="M95.87,84.29l-.31-1.15-.21-.74-.12-.43-8.3-29.72-.51-1.85-.99-3.53-.51-1.83-.11-.39-.41-1.48-.38-1.34c-.05,.01-.1,.02-.15,.04-.05,0-.11,.01-.16,.04l.33,1.18,.45,1.63,.11,.38,.52,1.83,.98,3.53,.51,1.83,8.32,29.78,.16,.57,.2,.72,.32,1.15,.11,.38c.05-.01,.09-.03,.14-.05,.05-.01,.1-.03,.15-.05l-.14-.5Z"/></g><g><path class="cls-11" d="M81.7,47.39l-1.23,.35-.63,.18-.15,.03-.16,.05-3.51,.98-5.32,1.48c.05-.08,.11-.16,.17-.23,.24-.33,.5-.65,.78-.96h0c.4-.49,.82-.95,1.26-1.39h.01l3.31-.93,2.66-.75,.15-.04,.15-.04,.79-.23,1.21-.33,.03,.12,.02,.06,.46,1.65Z"/><path class="cls-11" d="M83.18,52.73l-1.45,.41h-.02l-.13,.04-.16,.04-10.64,2.98-.36,.1-3.09,.86c.17-.55,.35-1.09,.57-1.62h0c.05-.15,.1-.27,.16-.41l.06-.15,1.64-.46,2.16-.6,6.18-1.73,2.68-.74,.16-.05,.15-.03,.27-.09,1.32-.37,.04,.13,.46,1.69Z"/><path class="cls-11" d="M84.68,58.07l-1.06,.3-.15,.04-.16,.04-.42,.12-10.83,3.02-2.73,.76h0l-2.96,.83c.01-.53,.04-1.05,.09-1.57,0-.07,.01-.13,.02-.19h0c0-.09,.01-.16,.03-.24h0l3.06-.85h0l1.86-.52,8.58-2.39,2.51-.7,.15-.05,.16-.04,.15-.04,1.19-.34,.05,.17,.46,1.65Z"/><path class="cls-11" d="M86.17,63.41l-.66,.18-.15,.05-.15,.05-1.08,.29-10.26,2.87-4.1,1.14-2.81,.79c-.12-.45-.21-.9-.28-1.36-.03-.13-.05-.26-.07-.4,0-.03-.01-.07-.01-.11l2.84-.79,3.75-1.05,8.71-2.43,1.85-.51,.81-.23,.16-.04,.15-.04,.79-.23,.06,.19,.45,1.63Z"/><path class="cls-11" d="M87.67,68.77l-.26,.07-.16,.04-.14,.04-1.71,.48-10.05,2.8-3.57,1-2.88,.8c-.22-.41-.43-.84-.61-1.27-.06-.11-.11-.23-.16-.34-.02-.04-.04-.09-.05-.13l2.84-.8,3.91-1.09,8.96-2.5,1.14-.32,1.52-.43,.16-.03,.15-.05,.4-.11,.06,.23,.45,1.61Z"/><path class="cls-11" d="M89.15,74.11h-.01l-.14,.04-2.34,.66-9.51,2.65-1.63,.46-3.23,.9c-.37-.4-.72-.81-1.06-1.24-.03-.03-.05-.06-.07-.09-.08-.09-.15-.18-.21-.28l3.06-.85,2.61-.73,9.06-2.52,.49-.15,2.18-.6,.15-.05,.14-.04,.07,.25,.44,1.59Z"/><path class="cls-11" d="M90.64,79.45l-2.85,.79-5.87,1.64-3.14,.87-1.15,.32c-.46-.25-.9-.53-1.34-.83-.19-.12-.38-.25-.57-.39-.07-.05-.15-.1-.22-.15l2.7-.76,1.06-.3,8.18-2.28,.13-.03,2.57-.72,.07,.28,.43,1.56Z"/><path class="cls-11" d="M92.14,84.79l-3.08,.85-1.27,.36c-.19-.01-.37-.02-.56-.04-.27-.01-.54-.03-.8-.06h-.01c-1.12-.11-2.21-.31-3.28-.58l5.45-1.52,.87-.24,2.17-.61,.08,.31,.43,1.53Z"/></g><g><g><path class="cls-2" d="M93.29,85.55l-.15,.03c-1.43,.29-2.91,.44-4.43,.44-.31,0-.61-.01-.92-.02-.19-.01-.37-.02-.56-.04-.27-.01-.54-.03-.8-.06h-.01c-1.12-.11-2.21-.31-3.28-.58h-.01c-.13-.04-.26-.07-.39-.11-.28-.08-.56-.16-.84-.25-1.46-.47-2.86-1.08-4.17-1.83-.03-.01-.07-.03-.1-.06-.46-.25-.9-.53-1.34-.83-.19-.12-.38-.25-.57-.39-.07-.05-.15-.1-.22-.15-.44-.33-.87-.67-1.29-1.04-.57-.48-1.12-1-1.64-1.54-.09-.1-.19-.2-.28-.3-.37-.4-.72-.81-1.06-1.24-.03-.03-.05-.06-.07-.09-.08-.09-.15-.18-.21-.28-.37-.46-.7-.94-1.01-1.43-.29-.43-.55-.88-.8-1.33-.09-.15-.17-.3-.24-.45-.22-.41-.43-.84-.61-1.27-.06-.11-.11-.23-.16-.34-.02-.04-.04-.09-.05-.13-.23-.55-.44-1.11-.62-1.68-.14-.42-.27-.84-.38-1.28-.05-.17-.09-.34-.12-.52-.12-.45-.21-.9-.28-1.36-.03-.13-.05-.26-.07-.4,0-.03-.01-.07-.01-.11-.09-.58-.15-1.17-.18-1.77-.04-.48-.06-.98-.06-1.47h0c0-.17,0-.33,.01-.49,.01-.53,.04-1.05,.09-1.57,0-.07,.01-.13,.02-.19h0c0-.09,.01-.16,.03-.24h0c.05-.6,.14-1.17,.26-1.74,.12-.67,.28-1.34,.48-1.99,.02-.1,.05-.19,.08-.29,.17-.55,.35-1.09,.57-1.62h0c.05-.15,.1-.27,.16-.41l.06-.15c.22-.52,.46-1.03,.73-1.53,.53-1.05,1.15-2.05,1.85-2.99,.05-.08,.11-.16,.17-.23,.24-.33,.5-.65,.78-.96h0c.4-.49,.82-.95,1.26-1.39h.01c.21-.22,.42-.42,.65-.63h.01c.1-.11,.21-.2,.32-.29h.02c1.28-1.15,2.66-2.13,4.17-2.94,.05-.03,.1-.06,.15-.08l.77,2.12,.03,.1,.2,.56,.42,1.16,.03,.07,1.23,3.4,.02,.05,.64,1.77h0l1.25,3.46v.03l.64,1.75,.02,.06,1.23,3.39,.03,.09,.61,1.69,.05,.12,1.2,3.33,.06,.16,.58,1.63,.07,.18,1.18,3.25,.08,.24,.56,1.56h.01l.09,.25,1.26,3.48,.65,1.82,1.13,3.1,.61,1.69,.21,.57,.19,.53Z"/><path class="cls-12" d="M93.23,84.93l-.21-.57-.59-1.62-1.12-3.1-.66-1.82-1.26-3.49-.65-1.81-.1-.25-1.16-3.23-.07-.2-.59-1.61-.06-.19-1.2-3.31-.05-.14-.6-1.66-.04-.11-1.22-3.38-.03-.07-.63-1.74v-.04l-1.26-3.45-.64-1.77v-.04l-1.25-3.41-.02-.08-.44-1.2-.19-.52-.03-.08-.78-2.17s-.09,.04-.14,.07c-.05,.02-.1,.05-.15,.08l.75,2.08,.05,.1,.21,.6,.4,1.1,.03,.1,1.23,3.39,.02,.06,.63,1.75v.02l1.26,3.45h.01l.63,1.78,.03,.05,1.22,3.4,.03,.07,.62,1.72,.04,.1,1.2,3.33,.06,.16,.6,1.64,.06,.18,1.18,3.26,.08,.21,.57,1.58,.08,.23,1.26,3.48,.66,1.82,1.12,3.11,.14,.38,.12,.34,.38,1.04,.21,.58,.17,.45,.15-.03,.15-.03-.21-.59Z"/></g><g><path class="cls-11" d="M76.65,48.14l-1.35,.49-4.43,1.6c.24-.33,.5-.65,.78-.96h0c.4-.49,.82-.95,1.26-1.39h.01c.21-.22,.42-.42,.65-.63h.01l1.23-.45,1.2-.44,.07,.21,.15,.38,.42,1.19Z"/><path class="cls-11" d="M78.53,53.36l-1.76,.65-5.98,2.16-.37,.13-3.17,1.15c.02-.1,.05-.19,.08-.29,.17-.55,.35-1.09,.57-1.62h0c.05-.15,.1-.27,.16-.41l1.7-.61,2.28-.83,4.23-1.53,1.62-.58,.11,.28,.1,.33,.43,1.17Z"/><path class="cls-11" d="M80.42,58.57l-2.27,.82-6.09,2.2-2.74,.99h0l-2.96,1.08c0-.16,0-.32,.01-.48,.01-.53,.04-1.05,.09-1.57l.99-.36,2.09-.76,1.89-.68,6.22-2.25,2.13-.77,.13,.38,.1,.25,.41,1.15Z"/><path class="cls-11" d="M82.32,63.79l-2.68,.97-5.77,2.09-4.03,1.45-2.76,1c-.05-.17-.09-.34-.12-.52-.12-.45-.21-.9-.28-1.36l2.24-.81,.55-.2,3.72-1.34,5.94-2.14,2.53-.92,.17,.45,.07,.18,.42,1.15Z"/><path class="cls-11" d="M84.19,69l-3.21,1.17-5.63,2.03-3.43,1.24-2.78,1.01c-.09-.15-.17-.3-.24-.45-.22-.41-.43-.84-.61-1.27l2-.72,.75-.27,3.79-1.37,5.68-2.04,3.04-1.11,.19,.53,.05,.12,.4,1.13Z"/><path class="cls-11" d="M86.09,74.22l-3.6,1.3-5.34,1.94-1.53,.55-3.05,1.11c-.09-.1-.19-.2-.28-.3-.37-.4-.72-.81-1.06-1.24l.56-.2,2.36-.86,2.47-.89,5.37-1.94,3.45-1.25,.23,.61v.06l.42,1.11Z"/><path class="cls-11" d="M87.96,79.43l-4.12,1.5-2.26,.81-2.8,1.01-1.05,.38s-.07-.03-.1-.06c-.46-.25-.9-.53-1.34-.83-.19-.12-.38-.25-.57-.39l2.48-.91,.97-.35,4.23-1.53,3.92-1.41,.25,.68v.02l.39,1.08Z"/><path class="cls-11" d="M89.86,84.65l-3.43,1.25h-.01c-1.12-.11-2.21-.31-3.28-.58h-.01c-.13-.04-.26-.07-.39-.11l2.11-.76,3.74-1.35,.62-.23,.08,.21,.17,.48,.03,.08,.37,1.01Z"/></g></g></g><g class="cls-9"><circle class="cls-2" cx="88.7" cy="63.68" r="20.89"/></g><polygon class="cls-2" points="123.45 102.84 133.67 99.96 141.74 109.85 133.38 119.73 123.45 102.84"/><g><path class="cls-2" d="M26.01,119.65s-.27-7.23,2.1-10.75,1.05-11.25-1.13-18.48c-.56-1.85,.19-10.44-.8-15.07,0,0-4.24-4.84-5.78,9.31-.53,4.82-1.31,4.01-4.16,10.34"/><path class="cls-7" d="M25.9,119.65c0-.07-.25-7.3,2.12-10.81,2.52-3.72,.77-12.06-1.14-18.39-.24-.81-.24-2.78-.24-5.28,0-3.18,0-7.14-.56-9.77-.13-.14-.99-.99-2-.67-1.18,.37-2.76,2.4-3.59,9.95-.34,3.09-.8,3.91-1.81,5.71-.56,1-1.34,2.38-2.37,4.66l-.19-.09c1.03-2.29,1.81-3.67,2.37-4.68,1.02-1.82,1.45-2.58,1.78-5.63,.67-6.15,1.93-9.55,3.73-10.12,1.22-.39,2.19,.71,2.23,.75l.02,.02v.03c.57,2.66,.57,6.64,.57,9.84,0,2.38,0,4.44,.23,5.22,1.92,6.38,3.68,14.78,1.12,18.57-2.33,3.45-2.09,10.61-2.09,10.68h-.21Z"/></g><polygon class="cls-2" points="22.16 99.58 12.13 104.21 11.91 117.4 25.73 119.65 22.16 99.58"/><g><g><path class="cls-2" d="M142.67,111.92s-13.2-19.73-15.28-21c-1.85-1.13-11.07-4.46-11.97-4.69-.43-.11-4.38-.71-5.37,1.69s-1.41,4.38-1.41,4.38l3.47,1.31,5.4,.51,.63,5.44,11.33,18.57"/><path class="cls-7" d="M129.38,118.18l-11.34-18.59v-.02l-.62-5.36-5.34-.51-3.56-1.34,.02-.09s.44-2.01,1.42-4.39c.98-2.38,4.78-1.94,5.49-1.76,.88,.23,10.1,3.55,11.99,4.71,2.08,1.27,14.78,20.23,15.32,21.03l-.17,.12c-.13-.2-13.21-19.73-15.25-20.97-1.82-1.11-11.07-4.45-11.94-4.68-.64-.17-4.33-.58-5.24,1.63-.86,2.08-1.29,3.87-1.39,4.27l3.38,1.27,5.47,.52v.08l.64,5.42,11.31,18.55-.18,.11Z"/></g><g><rect class="cls-3" x="104.13" y="91.23" width="4.52" height="8.19" rx="2.09" ry="2.09" transform="translate(49.7 -35.79) rotate(24.76)"/><path class="cls-7" d="M105.68,99.39c-.31,0-.63-.07-.94-.21l-.22-.1c-.54-.25-.96-.7-1.17-1.26-.21-.56-.18-1.17,.07-1.72l1.64-3.55c.52-1.12,1.85-1.62,2.98-1.1l.22,.1c1.12,.52,1.62,1.85,1.1,2.98l-1.64,3.55c-.38,.82-1.19,1.3-2.04,1.3Zm-.85-.39c1.02,.47,2.23,.02,2.7-1l1.64-3.55c.47-1.02,.02-2.23-1-2.7l-.22-.1c-1.02-.47-2.23-.02-2.7,1l-1.64,3.55c-.23,.49-.25,1.05-.06,1.56,.19,.51,.56,.92,1.06,1.14l.22,.1Z"/></g><g><path class="cls-4" d="M111.13,107.75c-.57-.07-1.78-.34-2.23-.57-.92-.48-.74-2.32-.42-3.46l1.86-6.69c.32-1.14,1.5-1.8,2.63-1.49l.23,.07c1.14,.32,1.8,1.5,1.49,2.63"/><path class="cls-8" d="M111.11,107.85c-.59-.07-1.8-.34-2.27-.58-1.01-.53-.77-2.5-.47-3.58l1.86-6.69c.33-1.19,1.57-1.89,2.76-1.56l.23,.07c.58,.16,1.06,.54,1.35,1.06s.37,1.13,.21,1.7l-.2-.06c.15-.52,.08-1.07-.19-1.55-.27-.47-.7-.81-1.23-.96l-.23-.07c-1.08-.3-2.21,.33-2.51,1.42l-1.86,6.69c-.26,.95-.53,2.87,.37,3.34,.43,.22,1.61,.49,2.2,.56l-.02,.21Z"/></g><g><g class="cls-9"><circle class="cls-2" cx="86.99" cy="64.33" r="21.74"/></g><path class="cls-6" d="M86.99,87.59c-12.83,0-23.26-10.44-23.26-23.26s10.44-23.26,23.26-23.26,23.26,10.44,23.26,23.26-10.44,23.26-23.26,23.26Zm0-43.49c-11.15,0-20.22,9.07-20.22,20.22s9.07,20.22,20.22,20.22,20.22-9.07,20.22-20.22-9.07-20.22-20.22-20.22Z"/><rect class="cls-5" x="109.61" y="76.42" width="4.15" height="37.76" transform="translate(-34.93 87.56) rotate(-37.45)"/><path class="cls-10" d="M114.36,80.13h3.99c1.51,0,2.74,1.23,2.74,2.74v35.31c0,2.42-1.96,4.38-4.38,4.38h-.73c-2.42,0-4.38-1.96-4.38-4.38v-35.31c0-1.51,1.23-2.74,2.74-2.74Z" transform="translate(-37.78 94.27) rotate(-38.43)"/></g><g><rect class="cls-4" x="113.59" y="106.13" width="3.98" height="7.75" rx="1.84" ry="1.84" transform="translate(229.37 -1.86) rotate(91.9)"/><path class="cls-8" d="M117.62,112.17s-.04,0-.07,0l-4.09-.14c-.52-.02-.99-.23-1.35-.61-.35-.38-.54-.87-.52-1.38v-.33c.05-1.06,.94-1.9,2.01-1.87l4.09,.14c.52,.02,.99,.23,1.35,.61,.35,.38,.54,.87,.52,1.38v.33c-.05,1.04-.9,1.87-1.94,1.87Zm-4.08-4.12c-.92,0-1.69,.74-1.72,1.67v.33c-.03,.46,.14,.9,.45,1.24,.31,.34,.74,.53,1.2,.55l4.09,.14c.95,.03,1.75-.72,1.78-1.67v-.33c.03-.46-.14-.9-.45-1.24-.31-.34-.74-.53-1.2-.55l-4.09-.14s-.04,0-.06,0Z"/></g><g><path class="cls-4" d="M111.49,103.24l3.88,.47c1.17,.14,2.01,1.21,1.87,2.38l-.03,.24c-.14,1.17-1.21,2.01-2.38,1.87l-3.88-.47"/><path class="cls-8" d="M115.1,108.32c-.09,0-.18,0-.27-.02l-3.88-.47,.02-.21,3.88,.47c.54,.06,1.07-.08,1.5-.42,.43-.34,.7-.82,.76-1.36l.03-.24c.07-.54-.08-1.07-.42-1.5-.34-.43-.82-.7-1.36-.76l-3.88-.47,.02-.21,3.88,.47c.59,.07,1.13,.37,1.5,.84,.37,.47,.53,1.06,.46,1.65l-.03,.24c-.07,.59-.37,1.13-.84,1.5-.4,.31-.88,.48-1.38,.48Z"/></g><g><rect class="cls-4" x="117.27" y="110.33" width="3.45" height="6.8" rx="1.59" ry="1.59" transform="translate(241.72 4.04) rotate(94.5)"/><path class="cls-8" d="M120.83,115.71s-.09,0-.13,0l-3.69-.29c-.44-.03-.84-.24-1.13-.57-.29-.34-.43-.76-.39-1.2l.03-.35c.03-.44,.24-.84,.57-1.13,.34-.29,.76-.42,1.2-.39l3.69,.29c.44,.03,.84,.24,1.13,.57,.29,.34,.43,.76,.39,1.2l-.03,.35c-.03,.44-.24,.84-.57,1.13-.3,.26-.68,.4-1.07,.4Zm-5.14-2.06c-.03,.38,.09,.76,.34,1.05,.25,.29,.6,.47,.99,.5l3.69,.29c.38,.03,.76-.09,1.05-.34s.47-.6,.5-.99l.03-.35c.03-.38-.09-.76-.34-1.05-.25-.29-.6-.47-.99-.5l-3.69-.29c-.38-.03-.76,.09-1.05,.34-.29,.25-.47,.6-.5,.99l-.03,.35Z"/></g><g><path class="cls-2" d="M133.5,123.21s-2.68-3.67-6.78-4.8-8.11-7.86-11.15-14.78c-.78-1.76-6.92-7.81-9.18-11.98,0,0,.08-6.43,10.45,3.32,3.53,3.32,3.6,2.2,9.88,5.15"/><path class="cls-7" d="M133.41,123.27s-2.71-3.66-6.72-4.76c-4.41-1.22-8.53-8.74-11.22-14.84-.33-.74-1.66-2.31-3.21-4.12-2.08-2.43-4.67-5.46-5.97-7.85v-.05c-.01-.06,.02-1.52,1.2-2.02,1.74-.74,4.91,1.03,9.41,5.27,2.24,2.1,3.05,2.4,5.01,3.12,1.08,.4,2.57,.94,4.85,2.01l-.09,.19c-2.27-1.07-3.75-1.61-4.83-2.01-1.93-.71-2.81-1.03-5.08-3.16-5.53-5.2-8.05-5.71-9.19-5.23-.97,.41-1.07,1.62-1.08,1.81,1.29,2.37,3.86,5.37,5.93,7.79,1.62,1.9,2.91,3.4,3.24,4.17,2.66,6.06,6.75,13.53,11.08,14.72,4.08,1.13,6.81,4.8,6.83,4.84l-.17,.12Z"/></g><polygon class="cls-2" points="123.17 105.1 133.8 102.1 142.05 112.17 133.5 122.68 123.17 105.1"/></g></g></g></svg>